<?xml version="1.0" encoding="UTF-8" standalone="no"?>
<!-- Created with Inkscape (http://www.inkscape.org/) -->

<svg
   xmlns:dc="http://purl.org/dc/elements/1.1/"
   xmlns:cc="http://creativecommons.org/ns#"
   xmlns:rdf="http://www.w3.org/1999/02/22-rdf-syntax-ns#"
   xmlns:svg="http://www.w3.org/2000/svg"
   xmlns="http://www.w3.org/2000/svg"
   xmlns:sodipodi="http://sodipodi.sourceforge.net/DTD/sodipodi-0.dtd"
   xmlns:inkscape="http://www.inkscape.org/namespaces/inkscape"
   width="55.32"
   height="55.32"
   id="svg3165"
   version="1.1"
   inkscape:version="0.48.4 r9939"
   sodipodi:docname="New document 3">
  <defs
     id="defs3167" />
  <sodipodi:namedview
     id="base"
     pagecolor="#ffffff"
     bordercolor="#666666"
     borderopacity="1.0"
     inkscape:pageopacity="0.0"
     inkscape:pageshadow="2"
     inkscape:zoom="5.5"
     inkscape:cx="23.315886"
     inkscape:cy="27.658208"
     inkscape:current-layer="layer1"
     showgrid="true"
     inkscape:document-units="px"
     inkscape:grid-bbox="true"
     fit-margin-top="0"
     fit-margin-left="0"
     fit-margin-right="0"
     fit-margin-bottom="0"
     inkscape:window-width="1327"
     inkscape:window-height="744"
     inkscape:window-x="39"
     inkscape:window-y="24"
     inkscape:window-maximized="1" />
  <metadata
     id="metadata3170">
    <rdf:RDF>
      <cc:Work
         rdf:about="">
        <dc:format>image/svg+xml</dc:format>
        <dc:type
           rdf:resource="http://purl.org/dc/dcmitype/StillImage" />
        <dc:title></dc:title>
      </cc:Work>
    </rdf:RDF>
  </metadata>
  <g
     id="layer1"
     inkscape:label="Layer 1"
     inkscape:groupmode="layer"
     transform="translate(-8.6841141,-4.3382061)">
    <g
       transform="translate(-25.912071,3.1103963)"
       id="g32">
      <path
         style="fill:#bed630;fill-rule:evenodd"
         inkscape:connector-curvature="0"
         clip-rule="evenodd"
         d="M 52.092,56.539 C 50.245,56.623 48.09,56.104 46.053,55.085 44.981,54.549 44,53.875 43.112,53.058 41.935,51.974 40.968,50.737 40.256,49.306 39.462,47.708 39.035,46.019 38.954,44.23 c -0.124,-2.751 0.595,-5.259 2.104,-7.543 1.085,-1.64 2.52,-2.916 4.194,-3.942 1.648,-1.01 3.174,-2.172 4.362,-3.726 0.793,-1.038 1.326,-2.193 1.604,-3.469 0.021,-0.094 -0.014,-0.271 0.142,-0.265 0.114,0.004 0.099,0.158 0.132,0.252 0.539,1.502 1.406,2.794 2.518,3.931 1.352,1.382 2.958,2.409 4.634,3.341 2.541,1.412 4.57,3.333 5.83,5.987 0.58,1.22 0.916,2.518 1.02,3.868 0.249,3.235 -0.632,6.138 -2.602,8.706 -1.415,1.845 -3.215,3.204 -5.355,4.109 -1.598,0.674 -3.263,1.037 -5.445,1.06 z m 0.563,-17.457 c -1.324,-0.012 -2.181,0.239 -2.981,0.719 -1.605,0.963 -2.517,2.982 -2.122,4.736 0.654,2.908 3.771,4.516 6.532,3.375 2.195,-0.906 3.293,-3.047 2.831,-5.166 -0.477,-2.183 -2.392,-3.667 -4.26,-3.664 z"
         id="path34" />
      <path
         style="fill:#ea292b;fill-rule:evenodd"
         inkscape:connector-curvature="0"
         clip-rule="evenodd"
         d="m 74.396,32.945 c -1.31,0.748 -2.498,1.655 -3.562,2.728 -1.299,1.311 -2.224,2.843 -2.743,4.616 -0.022,0.075 -0.026,0.179 -0.125,0.176 -0.109,-0.004 -0.085,-0.113 -0.099,-0.187 -0.208,-1.086 -0.525,-2.134 -1.002,-3.137 -0.962,-2.022 -2.434,-3.599 -4.195,-4.941 -1.122,-0.855 -2.394,-1.459 -3.594,-2.184 -2.332,-1.409 -4.086,-3.35 -5.301,-5.788 -1.358,-2.727 -1.801,-5.615 -1.486,-8.621 0.277,-2.651 1.204,-5.075 2.725,-7.268 0.071,-0.102 0.131,-0.212 0.197,-0.319 l -0.01,-0.024 c 0.101,-0.021 0.133,-0.114 0.187,-0.184 0.691,-0.888 1.456,-1.703 2.3,-2.45 0.81,-0.716 1.709,-1.304 2.608,-1.895 0.025,-0.012 0.049,-0.025 0.074,-0.037 0.137,-0.075 0.273,-0.151 0.409,-0.226 0.936,-0.413 1.85,-0.872 2.835,-1.171 1.42,-0.43 2.865,-0.701 4.35,-0.777 3.735,-0.19 7.181,0.719 10.291,2.777 3.433,2.273 5.734,5.398 6.81,9.401 0.345,1.284 0.511,2.592 0.507,3.911 -0.007,2.252 -0.443,4.425 -1.383,6.485 -0.028,0.061 -0.042,0.129 -0.063,0.194 -0.159,0.298 -0.312,0.599 -0.479,0.893 -0.294,0.518 -0.598,1.03 -0.898,1.545 l -0.004,0.01 c -0.584,0.689 -1.169,1.378 -1.754,2.068 l 0.003,-0.002 c -0.423,0.37 -0.866,0.718 -1.247,1.134 0,0 -0.014,0.008 -0.013,0.008 -0.149,0.041 -0.256,0.132 -0.328,0.268 l -0.013,0.007 c -0.282,0.132 -0.523,0.319 -0.738,0.542 l -0.013,0.005 c -1.01,0.622 -2.061,1.17 -3.099,1.743 -0.273,0.151 -0.569,0.268 -0.786,0.507 l -0.012,0.002 c -0.14,0.018 -0.263,0.063 -0.329,0.201 l -0.02,-0.01 z M 74.78,17.402 c 0.032,-0.961 -0.21,-1.827 -0.645,-2.645 -1.454,-2.736 -5.083,-3.952 -8.06,-2.377 -2.902,1.535 -4.088,5.062 -2.192,8.01 1.309,2.037 3.967,3.154 6.505,2.486 2.457,-0.647 4.431,-2.925 4.392,-5.474 z"
         id="path36" />
    </g>
  </g>
</svg>
