<?xml version="1.0" encoding="UTF-8"?>
<!DOCTYPE svg PUBLIC "-//W3C//DTD SVG 1.1//EN" "http://www.w3.org/Graphics/SVG/1.1/DTD/svg11.dtd">
<!-- Creator: CorelDRAW X5 -->
<svg xmlns="http://www.w3.org/2000/svg" xml:space="preserve" width="462px" height="600px" style="shape-rendering:geometricPrecision; text-rendering:geometricPrecision; image-rendering:optimizeQuality; fill-rule:evenodd; clip-rule:evenodd"
viewBox="0 0 462000 599583"
 xmlns:xlink="http://www.w3.org/1999/xlink">
 <defs>
  <style type="text/css">
   <![CDATA[
    .fil11 {fill:none}
    .fil6 {fill:#FEFEFE}
    .fil0 {fill:#063A69}
    .fil3 {fill:#F8A406}
    .fil5 {fill:#FEFEFE;fill-rule:nonzero}
    .fil9 {fill:#184A21;fill-rule:nonzero}
    .fil7 {fill:#1D6E2C;fill-rule:nonzero}
    .fil8 {fill:#207D31;fill-rule:nonzero}
    .fil4 {fill:#AD7D25;fill-rule:nonzero}
    .fil10 {fill:#EDEDED;fill-rule:nonzero}
    .fil2 {fill:#F2AD10;fill-rule:nonzero}
    .fil1 {fill:#F8A406;fill-rule:nonzero}
   ]]>
  </style>
 </defs>
 <g id="Kemendagri">
  <metadata id="CorelCorpID_0Corel-Layer"/>
  <path class="fil0" d="M456134 5831c0,144963 0,289927 0,434890 0,26321 -1455,45970 -32231,60572 -50751,24079 -145418,70252 -192903,91922 -47485,-21671 -142152,-67843 -192903,-91922 -30775,-14602 -32231,-34251 -32231,-60572 0,-144963 0,-289927 0,-434890l450268 0z"/>
  <path class="fil1" d="M461782 5831l0 434890c0,13787 -399,25870 -5016,36865 -4732,11270 -13623,20816 -30458,28804 -19400,9205 -41606,19888 -65245,31260 -45853,22060 -96865,46601 -127725,60684l-2339 1067 -2339 -1067c-30860,-14084 -81871,-38625 -127725,-60684 -23639,-11372 -45845,-22055 -65245,-31260 -16835,-7988 -25725,-17533 -30458,-28804 -4617,-10995 -5016,-23077 -5016,-36865l0 -434890 0 -5648 5648 0 450268 0 5648 0 0 5648zm-11296 434890l0 -429242 -438972 0 0 429242c0,12533 329,23437 4133,32497 3689,8785 10914,16366 24854,22979 16002,7592 39885,19082 65289,31304 44580,21447 94048,45245 125209,59527 31162,-14281 80629,-38079 125209,-59527 25404,-12221 49287,-23712 65289,-31304 13940,-6614 21166,-14195 24854,-22979 3804,-9060 4133,-19963 4133,-32497z"/>
  <path id="Padi" class="fil2" d="M415461 261920c-3137,1776 -9569,5035 -9569,5035 -5522,2831 -11514,7017 -15437,11870 -1256,430 -3782,1247 -3782,1246 954,-2903 2622,-8784 2622,-8784 1101,-417 3289,-1285 3289,-1285 989,-398 2956,-1223 2956,-1223 2246,-955 6676,-3007 6676,-3007 6367,-3282 12341,-8613 14949,-15427 -3043,1993 -6074,3853 -9229,5663 -5325,3183 -11050,7750 -14664,12836 -1235,510 -3724,1487 -3724,1487 767,-2932 2055,-8854 2055,-8854 1081,-488 3229,-1500 3229,-1500 962,-460 2874,-1408 2874,-1408 2183,-1096 6475,-3431 6475,-3431 6166,-3703 11774,-9431 13933,-16430 -2911,2201 -5808,4261 -8845,6284 -5104,3531 -10535,8478 -13822,13783 -1210,592 -3650,1730 -3650,1730 588,-2999 1505,-9043 1505,-9043 1057,-562 3152,-1721 3151,-1721 931,-522 2778,-1595 2778,-1595 2108,-1239 6240,-3858 6240,-3858 5463,-3765 9599,-8684 12097,-14852 315,-827 554,-1586 727,-2455 -989,829 -1984,1648 -2991,2455 -1782,1488 -3578,2927 -5419,4342 -4857,3883 -9958,9203 -12896,14722 -1177,675 -3557,1980 -3557,1980 391,-3008 914,-9052 914,-9051 1027,-637 3058,-1945 3058,-1945 895,-584 2669,-1780 2669,-1780 2024,-1381 5976,-4280 5976,-4280 1623,-1242 2910,-2468 4277,-3984 3494,-3908 6545,-8510 7407,-13771 -2603,2497 -5213,4857 -7962,7192 -2392,2060 -4362,4162 -6381,6581 -2137,2743 -4143,5559 -5530,8764 -1139,759 -3446,2231 -3446,2231 199,-3070 324,-9222 324,-9222 216,-155 2411,-1770 2411,-1770 -8,-17 535,-386 535,-386 855,-620 2546,-1884 2546,-1884 1929,-1459 5686,-4506 5686,-4506 5310,-4700 9725,-11273 10499,-18459 -2429,2684 -4878,5229 -7468,7759 -4279,4329 -8687,10121 -10893,15831 -199,147 -2268,1645 -2268,1645 -346,259 -696,516 -1046,770 0,-67 -3,-769 -3,-769 -22,-2729 -112,-5414 -270,-8139 951,-756 2826,-2301 2826,-2301 813,-678 2418,-2059 2418,-2059 1830,-1592 5379,-4902 5379,-4902 5027,-5114 8958,-11983 9242,-19283 -2242,2863 -4513,5588 -6929,8306 -3986,4648 -7994,10769 -9822,16648 -1046,890 -3174,2628 -3174,2628 -199,-2985 -856,-8931 -856,-8931 906,-829 2689,-2520 2689,-2520 766,-736 2275,-2231 2275,-2231 1721,-1724 5039,-5289 5039,-5289 4695,-5507 8126,-12696 7905,-20060 -2041,3035 -4118,5929 -6344,8831 -3658,4947 -7250,11411 -8675,17430 -992,971 -3014,2873 -3014,2873 -393,-2973 -1438,-8879 -1438,-8879 856,-901 2534,-2736 2534,-2736 715,-792 2120,-2398 2120,-2398 1601,-1850 4670,-5662 4670,-5662 4331,-5889 7238,-13373 6505,-20773 -1826,3194 -3699,6251 -5721,9325 -3319,5244 -6452,12008 -7463,18164 -930,1051 -2833,3113 -2833,3113 -598,-3002 -2058,-8949 -2058,-8949 798,-973 2358,-2950 2358,-2950 659,-846 1950,-2559 1950,-2559 1470,-1973 4268,-6022 4268,-6022 3436,-5394 5162,-11048 5386,-17436 62,-1249 42,-2339 -180,-3573 -895,1604 -1809,3187 -2752,4763 -805,1551 -1630,3080 -2481,4606 -2954,5533 -5595,12578 -6173,18854 -861,1129 -2631,3352 -2631,3352 -798,-2973 -2653,-8843 -2653,-8843 735,-1043 2165,-3158 2165,-3158 599,-898 1768,-2712 1768,-2712 1330,-2090 3840,-6360 3840,-6360 748,-1327 1319,-2574 1870,-3993 2180,-5059 3644,-10788 2495,-16289 -1527,3195 -3109,6280 -4813,9384 -1671,3102 -2851,6085 -3917,9437 -723,3037 -1306,6015 -1322,9148 -786,1205 -2409,3581 -2409,3581 -1018,-2998 -3315,-8898 -3315,-8898 69,-114 755,-1276 755,-1276 426,-638 846,-1278 1265,-1921 565,-873 1671,-2634 1670,-2633 1256,-2023 3636,-6149 3636,-6149 3190,-6103 5006,-13632 3222,-20433 -1327,3310 -2712,6512 -4220,9743 -2411,5415 -4451,12253 -4423,18219 -748,1179 -2291,3507 -2291,3507 -1040,-2508 -3303,-7444 -3303,-7444 640,-1081 1883,-3265 1883,-3264 512,-912 1509,-2751 1509,-2750 1132,-2112 3261,-6406 3261,-6406 2834,-6374 4163,-14077 1964,-20843 -1126,3409 -2319,6717 -3631,10058 -2092,5625 -3698,12649 -3297,18676 -681,1239 -2090,3691 -2090,3691 -1256,-2614 -3965,-7744 -3965,-7744 576,-1137 1687,-3432 1687,-3432 454,-951 1334,-2864 1334,-2864 998,-2198 2852,-6656 2852,-6656 2445,-6644 3250,-14502 620,-21216 -912,3501 -1897,6911 -2997,10357 -1747,5840 -2880,13022 -2086,19104 -605,1299 -1866,3874 -1866,3874 -1422,-2578 -4456,-7624 -4456,-7624 506,-1188 1476,-3582 1476,-3582 393,-986 1152,-2970 1152,-2970 858,-2277 2431,-6883 2431,-6883 2040,-6897 2312,-14884 -745,-21530 -694,3583 -1467,7081 -2351,10622 -1388,6038 -2043,13362 -849,19478 -525,1353 -1627,4039 -1627,4039 -1607,-2568 -5006,-7582 -5006,-7582 438,-1254 1270,-3776 1270,-3776 330,-1019 961,-3066 961,-3066 712,-2350 1991,-7092 1991,-7092 1612,-7135 1336,-15230 -2148,-21793 -471,3656 -1025,7231 -1685,10858 -1014,6226 -1172,13669 431,19806 -446,1421 -1392,4247 -1391,4247 -1771,-2517 -5490,-7421 -5490,-7421 365,-1316 1049,-3961 1049,-3961 265,-1049 766,-3153 766,-3153 563,-2415 1544,-7277 1544,-7277 898,-5261 585,-9892 -669,-15063 -379,-2155 -876,-4090 -1977,-6000 -560,3216 -1175,6380 -1864,9571 -12,1 -65,554 -65,554 -629,6398 -287,13939 1726,20079 -361,1486 -1141,4444 -1141,4444 -1973,-2513 -6094,-7398 -6093,-7398 286,-1377 811,-4140 811,-4140 198,-1075 565,-3231 565,-3231 115,-693 1078,-7408 1078,-7408 0,0 7,-32 7,-31 1249,-6367 1065,-13909 -2313,-19631 -422,3438 -910,6822 -1476,10238 -684,4466 -718,8652 -213,13137 446,1971 935,3770 1721,5637 -271,1548 -871,4634 -871,4634 -467,-536 -5439,-6005 -5439,-6005 -331,-352 -664,-702 -997,-1051 7,1 20,4 20,4 318,-1306 915,-3927 915,-3927 223,-1003 648,-3015 648,-3015 477,-2301 1319,-6925 1319,-6925 936,-6523 337,-14121 -3345,-19767 -255,3480 -575,6914 -973,10380 -554,5807 -260,12726 1818,18228 -316,1470 -997,4400 -997,4400 -1710,-1777 -5213,-5246 -5213,-5246 132,-1299 357,-3900 357,-3900 84,-1032 228,-3100 228,-3099 156,-2368 343,-7112 343,-7112 9,-6724 -1701,-14278 -6147,-19506 277,3977 429,7269 518,10586 271,5926 1525,12833 4370,18094 -106,1422 -363,4264 -363,4264 -765,-739 -2309,-2202 -2309,-2202 -2,-18 -7,-55 -7,-55 -15,2 -46,6 -46,6 -1006,-946 -3042,-2812 -3042,-2812 -13,-1323 -81,-3970 -81,-3970 -32,-1046 -121,-3137 -121,-3137 -112,-2398 -463,-7187 -463,-7187 -760,-6808 -3352,-14245 -8369,-19099 656,3546 1229,7057 1727,10628 945,5967 2977,12791 6419,17813 53,1416 113,4250 113,4250 -757,-682 -2282,-2031 -2282,-2031 -8,-78 -25,-233 -25,-233 -73,6 -220,19 -220,19 -1294,-1135 -3917,-3365 -3917,-3365 -121,-1294 -402,-3879 -402,-3879 -116,-1015 -369,-3042 -369,-3042 -300,-2325 -1019,-6959 -1019,-6959 -1278,-6598 -4363,-13662 -9569,-18098 898,3407 1717,6789 2471,10232 1378,5785 3881,12279 7621,16959 164,1366 451,4104 451,4104 -777,-649 -2342,-1932 -2342,-1932 -15,-122 -46,-367 -46,-367 -123,9 -370,28 -370,28 -1283,-1042 -3877,-3090 -3877,-3090 -225,-1174 -706,-3517 -706,-3517 -197,-942 -613,-2823 -613,-2823 -485,-2157 -1553,-6447 -1553,-6447 -1746,-6068 -5225,-12516 -10386,-16332 1105,3132 2139,6249 3122,9421 1771,5372 4631,11243 8542,15386 263,1217 755,3658 755,3658 -762,-591 -2293,-1761 -2293,-1761 -24,-189 -72,-566 -72,-566 -211,11 -633,33 -633,33 -802,-605 -2417,-1804 -2417,-1804 49,-49 149,-146 149,-146 -1064,-1035 -3217,-3078 -3217,-3078 -832,-783 -2511,-2333 -2511,-2333 -1944,-1782 -5907,-5262 -5906,-5262 -5454,-4485 -13164,-8877 -20342,-9371 3189,2388 6310,4809 9412,7310 5082,3969 11109,7614 17370,9320 757,548 2262,1654 2262,1654 801,760 2388,2294 2388,2294 98,-96 295,-289 295,-289 752,569 2247,1718 2247,1718 -1257,67 -3770,221 -3770,221 -5127,-2660 -11231,-3336 -16926,-2869 -3156,340 -6297,712 -9445,1117 5107,2825 12286,3446 18021,3085 2162,-185 4320,-354 6485,-505 954,-66 2862,-187 2862,-187 1207,-74 3623,-204 3623,-204 833,648 2487,1959 2487,1959 38,194 113,582 113,582 177,-23 530,-68 530,-68 1202,965 3583,2925 3583,2925 -1383,108 -4147,350 -4147,350 -5428,-2714 -11872,-3245 -17831,-2562 -3312,467 -6607,972 -9907,1517 5383,2856 12964,3262 18929,2709 2278,-263 4555,-506 6838,-727 1008,-97 3023,-278 3023,-278 1306,-114 3921,-320 3921,-320 806,675 2405,2039 2405,2039 11,111 32,333 32,333 111,-6 332,-19 332,-19 1260,1086 3748,3294 3748,3294 -1421,123 -4260,398 -4260,397 -5510,-2751 -12066,-3204 -18096,-2425 -3364,522 -10069,1708 -10069,1708 5425,2867 13166,3146 19155,2518 2324,-298 6981,-820 6981,-820 1030,-110 3089,-314 3089,-314 1327,-128 3984,-359 3984,-359 780,705 2325,2130 2325,2130 1,62 2,187 2,187 66,0 198,-1 198,-1 985,917 2934,2775 2934,2775 -1422,184 -4261,581 -4261,581 -5499,-2499 -11954,-2642 -17821,-1604 -3290,672 -6554,1387 -9825,2149 5362,2599 13020,2488 18795,1623 2287,-394 4571,-765 6865,-1111 1014,-152 3043,-441 3043,-441 1301,-182 3905,-520 3905,-520 759,736 2262,2222 2261,2222 0,5 -1,15 -1,15 6,1 18,1 18,1 1005,1001 2987,3032 2987,3032 -1481,291 -4436,907 -4436,907 -5554,-2099 -11896,-1771 -17572,-353 -3197,890 -6364,1819 -9536,2797 5353,2181 12938,1490 18464,280 2239,-542 4476,-1058 6725,-1552 995,-218 2985,-637 2985,-637 1313,-273 3944,-792 3944,-792 -4,-21 -11,-64 -11,-63 301,314 3480,3708 3480,3708 854,929 1698,1864 2537,2808 -1573,106 -4717,358 -4717,358 -68,-37 -791,-404 -791,-404 -5326,-1864 -11150,-1724 -16600,-496 -3190,802 -6349,1647 -9514,2543 5167,2277 12713,1742 18136,704 2137,-457 4273,-889 6419,-1301 0,0 318,-29 318,-29 1075,-99 3226,-277 3226,-277 1408,-112 4227,-303 4227,-303 2125,2419 6207,7398 6207,7398 -1533,46 -4597,182 -4597,182 -4058,-2298 -8497,-3174 -13105,-3509 -1835,92 -3453,287 -5251,673 -3184,711 -6335,1468 -9496,2278 2880,1457 6484,1698 9660,1778 3068,340 5826,450 8909,217 0,0 7212,-510 7212,-510 1065,-60 3197,-159 3197,-159 1370,-59 4112,-143 4112,-143 1921,2428 5592,7414 5592,7414 -1493,-12 -4479,6 -4479,6 -5445,-3312 -12059,-4342 -18345,-3925 -3423,325 -6807,711 -10215,1164 5328,3164 13216,3997 19308,3837 2385,-115 4760,-196 7148,-243 1056,-20 3167,-38 3167,-38 1333,-7 3998,14 3998,14 1760,2482 5100,7568 5100,7568 -1452,-72 -4359,-172 -4359,-172 -5201,-3486 -11671,-4718 -17851,-4527 -3382,195 -10129,801 -10129,801 5056,3286 12837,4351 18762,4421 2365,-23 4716,-10 7081,38 1045,22 3136,89 3136,89 1295,46 3883,173 3883,173 1575,2497 4541,7602 4541,7602 -1429,-132 -4290,-352 -4290,-352 -4956,-3657 -11284,-5095 -17360,-5137 -3363,72 -6685,213 -10043,426 4789,3405 12465,4714 18228,5013 2343,72 4671,180 7010,326 1035,66 3102,220 3102,220 1274,100 3819,335 3819,335 1412,2537 4044,7713 4044,7713 -1401,-194 -4210,-537 -4210,-537 -4708,-3828 -10891,-5484 -16866,-5764 -3318,-68 -9954,32 -9954,32 4523,3522 12095,5096 17696,5624 2321,172 4619,380 6933,626 1023,110 3066,355 3066,355 1249,155 3744,499 3743,499 1184,2441 3373,7406 3373,7405 -1373,-253 -4128,-716 -4128,-716 -4468,-3991 -10510,-5860 -16387,-6377 -3300,-197 -6559,-315 -9865,-360 4250,3615 11764,5478 17189,6224 2295,270 4566,575 6851,922 1010,155 3027,488 3027,488 1224,208 3667,658 3667,658 97,232 1096,2681 1096,2681 765,1924 1490,3844 2186,5794 -1374,-417 -4138,-1201 -4138,-1201 -888,-1024 -1777,-1814 -2846,-2644 -4138,-2692 -8290,-4151 -13182,-4771 -3266,-341 -6486,-598 -9764,-783 3988,3727 11393,5889 16659,6864 720,118 1439,241 2158,367 1581,376 3150,771 4721,1188 1022,272 3058,844 3058,844 1227,351 3670,1091 3670,1091 1007,2897 2768,8772 2768,8772 -1331,-486 -4011,-1410 -4011,-1410 -3616,-4448 -8752,-7207 -14158,-8881 -560,-123 -1116,-228 -1683,-315 -3224,-488 -6409,-889 -9653,-1215 1548,1699 3617,2823 5650,3840 3526,1967 6919,3456 10797,4596 2284,645 4530,1327 6787,2060 998,326 2986,1006 2986,1006 1189,413 3553,1277 3553,1277 810,2934 2171,8868 2171,8868 -1285,-556 -3873,-1620 -3873,-1620 -3650,-5040 -9279,-8300 -15163,-10061 -3247,-866 -6450,-1629 -9740,-2312 3606,4453 10731,7948 16027,9889 2223,763 6618,2429 6618,2429 972,381 2906,1170 2906,1170 1147,475 3426,1462 3426,1461 601,2915 1549,8790 1549,8790 -1235,-623 -3728,-1824 -3728,-1824 -3308,-5202 -8703,-8734 -14422,-10801 -3174,-1041 -6307,-1971 -9535,-2827 3285,4576 10188,8434 15276,10638 2171,892 4300,1817 6434,2796 944,435 2819,1331 2819,1331 1104,535 3294,1641 3294,1641 408,2934 967,8834 967,8834 -1183,-689 -3574,-2023 -3574,-2022 -2959,-5355 -8108,-9161 -13651,-11536 -3094,-1217 -6147,-2318 -9307,-3352 2961,4695 9624,8927 14498,11392 2106,1016 4168,2063 6230,3163 913,489 2724,1493 2724,1493 1058,593 3153,1815 3153,1815 213,2920 386,8773 386,8773 -1128,-752 -3411,-2213 -3411,-2213 -2610,-5494 -7497,-9570 -12857,-12254 -3003,-1394 -5974,-2666 -9055,-3879 2638,4809 9038,9415 13699,12136 2035,1139 4022,2304 6009,3524 879,542 2621,1650 2621,1650 1009,649 3005,1981 3005,1981 2,189 3,2164 3,2164 -17,2294 -81,4560 -193,6852 -1067,-847 -3233,-2499 -3233,-2499 -568,-1622 -1288,-2920 -2231,-4350 -2745,-3778 -5735,-6471 -9797,-8779 -2905,-1569 -5783,-3012 -8777,-4404 2317,4921 8424,9892 12872,12867 43,28 494,318 494,318 1788,1209 3531,2436 5272,3713 841,619 2505,1882 2505,1882 956,733 2842,2232 2842,2232 -172,2986 -777,8937 -777,8936 -1003,-904 -3043,-2674 -3043,-2674 -1818,-5855 -6025,-10608 -10973,-14086 0,0 -164,-105 -164,-105 -2797,-1738 -5578,-3351 -8475,-4916 667,1868 1862,3487 3089,5023 2672,3374 5524,6258 8913,8916 1869,1432 3682,2885 5489,4394 799,670 2377,2034 2377,2034 899,785 2670,2384 2670,2384 -368,2987 -1363,8925 -1363,8925 -936,-958 -2844,-2840 -2844,-2839 -1454,-6009 -5404,-11063 -10185,-14848 -2673,-1986 -5333,-3840 -8123,-5656 1641,5273 7020,11205 11050,14862 1771,1548 3488,3113 5193,4733 754,719 2241,2179 2241,2179 840,833 2492,2526 2492,2526 -555,2929 -1910,8735 -1910,8735 -868,-1007 -2641,-2990 -2641,-2990 -1072,-6082 -4690,-11372 -9217,-15450 -2537,-2150 -5073,-4171 -7738,-6160 1295,5360 6285,11623 10068,15522 1669,1656 3283,3327 4882,5051 707,765 2099,2315 2099,2315 779,877 2310,2655 2310,2655 -743,2910 -2470,8664 -2470,8664 -798,-1052 -2432,-3126 -2432,-3126 -689,-6135 -3963,-11648 -8219,-16006 -2392,-2308 -4795,-4489 -7324,-6646 946,5439 5522,12006 9053,16141 1560,1759 3067,3529 4554,5350 658,808 1950,2443 1950,2443 717,916 2123,2771 2123,2771 -892,2768 -2894,8229 -2894,8229 -730,-1091 -2227,-3247 -2227,-3247 -320,-6171 -3251,-11877 -7233,-16494 -2246,-2453 -4509,-4781 -6900,-7092 606,5497 4768,12340 8045,16692 1451,1852 2849,3712 4224,5621 608,847 1801,2557 1801,2557 112,163 1163,1707 1163,1707 0,0 793,1164 784,1150 -1067,2745 -3414,8146 -3414,8146 -666,-1109 -2035,-3305 -2035,-3305 62,-2971 -601,-5572 -1605,-8347 -1204,-3213 -2549,-5732 -4662,-8442 -2088,-2592 -4201,-5062 -6441,-7524 156,4444 2688,9721 4765,13585 -40,45 2191,3601 2243,3565 1346,1911 2640,3830 3910,5792 561,870 1661,2627 1661,2626 599,968 1770,2920 1770,2920 -1226,2680 -3880,7943 -3880,7942 -596,-1139 -1826,-3397 -1826,-3397 360,-6102 -1921,-12057 -5311,-17043 -997,-1381 -2008,-2738 -3046,-4089 -963,-1275 -1940,-2530 -2940,-3777 -60,948 23,1798 166,2734 983,5126 3195,10212 5861,14678 1230,1992 2409,3986 3563,6022 510,903 1505,2723 1504,2723 537,994 1584,2997 1584,2997 -1384,2620 -4346,7753 -4346,7753 -526,-1164 -1616,-3476 -1616,-3476 714,-6085 -1209,-12178 -4301,-17371 -1760,-2780 -5528,-8176 -5528,-8176 -388,5527 2510,12900 5001,17747 1112,2064 2173,4127 3207,6230 457,933 1345,2810 1345,2810 475,1016 1397,3061 1397,3061 -1519,2523 -4739,7455 -4739,7455 -457,-1185 -1408,-3541 -1407,-3541 1060,-6050 -506,-12260 -3294,-17641 -1614,-2901 -3269,-5696 -5041,-8504 -719,5519 1741,13066 3957,18072 992,2127 1936,4252 2848,6414 403,959 1184,2887 1184,2887 414,1034 1213,3113 1213,3113 -1678,2472 -5213,7290 -5213,7290 -387,-1203 -1198,-3596 -1198,-3596 1403,-5996 201,-12305 -2275,-17856 -1441,-2994 -2935,-5892 -4539,-8802 -1045,5501 963,13182 2898,18338 870,2185 1690,4363 2480,6578 348,982 1020,2954 1020,2954 352,1049 1029,3158 1029,3158 -1803,2369 -5577,6974 -5577,6974 -318,-1215 -990,-3635 -990,-3635 1738,-5924 897,-12314 -1262,-18012 -1270,-3078 -2595,-6062 -4030,-9067 -1367,5459 195,13258 1844,18542 746,2233 1445,4460 2110,6718 293,1001 854,3011 854,3011 291,1060 846,3188 846,3188 -1951,2297 -6013,6750 -6013,6750 -249,-1223 -782,-3660 -782,-3660 2068,-5839 1594,-12280 -244,-18112 -1093,-3149 -2249,-6215 -3509,-9301 -1683,5406 -574,13285 782,18686 620,2275 1195,4543 1733,6838 237,1018 687,3059 687,3059 230,1066 662,3204 662,3204 -2160,2286 -6646,6697 -6646,6697 -177,-1228 -568,-3679 -568,-3678 2404,-5732 2306,-12205 808,-18157 -910,-3215 -1885,-6348 -2963,-9510 -1997,5307 -1358,13290 -314,18771 489,2312 932,4611 1340,6939 179,1032 511,3099 511,3099 168,1070 475,3215 475,3215 -2208,2096 -6769,6129 -6769,6129 -110,-1228 -364,-3683 -364,-3682 2720,-5609 2988,-12098 1820,-18142 -732,-3268 -1530,-6454 -2429,-9680 -2308,5234 -2116,13215 -1370,18792 361,2339 678,4664 957,7015 122,1042 341,3128 340,3128 108,1071 296,3214 296,3214 -2321,1983 -7100,5784 -7100,5784 -42,-1226 -161,-3676 -161,-3676 3029,-5471 3661,-11952 2826,-18072 -550,-3308 -1173,-6542 -1892,-9818 -2605,5128 -2859,13112 -2420,18753 233,2360 421,4703 572,7069 65,1049 169,3148 169,3148 49,1067 119,3204 119,3203 -2438,1873 -7444,5444 -7444,5444 25,-1219 40,-3656 40,-3656 3331,-5316 4327,-11769 3828,-17947 -366,-3339 -812,-6610 -1349,-9926 -2892,4998 -3595,12975 -3465,18655 103,2373 163,4728 183,7103 7,1053 -3,3158 -3,3158 -10,1060 -55,3181 -55,3181 -367,253 -3920,2629 -3920,2629 -1159,756 -2324,1499 -3498,2232 46,-1182 107,-3546 107,-3546 468,-653 836,-1276 1205,-1988 2591,-4998 3649,-10080 3480,-15696 -186,-3361 -451,-6655 -807,-10002 -3171,4856 -4314,12797 -4495,18500 -14,1438 -47,2871 -91,4308 0,915 -6,1829 -17,2745 -13,1030 -64,3089 -64,3089 -30,1028 -112,3082 -112,3082 -2461,1516 -7480,4388 -7479,4388 106,-1170 287,-3513 287,-3513 2989,-3970 4286,-8781 4828,-13655 145,-1173 223,-2265 231,-3448 -1,-3371 -84,-6683 -256,-10049 -1788,2309 -2780,5229 -3616,7995 -841,3397 -1340,6527 -1479,10029 -69,2327 -177,4638 -324,6961 -66,1029 -223,3087 -223,3087 -82,1017 -268,3048 -268,3048 -2525,1391 -7664,4008 -7664,4008 164,-1156 463,-3472 463,-3472 3854,-4682 5538,-10823 5820,-16796 61,-3303 45,-6558 -53,-9860 -3428,4386 -5042,12074 -5594,17513 -188,2325 -414,4630 -680,6947 -119,1026 -381,3077 -381,3077 -133,1004 -421,3008 -421,3008 -2625,1284 -7957,3677 -7957,3677 223,-1139 639,-3424 639,-3424 4101,-4492 6114,-10552 6703,-16522 232,-3301 382,-6556 453,-9864 -3658,4222 -5676,11830 -6512,17253 -309,2316 -655,4610 -1041,6914 -173,1021 -542,3058 -542,3058 -183,989 -572,2962 -572,2962 -30249,12423 -54861,16772 -87558,15737 -84,1948 -251,5845 -251,5845 32113,676 56312,-3643 86092,-15644 857,532 2582,1578 2582,1577 906,545 2731,1615 2731,1615 2087,1214 6320,3539 6320,3539 6115,3062 13778,4917 20549,3223 -3273,-1370 -6477,-2789 -9688,-4297 -5611,-2503 -12414,-4408 -18599,-4230 -1004,-595 -2998,-1808 -2998,-1808 2759,-1178 8195,-3716 8195,-3716 887,494 2670,1465 2670,1465 929,501 2797,1484 2797,1484 2137,1113 6463,3235 6463,3235 6225,2764 13941,4266 20599,2259 -3326,-1214 -6585,-2481 -9856,-3836 -5697,-2232 -12562,-3820 -18706,-3352 -1036,-550 -3095,-1676 -3095,-1676 2659,-1295 7890,-4056 7889,-4056 915,457 2754,1350 2754,1350 949,457 2857,1351 2857,1351 2181,1012 6592,2928 6592,2928 5197,2076 10204,2817 15781,2392 1828,-247 3400,-573 5110,-1283 -2476,-678 -4925,-1388 -7378,-2144 -972,-338 -1939,-683 -2906,-1033 -5772,-1961 -12682,-3233 -18776,-2482 -1067,-505 -3187,-1541 -3187,-1541 2598,-1425 7696,-4445 7696,-4445 942,417 2835,1231 2835,1231 967,412 2911,1215 2911,1215 2221,908 6707,2615 6707,2615 753,277 1490,511 2262,726 6260,1336 13262,1550 19227,-1080 -3542,-783 -7017,-1633 -10520,-2575 -4112,-1058 -7946,-1488 -12182,-1596 -2451,-109 -4728,-98 -7147,366 -1096,-458 -3276,-1401 -3276,-1401 2313,-1424 4575,-2878 6833,-4387 0,-1 568,-382 562,-378 1005,352 3021,1032 3021,1032 1021,340 3071,998 3071,998 2344,741 7069,2104 7069,2104 6898,1700 14982,1739 21461,-1476 -3570,-606 -7076,-1281 -10614,-2048 -6228,-1223 -13478,-1548 -19677,-16 -1165,-379 -3486,-1168 -3486,-1167 2599,-1775 7671,-5506 7671,-5506 1028,304 3091,888 3091,888 1035,288 3111,842 3110,842 2373,623 7150,1746 7150,1746 6951,1351 15006,991 21292,-2542 -3590,-424 -7117,-923 -10684,-1510 -6260,-908 -13496,-875 -19589,961 -1190,-323 -3561,-1000 -3561,-1000 2484,-1894 7317,-5854 7317,-5854 1049,254 3153,739 3153,739 1046,236 3142,685 3142,685 2397,503 7215,1385 7215,1385 6989,999 14995,242 21073,-3600 -3601,-242 -7143,-560 -10729,-967 -6274,-589 -13485,-201 -19455,1933 -1211,-265 -3627,-826 -3627,-826 2374,-2014 6978,-6207 6978,-6207 1068,203 3208,584 3208,584 1054,183 3167,526 3167,526 2415,382 7262,1020 7262,1020 7009,645 14952,-511 20805,-4656 -3603,-55 -7151,-193 -10748,-416 -6275,-269 -13440,476 -19276,2902 -1230,-205 -3684,-648 -3684,-648 2339,-2206 6854,-6786 6854,-6786 1084,149 3255,420 3255,420 1060,128 3184,360 3184,360 2427,255 7292,637 7292,637 7017,274 14867,-1294 20473,-5743 -3598,138 -7139,191 -10739,160 -6257,64 -13362,1180 -19041,3901 -1246,-142 -3734,-458 -3734,-458 2122,-2232 6206,-6842 6206,-6842 1099,94 3298,256 3298,256 1064,74 3193,197 3193,197 2433,130 7304,263 7304,263 7006,-86 14753,-2056 20100,-6790 -3580,330 -7112,569 -10704,725 -6226,390 -13251,1864 -18765,4865 -1260,-78 -3777,-271 -3777,-271 1976,-2311 5761,-7071 5761,-7071 1110,39 3330,89 3330,89 1065,20 3194,34 3194,34 2433,6 7297,-114 7297,-114 6981,-448 14599,-2817 19674,-7827 -3554,521 -7064,948 -10639,1293 -6164,714 -13120,2554 -18443,5819 -1270,-14 -3808,-78 -3808,-78 1856,-2421 5391,-7393 5391,-7393 1117,-19 3351,-85 3351,-85 1063,-36 3186,-133 3186,-133 2426,-122 7271,-498 7271,-498 6939,-817 14405,-3589 19189,-8868 -3518,716 -6995,1334 -10544,1873 -6096,1043 -12942,3247 -18067,6778 -1275,53 -3827,121 -3827,121 1697,-2480 4909,-7561 4909,-7561 1123,-77 3365,-262 3365,-262 1058,-92 3170,-301 3170,-300 2414,-250 7226,-884 7225,-884 6904,-1192 14158,-4339 18650,-9897 -3471,912 -6905,1723 -10418,2455 -6015,1374 -12725,3937 -17643,7727 -1278,120 -3838,323 -3838,323 1568,-2584 4511,-7865 4511,-7865 1125,-138 3370,-446 3370,-446 1050,-149 3146,-472 3146,-472 2394,-381 7159,-1278 7158,-1278 6824,-1572 13884,-5123 18043,-10931 -3413,1113 -6790,2118 -10257,3050 -5912,1708 -12470,4639 -17160,8682 -1278,191 -3839,534 -3839,534 1414,-2651 4038,-8057 4038,-8057 1124,-201 3365,-635 3365,-635 1039,-206 3112,-646 3112,-645 2367,-513 7070,-1677 7070,-1677 3499,-956 6233,-2251 9298,-4175 3217,-2180 6144,-4620 8143,-8004 -3356,1368 -6680,2620 -10105,3803 -1528,533 -2939,1125 -4405,1808 -4355,2046 -8779,4505 -12239,7894 -1273,263 -3827,750 -3827,749 1259,-2723 3566,-8263 3566,-8263 1120,-266 3351,-831 3351,-831 1025,-265 3067,-821 3067,-821 132,-37 1539,-434 1539,-434 1827,-548 3635,-1120 5445,-1721 6691,-2467 13283,-6985 16722,-13385 -3266,1579 -6505,3034 -9854,4427 -5418,2356 -10656,5619 -14958,9685 -24,-23 -1149,1207 -1149,1207 -1265,338 -3806,972 -3805,972 131,-332 1348,-3534 1348,-3534 577,-1572 1131,-3142 1666,-4730 1115,-346 3335,-1073 3335,-1073 1012,-337 3026,-1038 3026,-1038 2301,-814 6850,-2583 6850,-2583 6545,-2866 12847,-7786 15888,-14398m-106820 -179198c-511,-366 -1535,-1093 -1535,-1093 160,37 480,103 480,103 353,329 1055,990 1055,990z"/>
  <path class="fil3" d="M237410 119131c-5527,22 -15580,1850 -21010,9091 -25416,-471 -59943,33624 -59943,60922 -14590,8001 -14948,43772 -3652,54597 1502,524 3017,1014 4541,1474 338,8885 9637,22064 5550,31590 6201,-9355 -633,-23274 -34,-30064 4089,1032 8204,1860 12268,2523 -1694,8760 9860,23556 5388,33979 7354,-11094 -3624,-28605 1202,-33036l39 5 1 2c-91,191 -147,204 -321,335 192,-89 372,-193 538,-311 3830,469 7571,802 11154,1035 1999,8582 8561,19622 5008,27903 5533,-8347 688,-20327 5,-27635 4993,210 9573,236 13524,182 2491,7001 5351,14585 2738,20676 4019,-6064 2562,-14044 1202,-20759 4228,-120 7411,-304 9152,-370 0,0 3845,39067 -4293,41418 -8138,2351 -30358,13414 -37653,20709 12551,-4001 24867,-6824 37653,-5648 -8001,6040 -14355,13022 -19768,21650 8943,-6668 18591,-11688 28240,-15061 2824,9413 2066,8682 8472,25416 6406,-16734 5648,-16002 8472,-25416 9649,3373 19297,8393 28240,15061 -5412,-8629 -11767,-15610 -19768,-21650 12786,-1176 25102,1647 37653,5648 -7295,-7295 -29515,-18358 -37653,-20709 -8138,-2351 -4293,-41418 -4293,-41418 1742,66 4924,251 9152,370 -1360,6714 -2817,14695 1202,20759 -2613,-6091 247,-13675 2738,-20676 3950,54 8531,28 13524,-182 -683,7308 -5528,19288 5,27635 -3553,-8281 3009,-19321 5008,-27903 3582,-233 7323,-566 11154,-1035 167,118 346,222 538,311 -173,-130 -230,-144 -321,-335l1 -2 39 -5c4826,4431 -6152,21941 1202,33036 -4472,-10423 7082,-25219 5388,-33979 4064,-663 8179,-1491 12268,-2523 599,6790 -6235,20708 -34,30064 -4087,-9526 5212,-22705 5550,-31590 1524,-460 3039,-950 4541,-1474 11296,-10825 10938,-46595 -3652,-54597 0,-27298 -34528,-61393 -59943,-60922 -5430,-7240 -15484,-9069 -21010,-9091z"/>
  <path class="fil4" d="M237410 120068c-3112,13 -7700,615 -12031,2489 -3098,1340 -6059,3332 -8229,6227l-288 384 -477 -9 -508 -1c-12331,0 -26814,8213 -38295,19754 -11490,11550 -19937,26394 -20182,39641 -1,67 -2,265 -2,591l0 556 -489 268c-1229,674 -2353,1561 -3372,2624 -4640,4842 -7135,13296 -7638,22087 -506,8832 1003,17957 4367,24091 889,1622 1906,3027 3044,4152 678,235 1360,464 2043,685 707,229 1463,465 2260,706l643 195 26 673c123,3232 1529,7175 2999,11299 1315,3689 2679,7517 3279,11228 125,-4064 -741,-8327 -1513,-12128 -703,-3458 -1332,-6552 -1123,-8919l97 -1101 1068 269c2059,519 4096,982 6103,1393 2023,414 4057,784 6088,1116l955 156 -183 947c-687,3552 1033,8376 2851,13478 1315,3689 2679,7517 3278,11228 125,-4064 -741,-8328 -1513,-12129 -1131,-5566 -2076,-10215 414,-12502l321 -295 433 56 39 5 202 26 13 -3c1976,241 3855,442 5641,606 1809,166 3634,307 5458,425l699 46 158 679c564,2421 1507,5067 2478,7791 1315,3689 2679,7517 3278,11227 125,-4062 -741,-8324 -1513,-12124 -468,-2304 -904,-4445 -1080,-6328l-100 -1067 1071 45c2504,105 4886,164 7123,190 2256,26 4383,19 6352,-8l671 -9 226 634 237 664c1319,3698 2687,7537 3284,11256 11,-352 15,-706 12,-1060 -31,-3508 -727,-7133 -1398,-10447l-221 -1090 1115 -32c2875,-81 5305,-196 7106,-280 791,-37 1460,-68 2039,-90l883 -33 84 883c11,114 3930,39838 -4965,42407 -4429,1279 -13129,5198 -21271,9676 -4710,2590 -9217,5360 -12575,7900 4849,-1432 9675,-2640 14516,-3461 6315,-1071 12669,-1486 19154,-890l482 1684c-3954,2985 -7501,6202 -10726,9737 -2132,2337 -4125,4813 -6002,7453 3123,-2105 6321,-4023 9564,-5753 4859,-2592 9811,-4753 14760,-6483l927 -324 283 942c685,2284 1167,4000 1592,5510 1202,4280 1934,6884 5979,17535 4045,-10651 4777,-13255 5979,-17535 424,-1510 907,-3226 1592,-5510l282 -942 928 324c4949,1730 9901,3891 14760,6483 3244,1730 6441,3648 9564,5753 -1877,-2639 -3870,-5116 -6002,-7453 -3225,-3535 -6771,-6752 -10726,-9737l482 -1684c6485,-596 12838,-181 19154,890 4841,821 9666,2029 14516,3461 -3358,-2540 -7865,-5310 -12575,-7900 -8142,-4478 -16842,-8397 -21271,-9676 -8895,-2570 -4976,-42293 -4965,-42407l84 -883 883 33c579,22 1248,53 2039,90 1801,84 4231,199 7106,280l1114 32 -221 1090c-671,3314 -1367,6939 -1398,10447 -3,354 1,707 12,1059 597,-3719 1965,-7557 3284,-11254l237 -664 226 -634 671 9c1970,27 4097,34 6352,8 2237,-26 4619,-85 7123,-190l1070 -45 -100 1067c-176,1883 -612,4024 -1080,6328 -772,3800 -1638,8062 -1513,12124 600,-3710 1964,-7538 3278,-11227 971,-2724 1915,-5370 2478,-7791l158 -679 699 -46c1824,-118 3650,-259 5458,-425 1785,-164 3665,-364 5641,-606l13 3 202 -26 39 -5 432 -56 322 295c2491,2287 1546,6936 414,12502 -773,3801 -1639,8065 -1513,12129 599,-3711 1963,-7539 3278,-11228 1819,-5103 3538,-9926 2851,-13478l-183 -947 956 -156c2031,-331 4064,-702 6088,-1116 2007,-410 4044,-873 6103,-1393l1068 -269 97 1101c209,2367 -420,5461 -1123,8919 -772,3801 -1639,8065 -1513,12128 600,-3711 1964,-7539 3279,-11228 1470,-4124 2876,-8067 2999,-11299l26 -673 644 -194c798,-241 1553,-477 2260,-706 684,-222 1365,-451 2043,-685 1139,-1125 2155,-2531 3044,-4152 3364,-6134 4873,-15259 4367,-24091 -504,-8791 -2998,-17245 -7638,-22087 -1019,-1063 -2143,-1951 -3372,-2624l-489 -268 0 -556c0,-326 -1,-524 -2,-591 -245,-13247 -8692,-28091 -20182,-39641 -11484,-11543 -25967,-19758 -38295,-19758l0 4 -508 1 -477 9 -288 -384c-2170,-2894 -5131,-4887 -8229,-6227 -4331,-1874 -8919,-2476 -12031,-2489zm-12774 768c4601,-1991 9471,-2630 12770,-2643l7 0c3300,13 8169,653 12770,2643 3231,1398 6335,3462 8691,6440l67 -1 0 4c12846,0 27822,8443 39626,20309 11798,11859 20472,27176 20727,40936l1 73c1210,726 2323,1634 3339,2694 4970,5186 7633,14087 8160,23286 524,9157 -1063,18660 -4595,25099 -1015,1851 -2194,3458 -3535,4742l-342 209c-758,265 -1520,521 -2284,769 -577,187 -1133,363 -1669,528 -277,3372 -1640,7195 -3061,11182 -2370,6647 -4908,13770 -2522,19332l-1647 886c-4363,-6582 -2633,-15096 -1207,-22111 562,-2764 1074,-5284 1118,-7278 -1663,404 -3349,779 -5050,1126 -1764,361 -3517,687 -5253,980 370,3879 -1301,8567 -3061,13504 -2369,6647 -4908,13769 -2522,19331l-1647 886c-4363,-6583 -2633,-15096 -1207,-22111 935,-4602 1729,-8507 514,-10326 -65,-33 -130,-69 -193,-105l-10 -6c-1749,210 -3544,398 -5366,566 -1665,153 -3271,281 -4818,387 -592,2319 -1471,4782 -2372,7311 -2369,6648 -4908,13770 -2522,19332l-1647 886c-4364,-6584 -2633,-15099 -1206,-22116 370,-1819 719,-3534 926,-5057 -2100,78 -4136,124 -6087,147 -2016,23 -3928,20 -5718,0l-11 31c-2370,6647 -4909,13769 -2523,19331l-1647 886c-2127,-3210 -2806,-6899 -2773,-10661 29,-3288 603,-6614 1216,-9712 -2447,-78 -4472,-173 -6024,-246l-1139 -53c-509,5740 -3022,37600 3701,39543 4552,1315 13411,5297 21653,9831 6724,3698 13069,7779 16404,11114l-949 1559c-6231,-1986 -12404,-3681 -18610,-4733 -5383,-912 -10783,-1339 -16254,-1050 3278,2626 6275,5429 9043,8463 3300,3617 6275,7564 9012,11928l-1357 1254c-4366,-3255 -8891,-6110 -13490,-8563 -4465,-2381 -9013,-4394 -13568,-6037 -547,1848 -945,3265 -1302,4534 -1303,4640 -2061,7337 -6910,20001l-1758 0c-4848,-12664 -5606,-15361 -6910,-20001 -356,-1269 -755,-2686 -1302,-4534 -4555,1643 -9103,3655 -13568,6037 -4600,2453 -9124,5308 -13490,8563l-1357 -1254c2737,-4364 5713,-8311 9012,-11928 2768,-3034 5765,-5837 9043,-8463 -5470,-289 -10870,138 -16254,1050 -6205,1052 -12379,2746 -18610,4733l-949 -1559c3335,-3335 9680,-7416 16404,-11114 8242,-4533 17101,-8516 21653,-9831 6723,-1942 4210,-33803 3701,-39543l-1139 53c-1552,73 -3577,168 -6024,246 614,3098 1187,6423 1216,9712 33,3762 -645,7452 -2773,10661l-1647 -886c2386,-5562 -153,-12684 -2523,-19331l-11 -31c-1790,20 -3702,23 -5718,0 -1951,-22 -3987,-69 -6087,-147 208,1523 557,3238 926,5057 1426,7017 3158,15532 -1206,22116l-1647 -886c2386,-5562 -153,-12685 -2522,-19332 -901,-2529 -1780,-4992 -2372,-7311 -1547,-106 -3153,-234 -4818,-387 -1822,-167 -3617,-355 -5366,-566l-10 6c-64,37 -128,72 -193,105 -1214,1820 -421,5724 514,10326 1426,7015 3157,15529 -1207,22111l-1647 -886c2386,-5562 -152,-12685 -2522,-19331 -1760,-4937 -3430,-9625 -3061,-13504 -1737,-294 -3489,-619 -5253,-980 -1700,-348 -3386,-723 -5050,-1126 44,1993 556,4514 1118,7278 1426,7015 3157,15529 -1207,22111l-1647 -886c2386,-5562 -152,-12685 -2522,-19332 -1421,-3986 -2784,-7809 -3061,-11182 -535,-165 -1091,-341 -1669,-528 -763,-248 -1526,-504 -2284,-769l-342 -209c-1340,-1285 -2520,-2891 -3535,-4742 -3531,-6439 -5119,-15942 -4595,-25099 527,-9198 3190,-18099 8160,-23286 1017,-1061 2130,-1969 3339,-2694l1 -73c255,-13759 8929,-29077 20727,-40936 11807,-11868 26783,-20313 39626,-20313l67 1c2356,-2978 5460,-5042 8691,-6440z"/>
  <path class="fil0" d="M130413 420349c0,0 -36252,-24824 -91614,-24824 5093,8821 13179,28240 13179,28240l-24474 12237c0,0 52412,10415 61186,14534 8774,4119 41724,-30187 41724,-30187z"/>
  <path class="fil0" d="M331551 420349c0,0 36252,-24824 91614,-24824 -5093,8821 -13179,28240 -13179,28240l24474 12237c0,0 -52412,10415 -61186,14534 -8774,4119 -41724,-30187 -41724,-30187z"/>
  <path class="fil1" d="M329448 417231c15,-10 700,-479 2015,-1285 8440,-5171 42799,-24186 91703,-24186l6503 0 -3252 5633c-3690,6391 -9096,18749 -11596,24596l21318 10659 -956 7045c-149,30 -51993,10332 -60318,14240 -11230,5271 -45919,-30878 -46019,-30981l-1059 -1098 0 -3503 1662 -1120zm87418 -17828c-40437,1397 -69303,15874 -79332,21676 8157,8183 29089,28436 34152,26059 6597,-3097 35432,-9336 51369,-12647l-14746 -7373 -3145 -1572 1350 -3223c19,-46 5487,-13179 10351,-22920z"/>
  <path class="fil1" d="M124430 421079c-10029,-5802 -38895,-20279 -79332,-21676 4864,9741 10331,22874 10351,22920l1350 3223 -3145 1572 -14746 7373c15937,3312 44772,9550 51369,12647 5063,2377 25995,-17876 34152,-26059zm-85631 -29319c56518,0 93609,25398 93718,25471l1662 1121 0 3503 -1059 1098c-100,104 -34788,36252 -46019,30981 -8326,-3908 -60169,-14210 -60318,-14240l-956 -7045 21318 -10659c-2500,-5847 -7906,-18205 -11596,-24596l-3252 -5633 6503 0z"/>
  <polygon class="fil0" points="130413,420349 97464,420349 97464,453299 130413,453299 "/>
  <path class="fil1" d="M126648 424114l-25419 0 0 25419 25419 0 0 -25419zm-29185 -7531l32950 0 782 0c1080,695 2143,1397 2983,1989l0 1776 0 32950 0 3765 -3765 0 -32950 0 -3765 0 0 -3765 0 -32950 0 -1598 2167 -2167 1598 0z"/>
  <polygon class="fil0" points="364501,420349 331551,420349 331551,453299 364501,453299 "/>
  <path class="fil1" d="M360735 424114l-25419 0 0 25419 25419 0 0 -25419zm-29185 -7531l21021 0 11929 0 1559 0 2206 2206 0 1559 0 32950 0 3765 -3765 0 -32950 0 -3765 0 0 -3765 0 -32950 0 -1562 2852 -2203 913 0z"/>
  <path class="fil0" d="M399619 455467c-23011,37046 -89799,63841 -168619,63841 -78853,0 -145663,-26818 -168648,-63887l35112 -35112c25763,28696 75900,48168 133536,48168 57610,0 107727,-19454 133501,-48129l35119 35119z"/>
  <path class="fil1" d="M402811 457453c-12094,19470 -35639,36136 -66397,47781 -29638,11221 -66067,17840 -105414,17840 -39364,0 -75808,-6625 -105452,-17855 -30757,-11651 -54301,-28333 -66388,-47827l-1571 -2533 2100 -2100 35112 -35112 1064 -1064 3305 0 1088 1211c12701,14147 31581,26005 54477,34264 22283,8037 48359,12653 76265,12653 27893,0 53957,-4612 76233,-12642 22891,-8252 41768,-20101 54473,-34237l1124 -1250 3230 0 1103 1103 35119 35119 2107 2107 -1578 2540zm-69044 40750c27868,-10551 49374,-25232 61033,-42231l-30215 -30215c-13406,13751 -32301,25254 -54822,33373 -23105,8330 -50040,13113 -78763,13113 -28736,0 -55682,-4787 -78794,-13124 -22529,-8126 -41426,-19638 -54828,-33399l-30214 30214c11641,17002 33147,31692 61032,42255 28814,10915 64336,17355 102804,17355 38451,0 73960,-6434 102767,-17340z"/>
  <path class="fil5" d="M87606 458757l14204 -14204 2051 2051 -6307 6307 10451 -2163 2758 2758 -9358 1708 -4639 12704 -2654 -2654 3876 -9459 -4040 710 -4293 4293 -2051 -2051zm13670 12904l10645 -17036 9032 5644 -1802 2884 -6573 -4107 -2359 3776 6116 3822 -1792 2868 -6116 -3822 -2897 4637 6805 4252 -1794 2872 -9264 -5789zm11417 7145l8806 -18055 3902 1904 -3665 13459 8322 -11188 3911 1908 -8806 18055 -2420 -1180 6932 -14213 -9496 12962 -2511 -1224 4377 -15459 -6932 14213 -2420 -1180zm15190 6940l7525 -18625 9874 3990 -1274 3153 -7186 -2903 -1668 4128 6686 2701 -1267 3135 -6687 -2701 -2048 5070 7440 3006 -1269 3140 -10129 -4092zm12644 4683l6208 -19105 2685 873 1448 14574 4145 -12757 2564 833 -6207 19105 -2771 -900 -1459 -14249 -4048 12459 -2564 -833zm16808 4964l4319 -16119 -4116 -1103 880 -3284 11027 2955 -880 3284 -4107 -1100 -4319 16119 -2804 -751zm8955 1896l4176 -19649 10418 2214 -707 3326 -7581 -1611 -926 4355 7054 1499 -703 3308 -7054 -1499 -1137 5348 7849 1668 -704 3312 -10686 -2271zm13006 2451l3142 -19840 6033 956c1517,240 2588,594 3219,1059 631,464 1082,1185 1351,2160 268,980 308,2052 122,3225 -236,1488 -745,2672 -1523,3542 -777,867 -1813,1332 -3098,1385 541,607 965,1242 1272,1911 307,669 679,1827 1119,3478l1121 4146 -3426 -542 -1387 -4647c-493,-1659 -841,-2709 -1048,-3154 -207,-445 -451,-763 -731,-964 -280,-196 -748,-346 -1409,-450l-578 -92 -1312 8283 -2868 -454zm4681 -10997l2118 335c1374,218 2246,275 2615,168 366,-108 678,-347 936,-714 255,-367 432,-846 526,-1441 106,-670 62,-1226 -127,-1678 -189,-451 -508,-767 -957,-952 -225,-78 -918,-212 -2081,-396l-2233 -354 -797 5031zm9726 12875l2100 -19978 2884 303 -2100 19978 -2884 -303zm18574 1955l-3146 -275 -852 -4657 -5721 -501 -1577 4444 -3066 -268 7326 -19524 3055 267 3981 20513zm-4629 -8382l-1323 -7599 -2582 7258 3905 342zm6048 8300l701 -20076 2821 98 5409 13611 468 -13405 2694 94 -701 20076 -2912 -102 -5329 -13295 -457 13092 -2694 -94zm19683 -19601l5301 -93c1194,-21 2106,89 2739,336 849,331 1582,936 2196,1814 617,873 1095,1950 1431,3226 334,1281 518,2859 551,4743 29,1651 -94,3079 -367,4282 -333,1465 -823,2657 -1477,3572 -490,696 -1159,1241 -2009,1639 -634,296 -1488,452 -2561,470l-5455 95 -351 -20085zm2959 3349l232 13299 2164 -38c809,-14 1393,-85 1752,-223 466,-172 852,-455 1156,-853 304,-398 544,-1053 725,-1954 179,-901 257,-2133 230,-3685 -27,-1552 -148,-2738 -356,-3568 -212,-829 -498,-1474 -857,-1931 -363,-461 -816,-767 -1361,-921 -407,-124 -1201,-171 -2385,-150l-1301 23zm24815 15475l-3150 220 -1570 -4466 -5729 401 -863 4636 -3070 215 4181 -20429 3060 -214 7140 19637zm-5883 -7554l-2496 -7299 -1415 7572 3911 -274zm7525 7276l-2083 -19815 2884 -303 1729 16448 7172 -754 354 3367 -10056 1057zm24968 -3217l-3118 494 -1953 -4312 -5673 898 -455 4694 -3039 481 2385 -20716 3030 -480 8825 18940zm-6519 -7013l-3122 -7054 -750 7667 3872 -613zm7963 7008l-4176 -19649 4247 -903 5398 12863 -330 -13940 4257 -905 4176 19649 -2634 560 -3288 -15468 497 16061 -2732 581 -6069 -14877 3288 15468 -2634 560zm21933 -4885l-5537 -19310 2714 -778 9350 11273 -3697 -12894 2592 -743 5537 19310 -2801 803 -9177 -10997 3611 12593 -2592 743zm13816 -4066l-7525 -18625 9875 -3990 1274 3153 -7186 2903 1668 4128 6686 -2701 1267 3135 -6686 2701 2048 5070 7440 -3006 1269 3140 -10129 4092zm15489 -14358l-1431 -3069 5666 -2642 3382 7252c-204,1004 -695,2032 -1476,3088 -783,1051 -1709,1829 -2779,2328 -1361,635 -2736,790 -4120,466 -1386,-329 -2679,-1115 -3882,-2365 -1203,-1250 -2211,-2746 -3025,-4493 -883,-1895 -1385,-3715 -1506,-5454 -116,-1737 187,-3256 918,-4552 551,-995 1451,-1781 2694,-2360 1616,-754 3101,-868 4448,-346 1352,525 2548,1562 3590,3115l-2292 1900c-602,-808 -1278,-1355 -2025,-1636 -747,-281 -1499,-246 -2256,108 -1149,536 -1824,1470 -2029,2804 -203,1338 165,3004 1099,5009 1006,2157 2106,3621 3298,4381 1189,762 2341,880 3453,361 552,-257 1033,-667 1447,-1227 411,-558 715,-1149 913,-1762l-1077 -2310 -3010 1404zm11185 2626l-10645 -17036 9032 -5643 1802 2883 -6573 4107 2360 3776 6116 -3822 1792 2868 -6116 3821 2898 4637 6805 -4252 1794 2872 -9265 5789zm11248 -6924l-13179 -15161 4610 -4007c1159,-1008 2119,-1601 2880,-1785 761,-185 1604,-68 2524,353 923,425 1770,1083 2549,1979 988,1137 1568,2288 1735,3443 164,1153 -145,2245 -931,3263 812,-24 1572,59 2281,254 710,195 1836,654 3383,1378l3897 1806 -2618 2276 -4452 -1924c-1588,-689 -2616,-1097 -3090,-1224 -474,-127 -874,-144 -1208,-59 -330,89 -746,351 -1250,790l-442 384 5502 6329 -2191 1905zm-5415 -10655l1618 -1406c1050,-913 1654,-1544 1809,-1896 153,-349 170,-742 55,-1175 -117,-431 -370,-875 -766,-1330 -445,-512 -899,-836 -1367,-981 -467,-145 -914,-104 -1344,121 -204,122 -752,567 -1641,1340l-1707 1484 3342 3844zm16088 762l-15161 -13179 1903 -2189 15161 13179 -1903 2189z"/>
  <path class="fil6" d="M282216 222358c6446,-13179 19726,-13179 26172,0 -7442,-6765 -18730,-6765 -26172,0zm-105120 -30933c6446,-13179 19726,-13179 26172,0 -7442,-6765 -18730,-6765 -26172,0zm82033 -24605c6446,-13179 19726,-13179 26172,0 -7442,-6765 -18730,-6765 -26172,0zm-34867 -21048c6446,-13179 19726,-13179 26172,0 -7442,-6765 -18730,-6765 -26172,0zm-33097 21048c6446,-13179 19726,-13179 26172,0 -7442,-6765 -18730,-6765 -26172,0zm33373 24605c6446,-13179 19726,-13179 26172,0 -7442,-6765 -18730,-6765 -26172,0zm47443 0c6446,-13179 19726,-13179 26172,0 -7442,-6765 -18730,-6765 -26172,0zm-105549 30933c6446,-13179 19726,-13179 26172,0 -7442,-6765 -18730,-6765 -26172,0zm38124 0c6446,-13179 19726,-13179 26172,0 -7442,-6765 -18730,-6765 -26172,0zm39535 0c6446,-13179 19726,-13179 26172,0 -7442,-6765 -18730,-6765 -26172,0z"/>
  <g id="_431941424">
   <g>
    <g>
     <path class="fil7" d="M278843 413074c-40823,-2153 -71214,-12746 -105657,-34148 -34304,-23407 -57445,-46157 -76566,-82894 -8875,-18155 -13459,-32909 -16241,-53047 -2264,-20756 -920,-36565 4298,-56875 6561,-22602 15215,-38667 29013,-57759 8890,-11730 17653,-21278 28315,-31435 -10476,10331 -19033,20004 -27681,31899 -13382,19164 -21699,35245 -27770,57796 -4787,20067 -5830,35619 -3228,55993 3075,19667 7818,34021 16731,51680 19210,35834 41801,57876 75660,80664 33698,20643 63428,30849 103231,32652 -35,1825 -106,5476 -106,5476z"/>
     <path class="fil7" d="M178588 389027c-5096,8906 -10678,13403 -21030,14459 -12295,271 -25953,-5093 -33857,-14823 11150,-12486 33516,-13842 47551,-6700 2552,1580 4524,3125 6713,5178 22,-10 66,-29 65,-29 2496,-881 7440,-2772 7440,-2772 386,865 1175,2586 1175,2585 -2583,733 -7789,2056 -7789,2056 -90,15 -269,45 -269,45z"/>
     <path class="fil8" d="M176891 389802c-4326,1501 -8119,2459 -12648,3178 -14252,2039 -25343,310 -39038,-3982 -38,-44 -113,-133 -113,-133 1178,-1298 2639,-2300 4112,-3233 5835,-3514 11531,-5515 18225,-6745 8318,-1237 14509,-699 22087,3159 112,61 1243,701 1232,711 2473,1532 4385,3055 6504,5044 165,157 496,471 496,471 -41,76 -123,229 -123,228 -236,438 -733,1301 -733,1301zm8068 -4162c-2032,793 -6129,2291 -6129,2291 2145,-523 6412,-1666 6412,-1666 -94,-208 -283,-625 -283,-625z"/>
     <path class="fil9" d="M186757 386105c-7783,3435 -14021,5544 -22465,6799 -7669,1028 -13810,853 -21482,-73 -704,-97 -2110,-301 -2110,-301 -734,-159 -2197,-486 -2197,-486 1519,15 2718,49 4236,130 8062,360 14804,298 22762,-1171 7492,-1479 13197,-3646 20107,-6855 380,655 1148,1958 1148,1958z"/>
     <path class="fil5" d="M114995 359968c3025,-2146 3533,-5541 3213,-9015 -790,-4777 -3256,-9491 -8464,-10299 -5104,-33 -6836,4242 -6848,8715 -4886,782 -5954,5314 -5579,9610 849,4890 3465,9438 8493,10859 1410,4729 4600,9247 9913,9601 5536,-486 6274,-5718 5518,-10268 -943,-3916 -2755,-7063 -6246,-9204z"/>
     <path class="fil10" d="M113808 359939c2488,-1749 2897,-4533 2622,-7379 -669,-3933 -2746,-7821 -7036,-8466 -4185,-2 -5545,3529 -5517,7184 -3978,669 -4822,4382 -4503,7880 2,18 7,54 7,54 4913,433 9720,714 14650,858 -74,-45 -223,-131 -223,-131z"/>
     <path class="fil7" d="M134318 350618c2793,2042 4434,4427 6105,7407 2139,-189 6408,-659 6408,-659 156,767 481,2296 481,2296 -2138,262 -6423,693 -6423,693 -434,3097 -1078,5777 -3109,8241 -5707,4749 -14507,4144 -20640,13638 -1414,-4746 -1270,-9789 60,-14545 -2913,-2554 -8559,-7862 -8559,-7862 2027,-2448 6117,-7314 6117,-7314 -2544,-4328 -4422,-9270 -4478,-14325 8939,10024 15461,7895 24037,12431z"/>
     <path class="fil8" d="M111789 359999c9019,289 17429,113 26426,-566 -259,4045 -1679,7984 -5532,9816 -2936,1088 -11116,4352 -13340,6272 -782,-516 856,-7056 1152,-8218 -2957,-2368 -8706,-7305 -8706,-7304z"/>
     <path class="fil7" d="M108926 326504c-18836,12958 -34123,3616 -44692,-14000 -1300,-2408 -2525,-4958 -3108,-7647 5122,-2568 14435,-1746 19906,-897 13973,2580 21995,7532 28090,20679 23,-1 68,-1 68,-1 2507,139 7528,283 7528,283 -1,893 15,2678 15,2678 -2525,-298 -7556,-1037 -7556,-1037 -84,-19 -251,-58 -251,-58z"/>
     <path class="fil8" d="M107152 326562c-16004,-1164 -26621,-6133 -39343,-15876 -1912,-1579 -3703,-3176 -5494,-4891 -16,-55 -46,-166 -46,-166 1554,-652 3237,-919 4900,-1124 4261,-447 8033,-289 12278,261 2198,291 4208,670 6358,1217 7680,2134 12864,4920 17987,11152 1946,2568 3192,4858 4453,7818 82,197 246,590 246,590 -65,51 -196,154 -196,154 -375,296 -1142,865 -1142,865zm8617 -695c-2070,-46 -6206,-228 -6206,-228 2065,324 6208,875 6208,875 -1,-216 -2,-647 -2,-647z"/>
     <path class="fil9" d="M117147 326924c-16775,236 -26354,-2073 -40907,-10596 -578,-361 -1726,-1092 -1726,-1092 -579,-428 -1729,-1292 -1729,-1292 1316,610 2361,1117 3652,1781 15249,7524 23453,9631 40475,9077 74,708 235,2122 235,2122z"/>
     <path class="fil5" d="M64750 273647c3539,-485 5452,-3226 6703,-6329 1444,-4474 1465,-9628 -2544,-12772 -4327,-2470 -7736,413 -9759,4252 -4555,-1686 -7489,1831 -9061,5700 -1463,4704 -1221,9947 2497,13543 -823,4795 0,10252 4486,12965 5020,2056 7840,-2276 9098,-6536 850,-3849 630,-7387 -1420,-10822z"/>
     <path class="fil10" d="M65568 272545c2897,-386 4467,-2611 5490,-5152 1177,-3666 1163,-7907 -2155,-10442 -3551,-1965 -6308,431 -7928,3568 -3709,-1306 -6088,1546 -7366,4688 -6,17 -18,51 -18,51 3989,2694 7921,5129 12110,7499 -43,-72 -133,-213 -133,-213z"/>
     <path class="fil7" d="M85357 274167c1505,2943 1893,5691 2070,8950 1919,737 5795,2106 5795,2106 -187,723 -546,2174 -546,2174 -1956,-657 -5831,-2078 -5831,-2078 -1672,2485 -3349,4542 -6129,5821 -6855,1695 -14396,-2612 -23579,2958 740,-4778 2960,-9134 6177,-12731 -1426,-3579 -2722,-7116 -3942,-10771 2808,-1190 8448,-3513 8448,-3513 -255,-4892 385,-10023 2672,-14394 2922,12730 9366,13720 14864,21477z"/>
     <path class="fil8" d="M61991 272205c7639,4418 14757,7892 22940,11190 -1930,3374 -4801,6198 -8900,6140 -2953,-312 -11500,-1036 -14178,-355 -467,-814 3706,-5776 4467,-6672 -1545,-3390 -4329,-10303 -4329,-10303z"/>
     <path class="fil7" d="M74839 239977c-25829,1368 -33800,-22884 -27746,-42694 18301,3524 30053,24097 28819,41267 19,11 57,32 56,32 1994,1314 6074,3796 6074,3796 -22,37 -254,423 -254,423 -345,599 -685,1198 -1022,1801 -164,-123 -1867,-1427 -1867,-1427 -1313,-992 -2600,-1997 -3881,-3031 -60,-56 -179,-168 -179,-168z"/>
     <path class="fil8" d="M73348 239172c-15121,-10469 -21402,-22807 -25802,-40469 17,-54 51,-163 51,-163 1590,295 3078,981 4515,1702 5543,2944 9933,6561 14188,11160 5031,5785 7850,10749 8938,18431 312,3045 208,5520 -203,8550 -29,200 -85,600 -85,600 -79,11 -237,32 -237,31 -454,61 -1364,156 -1364,156zm7452 3528c-1691,-1008 -5013,-3124 -5013,-3124 381,309 4409,3431 4409,3431 8,-7 294,225 294,225 14,-24 162,-284 162,-284 6,2 148,-249 148,-249z"/>
     <path class="fil9" d="M81433 244241c-175,-95 -2019,-1132 -2019,-1132 -13117,-7627 -19411,-14509 -26184,-28130 -281,-611 -831,-1838 -831,-1838 -246,-669 -725,-2014 -724,-2013 735,1205 1333,2218 2025,3449 8271,14037 14120,20185 28560,27797 -16,34 -181,391 -181,391 -217,491 -433,983 -645,1476z"/>
     <path class="fil5" d="M67257 172370c3011,1472 5937,556 8636,-1127 3520,-2570 6173,-6415 4604,-10886 -2159,-4110 -6333,-3771 -9987,-1920 -2721,-3597 -6825,-2614 -10172,-503 -3557,2689 -6132,6676 -5049,11271 -2378,2240 -3793,4690 -4077,7979 -94,1551 37,2791 718,4203 2829,4545 7478,2431 10757,-343 221,-203 434,-412 644,-627 2337,-2270 3786,-4738 3926,-8047z"/>
     <path class="fil10" d="M69184 172220c2458,1210 4840,485 7051,-889 2868,-2092 5030,-5248 3694,-8880 -1803,-3308 -5206,-3009 -8170,-1494 -2247,-2870 -5569,-2093 -8295,-387 -14,9 -41,28 -41,28 1788,4074 3654,7924 5755,11847 3,-76 6,-225 6,-225z"/>
     <path class="fil7" d="M83366 183513c-75,761 -206,1401 -417,2135 -699,2278 -1598,4061 -2815,6095 1105,1656 3427,4891 3427,4891 -539,482 -1607,1458 -1607,1458 -1196,-1598 -3479,-4872 -3479,-4872 -2653,1097 -5108,1862 -8003,1380 -6261,-2349 -9993,-10115 -20195,-10608 2042,-2379 4138,-3812 6914,-5214 1563,-631 3228,-1205 4884,-1548 737,-3328 2498,-9915 2497,-9915 2855,599 8554,1848 8554,1848 2389,-3808 5584,-7296 9597,-9385 -4258,11233 340,15220 644,23735z"/>
     <path class="fil8" d="M65816 169868c2397,4624 4859,8884 7684,13260 1444,2551 2925,5002 4516,7465 -3340,1680 -7157,2434 -10368,114 -2126,-1861 -8510,-7251 -10956,-8167 326,-877 4380,-2161 5336,-2471 610,-157 1221,-308 1834,-451 558,-3268 1955,-9750 1955,-9749z"/>
     <path class="fil7" d="M93743 150336c-17995,-10132 -16134,-25681 -6881,-41638 1695,-2722 3404,-5010 5423,-6558 4972,3752 8809,12568 10641,18324 1834,11849 139,19899 -7559,29274 10,19 28,56 28,56 875,2135 2767,6344 2767,6344 -735,355 -2198,1078 -2197,1078 -777,-2198 -2170,-6649 -2170,-6649 -17,-77 -51,-232 -51,-232z"/>
     <path class="fil8" d="M92991 148886c-5144,-13200 -5123,-23593 -2386,-37447 376,-2775 868,-5359 1522,-8083 34,-30 102,-88 102,-88 1176,985 2134,2196 3040,3425 2924,4128 4883,8143 6511,12932 30,-2 417,2261 416,2258 1067,7559 619,13279 -2648,20264 -1386,2695 -2807,4702 -4789,6990 -131,148 -392,446 -392,446 -68,-33 -205,-100 -205,-100 -394,-191 -1171,-597 -1171,-597zm4010 6849c-795,-1726 -2289,-5222 -2289,-5222 550,1839 1757,5483 1757,5483 177,-87 532,-260 532,-260z"/>
     <path class="fil9" d="M96687 157289c-7108,-14033 -8697,-23176 -7046,-38862 88,-653 274,-1956 274,-1956 145,-685 446,-2052 446,-2051 -20,1388 -55,2519 -128,3906 -573,15851 700,23842 8105,37927 -552,343 -1651,1037 -1651,1037z"/>
     <path class="fil5" d="M119776 91317c1979,2526 4846,2981 7880,2638 4123,-785 8009,-3119 8400,-7665 -277,-4421 -4078,-5728 -7967,-5565 -977,-4130 -4880,-4944 -8599,-4505 -4029,821 -7762,3060 -8647,7342 -3871,1172 -7490,3780 -7461,8196 736,4537 5055,5372 8973,4788 3246,-738 5804,-2244 7420,-5230z"/>
     <path class="fil10" d="M119731 90308c1614,2075 3965,2440 6447,2150 3375,-656 6573,-2587 6871,-6316 -249,-3607 -3365,-4652 -6537,-4505 -821,-3356 -4003,-4014 -7034,-3653 -15,3 -46,8 -46,8 -46,4170 200,12508 200,12508 34,-64 98,-191 98,-191z"/>
     <path class="fil7" d="M128813 107714c-1590,2364 -3507,3714 -5964,5073 274,1789 899,5356 899,5356 -637,110 -1909,335 -1909,335 -336,-1779 -933,-5352 -933,-5352 -2689,-442 -4950,-1064 -7113,-2799 -4484,-5046 -4262,-12096 -12668,-17459 4007,-1084 8264,-813 12243,303 2004,-2457 6141,-7263 6141,-7263 2210,1698 6612,5116 6612,5116 3627,-2318 7801,-4085 12117,-4395 -8224,8325 -5940,13658 -9426,21084z"/>
     <path class="fil8" d="M119557 88591c299,7623 917,14768 1983,22323 -3489,-292 -6850,-1630 -8585,-4826 -1114,-2535 -4288,-9320 -6058,-11235 375,-630 6041,842 6994,1091 1845,-2485 5667,-7353 5667,-7353z"/>
     <path class="fil5" d="M192128 358150c-1489,3344 -4264,4870 -7771,5438 -503,60 -962,88 -1468,89 -4113,-159 -7942,-1886 -8649,-6321 -57,-4712 3788,-7060 7952,-7936 721,-4325 4360,-6454 8373,-7239 2040,-274 3685,-167 5594,640 1786,869 2902,1935 3532,3847 4014,-361 7778,725 8815,5051 458,4860 -3132,7848 -7486,9024 -3407,614 -6518,91 -8891,-2594z"/>
     <path class="fil10" d="M191970 357059c-1224,2717 -3482,3966 -6337,4444 -484,61 -921,84 -1409,77 -3262,-180 -6223,-1560 -6790,-5066 -64,-3838 3033,-5799 6428,-6549 564,-3545 3517,-5307 6804,-5958 15,-2 45,-7 45,-7 41,605 549,6521 549,6521 251,2246 531,4470 848,6707 -47,-55 -139,-168 -139,-168z"/>
     <path class="fil7" d="M187192 379254c2748,2117 5518,2892 8904,3356 560,2100 1773,6276 1773,6276 779,-161 2335,-496 2335,-496 -629,-2073 -1796,-6247 -1796,-6247 2737,-1673 4816,-3386 6289,-6294 2540,-8091 -745,-13825 6227,-24132 -4260,964 -8356,3307 -11830,5932 -2594,-1721 -7662,-5339 -7662,-5339 -1993,2547 -6017,7613 -6017,7613 -15,-5 -114,-37 -114,-37 -4304,-1343 -8876,-2230 -13385,-1703 3728,2698 5922,5832 8295,9701 1530,2538 5169,9633 6979,11371z"/>
     <path class="fil8" d="M191825 355170c1178,8566 2724,16453 4841,24837 3692,-1795 6579,-4806 7057,-9011 144,-3537 865,-11271 2228,-14469 -466,-427 -5835,3640 -6655,4242 -2532,-1810 -7471,-5599 -7471,-5599z"/>
     <path class="fil7" d="M161318 358130c10986,-15581 10646,-35852 -5187,-46718 -13795,13056 -16291,35497 3332,46903 -2,23 -5,68 -5,68 -6,2547 111,7638 111,7638 912,-4 2737,-29 2737,-29 -359,-2531 -943,-7611 -943,-7611 -15,-84 -45,-251 -45,-251z"/>
     <path class="fil8" d="M161479 356360c86,-16176 -1756,-28000 -5241,-43790 -33,-23 -101,-68 -101,-68 -1233,1179 -2239,2531 -3198,3937 -3537,5422 -5544,10455 -6441,16894 -704,7726 722,13423 6073,19200 2285,2220 4370,3568 7257,4905 189,85 566,253 566,253 55,-65 164,-195 164,-195 314,-373 921,-1137 921,-1136zm-951 8685c-61,-2092 -97,-6278 -97,-6278 221,2094 755,6272 755,6272 -219,2 -658,6 -658,6z"/>
     <path class="fil9" d="M161628 366432c68,-15441 -351,-24874 -2892,-40174 -101,-561 -293,-1682 -293,-1682 -142,-569 -416,-1709 -416,-1709 0,1343 29,2161 137,3499 1320,15379 1837,24274 1286,39854 726,75 2179,212 2179,212z"/>
     <path class="fil5" d="M132153 304764c-2574,2327 -5538,2699 -8837,1925 -4083,-1336 -7560,-4458 -6266,-9089 2094,-4124 6553,-4579 10038,-3910 2336,-3402 6293,-3962 10100,-3197 3493,999 6360,3065 6012,7049 3620,1102 6368,3382 5577,7479 -1495,4370 -5725,5704 -9989,5157 -3134,-679 -5649,-2223 -6635,-5414z"/>
     <path class="fil10" d="M132450 303767c-2102,1884 -4519,2194 -7207,1580 -3315,-1060 -6129,-3541 -5099,-7301 1474,-3300 4915,-3876 8162,-3288 1888,-2805 5113,-3291 8235,-2670 14,4 42,11 42,11 -1525,3949 -2850,7813 -4080,11863 -19,-65 -53,-195 -53,-195z"/>
     <path class="fil7" d="M119599 321275c1562,2852 3675,4537 6426,6175 -325,2043 -878,6144 -878,6144 742,147 2227,428 2227,428 249,-2048 843,-6133 843,-6133 3039,-459 5506,-1194 7904,-3193 5381,-6203 4668,-12324 14749,-18809 -4085,-700 -8527,-113 -12527,915 -1547,-2397 -4458,-7305 -4458,-7305 -2725,1486 -8198,4414 -8198,4414 -3188,-2804 -6885,-5238 -10970,-6459 5113,9659 2430,16941 4882,23823z"/>
     <path class="fil8" d="M133078 302091c-2422,7866 -4142,15187 -5552,23294 3927,-225 7581,-1794 9620,-5292 1509,-3071 5102,-9498 7549,-11811 -235,-538 -6470,1071 -7404,1297 -1466,-2461 -4213,-7489 -4213,-7489z"/>
     <path class="fil7" d="M104751 291745c14850,-8433 24415,-25477 15970,-41010 -17474,4753 -30131,22247 -17650,40423 -11,19 -33,57 -33,57 -93,195 -965,2043 -965,2043 -720,1509 -1417,3019 -2097,4547 786,351 2366,1035 2366,1035 731,-2303 2343,-6860 2343,-6859 2,-6 17,-58 17,-58 1,0 49,-178 48,-175z"/>
     <path class="fil8" d="M105618 290284c6460,-13255 10314,-24524 14655,-38582 -17,-32 -53,-95 -53,-95 -1574,438 -3039,1112 -4492,1851 -5443,2912 -9413,6171 -13063,11190 -4024,6151 -5288,11595 -3127,18744 1035,2847 2265,4841 4209,7159 128,149 385,446 385,446 74,-34 222,-102 222,-102 425,-196 1263,-610 1263,-610zm-4414 7056c224,-500 2219,-4769 2219,-4769 2,0 285,-602 298,-631l-205 584c-607,1684 -1187,3365 -1743,5066 -190,-83 -569,-250 -569,-250zm2517 -5400l0 -1 0 1z"/>
     <path class="fil9" d="M101579 298954c360,-743 3530,-7238 3525,-7238 4542,-9739 7607,-17767 11055,-27915 165,-501 504,-1498 504,-1497 135,-522 415,-1564 415,-1564 -608,1107 -939,1768 -1450,2922 -4547,10512 -7997,19137 -13300,29467 3,3 -2562,4850 -2536,4799 594,346 1787,1026 1787,1026z"/>
     <path class="fil5" d="M104321 233564c-3228,620 -5840,-406 -8199,-2618 -2709,-3033 -3934,-7221 -542,-10251 3522,-2285 7284,-676 10144,1869 3576,-1495 7077,-49 9840,2364 2295,2341 3676,5196 1390,8078 1452,1407 2408,2857 2399,4937 -89,1351 -532,2258 -1488,3212 -3333,2748 -7442,2022 -10745,-380 -429,-350 -779,-687 -1146,-1102 -1532,-1822 -2299,-3741 -1655,-6109z"/>
     <path class="fil10" d="M105059 232927c-2626,490 -4759,-342 -6691,-2125 -2206,-2425 -3231,-5757 -499,-8216 2853,-1872 5939,-643 8308,1400 2916,-1254 5785,-116 8058,1856 10,9 29,28 29,28 -3244,2310 -6230,4647 -9257,7233 17,-59 53,-175 53,-175z"/>
     <path class="fil7" d="M85891 240821c-30,499 -22,950 19,1448 285,2551 1083,4466 2355,6671 -1239,1541 -3621,4698 -3621,4698 551,466 1665,1386 1665,1386 1160,-1591 3575,-4703 3575,-4703 2763,1028 5155,1533 8095,976 7610,-2733 9576,-7829 21195,-8563 -2229,-1769 -4832,-2839 -7488,-3800 12,-68 -3287,-1004 -3287,-1004 -96,-2547 -46,-7646 -46,-7646 -2970,-114 -8909,-402 -8908,-402 -1240,-3776 -3033,-7496 -5685,-10476 -754,10118 -6580,14915 -7870,21413z"/>
     <path class="fil8" d="M106404 231917c-3423,2880 -6528,5763 -9666,8951 -2176,2309 -4219,4623 -6244,7065 3386,1646 7163,1996 10512,76 2772,-1850 8706,-5331 11911,-6086 -696,-691 -5354,-1916 -6664,-2285 0,0 -79,-21 -79,-21 -4,-2568 229,-7700 229,-7699z"/>
     <path class="fil7" d="M87850 207993c13328,1349 22382,-2028 30205,-12982 2055,-2914 4287,-6890 4389,-10552 -9410,-3489 -20968,-1710 -29066,3970 -5459,5270 -7215,10679 -6555,18204 -19,10 -56,28 -56,28 -2006,1195 -5935,3719 -5935,3719 442,709 1347,2114 1347,2114 1797,-1494 5497,-4350 5497,-4350 58,-51 176,-153 176,-153z"/>
     <path class="fil8" d="M89315 207289c7700,-4489 14185,-8836 21273,-14269 3787,-2583 7372,-5233 10987,-8052 3,-34 9,-101 9,-101 -1484,-500 -2998,-762 -4547,-968 -5794,-659 -10688,-319 -16267,1471 -2437,872 -4284,1792 -6375,3331 -3229,2881 -5003,5611 -6218,9778 -713,2849 -814,5112 -494,8029 23,187 70,561 70,561 77,12 231,36 231,36 443,69 1331,184 1331,184zm-7260 3371c1605,-1049 4871,-3058 4871,-3058 -1540,1159 -4549,3567 -4548,3567 -108,-169 -323,-509 -323,-509z"/>
     <path class="fil9" d="M81505 212183c10729,-6521 18775,-11511 28777,-19244 1,1 1665,-1138 1658,-1133 394,-277 1186,-824 1186,-824 382,-310 1151,-925 1151,-925 -1051,485 -1678,802 -2686,1371 -183,104 -2219,1267 -2219,1267 -10213,6862 -18020,11634 -28754,17689 291,602 887,1799 887,1799z"/>
     <path class="fil5" d="M118855 159600c-2993,-1201 -4435,-3570 -5044,-6646 -451,-4144 967,-8428 5418,-9461 4273,-315 6344,3142 7141,6864 3914,440 5801,3709 6541,7260 435,3404 -183,6832 -3695,8231 484,3411 -223,6655 -3945,7613 -4163,473 -7003,-2414 -8277,-6129 -720,-2913 -390,-5594 1860,-7732z"/>
     <path class="fil10" d="M119807 159429c-2431,-987 -3612,-2919 -4120,-5420 -386,-3339 710,-6795 4309,-7632 3463,-261 5209,2507 5902,5531 3197,342 4772,2980 5393,5883 2,14 7,41 7,41 -3893,465 -11632,1724 -11632,1724 47,-43 142,-127 142,-127z"/>
     <path class="fil7" d="M100158 155953c-1726,2441 -2277,4835 -2502,7773 -1801,540 -5379,1701 -5379,1701 185,656 570,1964 570,1964 1773,-597 5345,-1711 5345,-1711 1631,2296 3246,3982 5860,5136 7384,1966 11947,-977 21373,4664 -1118,-3574 -3416,-7014 -5827,-9870 1397,-2303 4362,-6801 4362,-6801 -2305,-1670 -6887,-5048 -6887,-5048 1157,-3957 1871,-8250 1416,-12360 -6487,8928 -13343,9428 -18331,14551z"/>
     <path class="fil8" d="M121459 159245c-7411,1280 -14266,2831 -21501,4890 1779,3117 4590,5444 8258,5737 3136,33 9839,451 12725,1540 338,-387 -3503,-4879 -4057,-5550 1472,-2242 4575,-6617 4575,-6617z"/>
     <path class="fil7" d="M121373 127604c13873,9785 30784,10157 40317,-4749 -11017,-10548 -31442,-13347 -40559,3216 -19,-2 -58,-7 -58,-7 -2145,-100 -6436,-226 -6436,-226 48,743 158,2228 158,2228 2121,-171 6368,-435 6368,-435 70,-9 209,-27 209,-27z"/>
     <path class="fil8" d="M122875 127805c14327,683 23928,-773 37765,-4771 20,-32 60,-96 60,-96 -1089,-1033 -2324,-1848 -3605,-2620 -4909,-2827 -9466,-4375 -15114,-4993 -6474,-423 -11429,655 -16267,5186 -1777,1859 -2818,3530 -3827,5893 -63,152 -187,457 -187,457 57,47 172,142 172,142 330,272 1003,801 1003,801zm-7370 -1141c1763,45 5288,187 5288,187 -1751,100 -5252,350 -5251,350 -13,-179 -37,-537 -37,-537z"/>
     <path class="fil9" d="M114391 127495c13404,793 20840,824 34147,-1649 488,-100 1464,-295 1464,-295 497,-140 1490,-415 1490,-415 -1158,41 -1913,90 -3065,213 -13751,1453 -20134,1573 -33964,384 -27,588 -72,1763 -72,1763z"/>
     <path class="fil5" d="M158364 82195c-3154,590 -5630,-440 -7771,-2771 -2699,-3557 -2757,-7524 625,-10644 3547,-2535 7298,-1970 10310,1073 3720,-1859 7175,-889 9789,2252 2211,3297 2326,6874 -318,9958 1998,3407 2032,7077 -999,9871 -3598,2541 -7360,1365 -10208,-1661 -1951,-2488 -2603,-5075 -1428,-8079z"/>
     <path class="fil10" d="M159204 81504c-2582,478 -4603,-370 -6345,-2287 -2178,-2907 -2228,-6147 531,-8684 2893,-2060 5943,-1571 8394,898 3029,-1519 5841,-716 7980,1827 8,11 24,33 24,33 -3609,2733 -10666,8406 -10666,8406 27,-65 82,-193 82,-193z"/>
     <path class="fil7" d="M139291 89359c-447,2806 113,5003 1203,7577 -1369,1321 -4066,4004 -4066,4004 450,448 1351,1343 1351,1343 1332,-1339 4037,-3976 4037,-3976 2479,1167 4641,1869 7416,1676 7386,-1696 11033,-6971 21631,-6015 -2292,-3120 -5714,-5302 -9290,-6713 405,-2908 1384,-8697 1384,-8697 -2962,-143 -8889,-345 -8889,-345 -663,-3790 -2012,-7671 -4627,-10547 -1716,10687 -7869,14727 -10151,21693z"/>
     <path class="fil8" d="M160717 80395c-6243,5090 -12114,10213 -17971,15744 3085,1813 6548,2446 9899,975 2819,-1473 9394,-4552 12463,-4971 182,-693 -5173,-2841 -6011,-3185 483,-2865 1619,-8563 1619,-8563z"/>
    </g>
   </g>
  </g>
  <path class="fil11" d="M278905 409880c-142222,-2746 -302446,-191285 -107267,-337345"/>
 </g>
</svg>
