<?xml version="1.0" encoding="UTF-8" standalone="no"?>
<svg
   xmlns:dc="http://purl.org/dc/elements/1.1/"
   xmlns:cc="http://creativecommons.org/ns#"
   xmlns:rdf="http://www.w3.org/1999/02/22-rdf-syntax-ns#"
   xmlns:svg="http://www.w3.org/2000/svg"
   xmlns="http://www.w3.org/2000/svg"
   xmlns:sodipodi="http://sodipodi.sourceforge.net/DTD/sodipodi-0.dtd"
   xmlns:inkscape="http://www.inkscape.org/namespaces/inkscape"
   viewBox="0 0 334.40488 271.2655"
   x="0px"
   y="0px"
   id="svg2"
   version="1.1"
   inkscape:version="0.48.4 r9939"
   sodipodi:docname="agroindustri_logo.svg"
   width="334.40488"
   height="271.2655">
  <metadata
     id="metadata14">
    <rdf:RDF>
      <cc:Work
         rdf:about="">
        <dc:format>image/svg+xml</dc:format>
        <dc:type
           rdf:resource="http://purl.org/dc/dcmitype/StillImage" />
        <dc:title></dc:title>
      </cc:Work>
    </rdf:RDF>
  </metadata>
  <defs
     id="defs12" />
  <sodipodi:namedview
     pagecolor="#ffffff"
     bordercolor="#666666"
     borderopacity="1"
     objecttolerance="10"
     gridtolerance="10"
     guidetolerance="10"
     inkscape:pageopacity="0"
     inkscape:pageshadow="2"
     inkscape:window-width="1327"
     inkscape:window-height="744"
     id="namedview10"
     showgrid="false"
     fit-margin-top="0"
     fit-margin-left="0"
     fit-margin-right="0"
     fit-margin-bottom="0"
     inkscape:zoom="1.475"
     inkscape:cx="206.8547"
     inkscape:cy="130.22121"
     inkscape:window-x="39"
     inkscape:window-y="24"
     inkscape:window-maximized="1"
     inkscape:current-layer="svg2" />
  <path
     d="m 169.3739,0 -29.7323,104.23008 -39.42036,0 0,-80.176981 -17.037608,0 0,79.508841 -56.457967,7.01549 4.676991,52.11505 -31.402656,0 0,55.12168 21.714603,0 0,3.67478 c 0,27.72788 22.716815,49.77655 49.77655,49.77655 26.725662,0 49.776547,-21.7146 49.776547,-49.77655 0,-9.68805 -2.67256,-18.70797 -7.68362,-26.39159 l 54.11947,0 c 4.00885,43.4292 40.75664,75.83407 83.18363,75.83407 44.76549,0 83.5177,-36.74779 83.5177,-83.5177 0,-37.41593 -24.38717,-68.15045 -57.12611,-79.17479 l 0,-107.904859 -107.90487,0 z m 17.03761,20.71239 67.81638,0 0,83.18362 -3.67478,0 c -10.02213,0 -19.71018,2.00443 -28.73009,5.34514 l -58.12832,-4.67699 22.71681,-83.517699 z m 64.1416,133.29425 c 21.38053,0 34.07522,15.70132 34.07522,33.40708 0,17.70575 -12.69469,33.40708 -34.07522,33.40708 -21.38053,0 -34.07523,-15.70133 -34.07523,-33.40708 0,-17.70576 12.6947,-33.40708 34.07523,-33.40708 z m -179.396027,43.4292 c 14.699115,0 25.723452,11.35841 25.723452,24.0531 0,13.02876 -10.690266,24.0531 -25.723452,24.0531 -14.699116,0 -25.723453,-11.35841 -25.723453,-24.0531 0,-13.02876 10.690266,-24.0531 25.723453,-24.0531 z"
     id="path4"
     inkscape:connector-curvature="0"
     style="fill:#034a73;fill-opacity:1" />
</svg>
