<?xml version="1.0" encoding="UTF-8" standalone="no"?>
<svg
   xmlns:dc="http://purl.org/dc/elements/1.1/"
   xmlns:cc="http://creativecommons.org/ns#"
   xmlns:rdf="http://www.w3.org/1999/02/22-rdf-syntax-ns#"
   xmlns:svg="http://www.w3.org/2000/svg"
   xmlns="http://www.w3.org/2000/svg"
   xmlns:sodipodi="http://sodipodi.sourceforge.net/DTD/sodipodi-0.dtd"
   xmlns:inkscape="http://www.inkscape.org/namespaces/inkscape"
   version="1.1"
   x="0px"
   y="0px"
   viewBox="0 0 321.25424 321.25424"
   xml:space="preserve"
   id="svg2"
   inkscape:version="0.48.4 r9939"
   sodipodi:docname="logo_demografi.svg"
   width="321.25424"
   height="321.25424"><metadata
     id="metadata20"><rdf:RDF><cc:Work
         rdf:about=""><dc:format>image/svg+xml</dc:format><dc:type
           rdf:resource="http://purl.org/dc/dcmitype/StillImage" /><dc:title></dc:title></cc:Work></rdf:RDF></metadata><defs
     id="defs18" /><sodipodi:namedview
     pagecolor="#ffffff"
     bordercolor="#666666"
     borderopacity="1"
     objecttolerance="10"
     gridtolerance="10"
     guidetolerance="10"
     inkscape:pageopacity="0"
     inkscape:pageshadow="2"
     inkscape:window-width="1327"
     inkscape:window-height="744"
     id="namedview16"
     showgrid="false"
     fit-margin-top="0"
     fit-margin-left="0"
     fit-margin-right="0"
     fit-margin-bottom="0"
     inkscape:zoom="0.90769231"
     inkscape:cx="54.597011"
     inkscape:cy="55.004301"
     inkscape:window-x="39"
     inkscape:window-y="24"
     inkscape:window-maximized="1"
     inkscape:current-layer="svg2" /><g
     id="g4"
     style="fill:#034a73;fill-opacity:1"
     transform="scale(12.355932,12.355932)"><path
       d="M 24.664,18.712 C 25.512,16.986 26,15.053 26,13 26,8.498 23.711,4.532 20.234,2.199 l -6.531,10.612 10.961,5.901 z"
       id="path6"
       inkscape:connector-curvature="0"
       style="fill:#034a73;fill-opacity:1" /><path
       d="m 13,26 c 4.77,0 8.928,-2.577 11.19,-6.406 L 12.645,13.377 5.766,2.199 C 2.289,4.532 0,8.498 0,13 0,20.18 5.82,26 13,26 z"
       id="path8"
       inkscape:connector-curvature="0"
       style="fill:#034a73;fill-opacity:1" /><path
       d="M 6.621,1.68 13,12.046 19.379,1.68 C 17.493,0.615 15.32,0 13,0 10.68,0 8.507,0.615 6.621,1.68 z"
       id="path10"
       inkscape:connector-curvature="0"
       style="fill:#034a73;fill-opacity:1" /></g></svg>