<?xml version="1.0" encoding="UTF-8" standalone="no"?>
<svg
   xmlns:dc="http://purl.org/dc/elements/1.1/"
   xmlns:cc="http://creativecommons.org/ns#"
   xmlns:rdf="http://www.w3.org/1999/02/22-rdf-syntax-ns#"
   xmlns:svg="http://www.w3.org/2000/svg"
   xmlns="http://www.w3.org/2000/svg"
   xmlns:sodipodi="http://sodipodi.sourceforge.net/DTD/sodipodi-0.dtd"
   xmlns:inkscape="http://www.inkscape.org/namespaces/inkscape"
   version="1.1"
   x="0px"
   y="0px"
   viewBox="0 0 337.24746 297.22845"
   xml:space="preserve"
   id="svg2"
   inkscape:version="0.48.4 r9939"
   width="100%"
   height="100%"
   sodipodi:docname="logo_ekonomi.svg"><metadata
     id="metadata18"><rdf:RDF><cc:Work
         rdf:about=""><dc:format>image/svg+xml</dc:format><dc:type
           rdf:resource="http://purl.org/dc/dcmitype/StillImage" /><dc:title></dc:title></cc:Work></rdf:RDF></metadata><defs
     id="defs16" /><sodipodi:namedview
     pagecolor="#ffffff"
     bordercolor="#666666"
     borderopacity="1"
     objecttolerance="10"
     gridtolerance="10"
     guidetolerance="10"
     inkscape:pageopacity="0"
     inkscape:pageshadow="2"
     inkscape:window-width="1327"
     inkscape:window-height="744"
     id="namedview14"
     showgrid="false"
     fit-margin-top="0"
     fit-margin-left="0"
     fit-margin-right="0"
     fit-margin-bottom="0"
     inkscape:zoom="0.9632653"
     inkscape:cx="69.954846"
     inkscape:cy="25.775902"
     inkscape:window-x="39"
     inkscape:window-y="24"
     inkscape:window-maximized="1"
     inkscape:current-layer="svg2" /><g
     id="g4"
     transform="matrix(3.4984176,0,0,3.4984176,-2.7987341,-22.876765)"
     style="fill:#034a73;fill-opacity:1"><path
       d="m 13.9,49.1 c 0.7,0 1.4,-0.2 2,-0.7 L 36.3,30.7 49.3,42 c 1.2,1 2.9,1 4,-0.1 l 20.2,-18.5 5.1,5.1 c 0.6,0.6 1.3,0.9 2.1,0.9 0.3,0 0.6,0 0.9,-0.1 1.1,-0.3 1.9,-1.2 2.1,-2.3 L 87,10.1 c 0.2,-1 -0.1,-2 -0.8,-2.7 -0.7,-0.7 -1.7,-1 -2.7,-0.8 l -17,3.2 c -1.1,0.2 -2,1 -2.3,2.1 -0.3,1.1 0,2.2 0.7,3 l 4.3,4.3 -18,16.5 -13,-11.3 c -1.1,-1 -2.8,-1 -3.9,0 L 11.9,43.8 c -1.3,1.1 -1.4,3 -0.3,4.2 0.6,0.7 1.5,1.1 2.3,1.1 z"
       id="path6"
       inkscape:connector-curvature="0"
       style="fill:#034a73;fill-opacity:1" /><path
       d="M 94.2,85.5 H 88 V 49.2 c 0,-1.7 -1.3,-3 -3,-3 -1.7,0 -3,1.3 -3,3 V 85.5 H 76 V 38.2 c 0,-1.7 -1.3,-3 -3,-3 -1.7,0 -3,1.3 -3,3 V 85.5 H 64 V 59.2 c 0,-1.7 -1.3,-3 -3,-3 -1.7,0 -3,1.3 -3,3 V 85.5 H 52 V 67.2 c 0,-1.7 -1.3,-3 -3,-3 -1.7,0 -3,1.3 -3,3 V 85.5 H 40 V 49.2 c 0,-1.7 -1.3,-3 -3,-3 -1.7,0 -3,1.3 -3,3 V 85.5 H 28 V 75.2 c 0,-1.7 -1.3,-3 -3,-3 -1.7,0 -3,1.3 -3,3 V 85.5 H 16 V 66.2 c 0,-1.7 -1.3,-3 -3,-3 -1.7,0 -3,1.3 -3,3 V 85.5 H 3.8 c -1.7,0 -3,1.3 -3,3 0,1.7 1.3,3 3,3 h 90.4 c 1.7,0 3,-1.3 3,-3 0,-1.7 -1.3,-3 -3,-3 z"
       id="path8"
       inkscape:connector-curvature="0"
       style="fill:#034a73;fill-opacity:1" /></g></svg>