<?xml version="1.0" encoding="UTF-8" standalone="no"?>
<svg
   xmlns:dc="http://purl.org/dc/elements/1.1/"
   xmlns:cc="http://creativecommons.org/ns#"
   xmlns:rdf="http://www.w3.org/1999/02/22-rdf-syntax-ns#"
   xmlns:svg="http://www.w3.org/2000/svg"
   xmlns="http://www.w3.org/2000/svg"
   xmlns:sodipodi="http://sodipodi.sourceforge.net/DTD/sodipodi-0.dtd"
   xmlns:inkscape="http://www.inkscape.org/namespaces/inkscape"
   version="1.1"
   x="0px"
   y="0px"
   viewBox="-52.046 -24.692 176.21351 290.43779"
   enable-background="new -52.046 -24.692 1024 1024"
   xml:space="preserve"
   id="svg2"
   inkscape:version="0.48.4 r9939"
   width="100%"
   height="100%"
   sodipodi:docname="logo_energi.svg"><metadata
     id="metadata222"><rdf:RDF><cc:Work
         rdf:about=""><dc:format>image/svg+xml</dc:format><dc:type
           rdf:resource="http://purl.org/dc/dcmitype/StillImage" /><dc:title></dc:title></cc:Work></rdf:RDF></metadata><defs
     id="defs220" /><sodipodi:namedview
     pagecolor="#ffffff"
     bordercolor="#666666"
     borderopacity="1"
     objecttolerance="10"
     gridtolerance="10"
     guidetolerance="10"
     inkscape:pageopacity="0"
     inkscape:pageshadow="2"
     inkscape:window-width="1327"
     inkscape:window-height="744"
     id="namedview218"
     showgrid="false"
     fit-margin-top="0"
     fit-margin-left="0"
     fit-margin-right="0"
     fit-margin-bottom="0"
     inkscape:zoom="1.0429825"
     inkscape:cx="189.26359"
     inkscape:cy="74.756305"
     inkscape:window-x="39"
     inkscape:window-y="24"
     inkscape:window-maximized="1"
     inkscape:current-layer="svg2" /><g
     display="none"
     id="g4"
     style="display:none"
     transform="translate(-287.08243,-679.47211)"><g
       display="inline"
       id="g6"
       style="display:inline"><path
         d="m 497.456,943.818 c 0,-36.451 0,-72.901 0,-109.352 0,-63.357 0,-126.715 0,-190.072 0,-23.716 0,-47.432 0,-71.147 0,-19.079 -15.921,-35 -35,-35 -44.726,0 -89.452,0 -134.178,0 -42.398,0 -84.797,0 -127.195,0 10.074,17.555 20.147,35.11 30.222,52.665 11.04,-22.736 22.08,-45.473 33.12,-68.209 25.419,-52.351 50.839,-104.701 76.259,-157.052 28.249,-58.179 56.499,-116.357 84.748,-174.536 19.529,-40.22 39.058,-80.439 58.587,-120.659 2.886,-5.944 5.772,-11.889 8.659,-17.833 -21.741,-5.888 -43.481,-11.777 -65.222,-17.665 0,36.436 0,72.872 0,109.308 0,63.333 0,126.665 0,189.997 0,23.707 0,47.413 0,71.119 0,19.079 15.921,35 35,35 44.804,0 89.607,0 134.412,0 42.473,0 84.944,0 127.417,0 -10.074,-17.555 -20.147,-35.11 -30.222,-52.665 -11.036,22.696 -22.073,45.393 -33.109,68.089 -25.423,52.279 -50.845,104.559 -76.268,156.839 -28.276,58.148 -56.553,116.297 -84.829,174.446 -19.599,40.304 -39.198,80.607 -58.796,120.912 -2.942,6.05 -5.884,12.1 -8.827,18.15 -8.343,17.157 -4.822,37.706 12.557,47.887 15.503,9.081 39.547,4.594 47.887,-12.557 11.036,-22.696 22.073,-45.393 33.11,-68.089 25.422,-52.279 50.844,-104.559 76.267,-156.839 28.276,-58.148 56.553,-116.297 84.829,-174.446 19.599,-40.304 39.197,-80.608 58.797,-120.912 2.941,-6.05 5.884,-12.101 8.826,-18.151 5.588,-11.491 6.696,-23.898 0,-35.33 -6.235,-10.644 -17.879,-17.335 -30.222,-17.335 -44.804,0 -89.608,0 -134.412,0 -42.472,0 -84.944,0 -127.417,0 11.667,11.667 23.333,23.333 35,35 0,-36.436 0,-72.872 0,-109.308 0,-63.333 0,-126.665 0,-189.997 0,-23.706 0,-47.413 0,-71.119 0,-15.566 -10.682,-29.62 -25.695,-33.75 -14.239,-3.917 -32.747,2.123 -39.526,16.085 -11.04,22.736 -22.08,45.472 -33.12,68.208 -25.419,52.351 -50.839,104.702 -76.259,157.052 -28.249,58.179 -56.499,116.357 -84.748,174.536 -19.529,40.22 -39.058,80.439 -58.587,120.659 -2.886,5.944 -5.772,11.889 -8.659,17.833 -5.582,11.496 -6.7,23.894 0,35.33 6.235,10.644 17.879,17.335 30.222,17.335 44.726,0 89.452,0 134.178,0 42.398,0 84.797,0 127.195,0 -11.667,-11.667 -23.333,-23.333 -35,-35 0,36.45 0,72.901 0,109.352 0,63.357 0,126.716 0,190.073 0,23.715 0,47.431 0,71.146 0,19.079 15.921,35 35,35 19.079,0 34.999,-15.919 34.999,-34.998 z"
         id="path8"
         inkscape:connector-curvature="0" /></g></g><g
     id="g10"
     transform="matrix(0.29673536,0,0,0.29673536,-101.37841,-24.691934)"
     style="fill:#034a73;fill-opacity:1"><g
       id="g12"
       style="fill:#034a73;fill-opacity:1"><path
         d="m 406.692,953.123 c 7.567,-35.056 15.135,-70.11 22.703,-105.165 13.439,-62.251 26.878,-124.503 40.317,-186.754 5.659,-26.218 11.319,-52.436 16.979,-78.652 2.026,-9.388 1.421,-18.521 -3.528,-26.97 -6.235,-10.644 -17.879,-17.335 -30.222,-17.335 -45.549,0 -91.098,0 -136.647,0 -38.242,0 -76.484,0 -114.727,0 10.074,17.555 20.147,35.11 30.222,52.665 13.007,-19.927 26.015,-39.854 39.022,-59.781 30.681,-47.002 61.363,-94.004 92.044,-141.006 35.842,-54.909 71.685,-109.818 107.527,-164.728 28.492,-43.647 56.983,-87.295 85.475,-130.943 9.103,-13.943 18.204,-27.887 27.306,-41.83 -21.324,-8.99 -42.647,-17.979 -63.972,-26.969 -7.567,35.041 -15.136,70.082 -22.703,105.123 -13.438,62.227 -26.878,124.453 -40.317,186.68 -5.66,26.207 -11.32,52.414 -16.98,78.621 -2.027,9.387 -1.42,18.521 3.528,26.969 6.235,10.644 17.879,17.335 30.222,17.335 45.632,0 91.263,0 136.895,0 38.311,0 76.622,0 114.934,0 -10.074,-17.555 -20.147,-35.11 -30.222,-52.665 -13.024,19.933 -26.049,39.865 -39.073,59.797 -30.721,47.015 -61.441,94.031 -92.162,141.045 -35.89,54.924 -71.778,109.849 -107.667,164.772 -28.528,43.66 -57.057,87.32 -85.585,130.979 -9.113,13.947 -18.227,27.895 -27.34,41.842 -10.447,15.989 -3.28,38.609 12.557,47.887 17.079,10.005 37.472,3.382 47.887,-12.557 13.024,-19.933 26.049,-39.865 39.073,-59.798 30.721,-47.015 61.441,-94.03 92.162,-141.045 35.89,-54.924 71.778,-109.849 107.667,-164.772 28.528,-43.66 57.057,-87.319 85.585,-130.979 9.113,-13.947 18.228,-27.895 27.341,-41.842 14.747,-22.57 -4.698,-52.665 -30.222,-52.665 -45.632,0 -91.263,0 -136.895,0 -38.311,0 -76.622,0 -114.934,0 11.25,14.768 22.5,29.536 33.75,44.304 7.567,-35.041 15.136,-70.082 22.703,-105.123 13.438,-62.227 26.878,-124.453 40.317,-186.68 5.659,-26.207 11.319,-52.414 16.979,-78.621 3.342,-15.473 -1.983,-31.266 -16.085,-39.526 -17.073,-10.001 -37.479,-3.387 -47.887,12.557 -13.008,19.927 -26.015,39.854 -39.022,59.781 -30.681,47.002 -61.363,94.005 -92.044,141.007 -35.842,54.909 -71.685,109.818 -107.528,164.728 -28.491,43.647 -56.983,87.295 -85.475,130.943 -9.102,13.943 -18.203,27.887 -27.305,41.83 -14.735,22.573 4.688,52.665 30.222,52.665 45.549,0 91.098,0 136.647,0 38.242,0 76.484,0 114.727,0 -11.25,-14.769 -22.5,-29.536 -33.75,-44.305 -7.567,35.056 -15.135,70.11 -22.703,105.165 -13.439,62.252 -26.878,124.503 -40.317,186.754 -5.66,26.218 -11.32,52.436 -16.98,78.652 -4.022,18.632 5.295,37.787 24.446,43.055 17.603,4.842 39.029,-5.793 43.055,-24.445 z"
         id="path14"
         inkscape:connector-curvature="0"
         style="fill:#034a73;fill-opacity:1" /></g></g><g
     display="none"
     id="g16"
     style="display:none"
     transform="translate(-287.08243,-679.47211)"><g
       display="inline"
       id="g18"
       style="display:inline"><path
         d="m 252.679,932.268 c 13.537,-29.87 27.073,-59.74 40.61,-89.611 26.473,-58.414 52.945,-116.829 79.418,-175.244 18.202,-40.165 36.404,-80.33 54.606,-120.495 0.789,-1.74 1.577,-3.48 2.366,-5.221 5.313,-11.724 6.827,-23.675 0,-35.33 -6.235,-10.644 -17.879,-17.335 -30.222,-17.335 -49.375,0 -98.749,0 -148.123,0 -16.75,0 -33.5,0 -50.251,0 11.25,14.769 22.5,29.536 33.75,44.305 5.731,-30.161 11.462,-60.321 17.194,-90.482 11.828,-62.245 23.656,-124.489 35.484,-186.734 9.876,-51.974 19.753,-103.947 29.629,-155.921 1.692,-8.907 3.385,-17.814 5.078,-26.722 -11.25,8.565 -22.5,17.13 -33.75,25.696 40.588,0 81.176,0 121.764,0 57.657,0 115.314,0 172.97,0 6.418,0 12.836,0 19.254,0 -10.074,-17.555 -20.147,-35.11 -30.222,-52.665 -15.155,35.551 -30.311,71.103 -45.465,106.653 -23.95,56.182 -47.9,112.363 -71.85,168.545 -5.229,12.265 -10.457,24.53 -15.686,36.795 -3.166,5.459 -4.759,11.347 -4.778,17.665 0.02,6.318 1.612,12.206 4.778,17.665 6.235,10.644 17.879,17.335 30.222,17.335 45.297,0 90.595,0 135.892,0 39.646,0 79.291,0 118.937,0 -8.25,-19.916 -16.499,-39.833 -24.749,-59.749 -14.456,15.51 -28.911,31.021 -43.367,46.531 -35.434,38.018 -70.866,76.036 -106.3,114.054 -44.508,47.755 -89.017,95.51 -133.525,143.266 -41.682,44.722 -83.363,89.444 -125.045,134.167 -26.953,28.919 -53.906,57.838 -80.859,86.757 -4.244,4.554 -8.488,9.107 -12.732,13.661 -12.998,13.946 -13.839,35.658 0,49.498 13.129,13.129 36.489,13.957 49.497,0 14.456,-15.511 28.912,-31.021 43.368,-46.531 35.434,-38.019 70.866,-76.036 106.3,-114.055 44.508,-47.755 89.017,-95.51 133.524,-143.266 41.682,-44.722 83.363,-89.444 125.045,-134.167 26.953,-28.919 53.906,-57.838 80.859,-86.757 4.244,-4.554 8.488,-9.108 12.732,-13.662 8.596,-9.223 12.405,-21.675 9.001,-34.053 -4.13,-15.014 -18.185,-25.696 -33.75,-25.696 -45.297,0 -90.595,0 -135.892,0 -39.646,0 -79.291,0 -118.937,0 10.074,17.555 20.147,35.11 30.222,52.665 15.155,-35.551 30.311,-71.103 45.465,-106.653 23.95,-56.182 47.9,-112.363 71.85,-168.545 5.229,-12.265 10.457,-24.53 15.686,-36.795 3.166,-5.459 4.759,-11.347 4.778,-17.665 -0.02,-6.318 -1.612,-12.206 -4.778,-17.665 -6.235,-10.644 -17.879,-17.335 -30.222,-17.335 -40.588,0 -81.176,0 -121.765,0 -57.656,0 -115.313,0 -172.97,0 -6.417,0 -12.835,0 -19.253,0 -14.607,0 -30.875,10.57 -33.75,25.696 -5.731,30.16 -11.462,60.321 -17.194,90.481 -11.828,62.245 -23.656,124.489 -35.484,186.734 -9.876,51.974 -19.753,103.947 -29.629,155.921 -1.692,8.907 -3.385,17.814 -5.078,26.722 -1.812,9.535 -1.514,18.361 3.528,26.97 6.235,10.644 17.879,17.335 30.222,17.335 49.375,0 98.749,0 148.123,0 16.75,0 33.5,0 50.251,0 -10.074,-17.555 -20.147,-35.11 -30.222,-52.665 -13.537,29.87 -27.073,59.74 -40.61,89.611 -26.473,58.414 -52.945,116.829 -79.418,175.244 -18.202,40.165 -36.404,80.33 -54.606,120.495 -0.789,1.74 -1.577,3.48 -2.366,5.221 -4.044,8.924 -6.225,17.165 -3.528,26.97 2.407,8.748 8.261,16.334 16.085,20.917 8.083,4.735 17.936,6.013 26.969,3.528 7.987,-2.196 17.362,-8.235 20.919,-16.084 z"
         id="path20"
         inkscape:connector-curvature="0" /></g></g><g
     display="none"
     id="g22"
     style="display:none"
     transform="translate(-287.08243,-679.47211)"><g
       display="inline"
       id="g24"
       style="display:inline"><path
         d="m 180.684,575.388 c 47.269,0 94.538,0 141.807,0 30.064,0 60.129,0 90.193,0 -11.667,-11.667 -23.333,-23.333 -35,-35 0,34.941 0,69.883 0,104.825 0,64.106 0,128.212 0,192.318 0,32.285 0,64.571 0,96.856 0,15.565 10.682,29.62 25.696,33.75 15.84,4.357 30.726,-2.938 39.526,-16.085 14.08,-21.035 28.16,-42.071 42.241,-63.106 32.394,-48.396 64.788,-96.793 97.183,-145.188 35.938,-53.692 71.878,-107.384 107.816,-161.076 24.714,-36.923 49.429,-73.845 74.143,-110.767 3.539,-5.288 7.078,-10.575 10.617,-15.862 15.046,-22.479 -4.921,-52.665 -30.222,-52.665 -47.269,0 -94.538,0 -141.807,0 -30.064,0 -60.129,0 -90.193,0 11.667,11.667 23.333,23.333 35,35 0,-34.941 0,-69.883 0,-104.825 0,-64.106 0,-128.213 0,-192.319 0,-32.286 0,-64.571 0,-96.856 0,-15.566 -10.682,-29.62 -25.695,-33.75 -15.841,-4.357 -30.727,2.938 -39.526,16.085 -14.08,21.035 -28.16,42.071 -42.24,63.106 -32.395,48.396 -64.789,96.792 -97.183,145.189 -35.94,53.692 -71.879,107.384 -107.818,161.076 -24.714,36.922 -49.428,73.845 -74.143,110.768 -3.539,5.287 -7.078,10.574 -10.617,15.861 -10.626,15.875 -3.144,38.689 12.557,47.887 17.217,10.086 37.297,3.265 47.887,-12.557 14.08,-21.035 28.16,-42.071 42.24,-63.106 32.395,-48.396 64.789,-96.792 97.183,-145.189 35.938,-53.692 71.877,-107.384 107.816,-161.076 24.714,-36.922 49.429,-73.845 74.143,-110.767 3.539,-5.287 7.078,-10.575 10.617,-15.862 -21.74,-5.888 -43.481,-11.777 -65.222,-17.665 0,34.941 0,69.883 0,104.825 0,64.106 0,128.213 0,192.319 0,32.286 0,64.571 0,96.856 0,19.079 15.921,35 35,35 47.269,0 94.538,0 141.807,0 30.064,0 60.129,0 90.193,0 -10.074,-17.555 -20.147,-35.11 -30.222,-52.665 -14.08,21.035 -28.16,42.071 -42.24,63.106 -32.395,48.396 -64.789,96.793 -97.183,145.188 -35.938,53.693 -71.877,107.385 -107.816,161.077 -24.714,36.923 -49.428,73.845 -74.142,110.768 -3.539,5.287 -7.078,10.574 -10.617,15.861 21.741,5.889 43.481,11.776 65.222,17.665 0,-34.941 0,-69.883 0,-104.825 0,-64.106 0,-128.212 0,-192.318 0,-32.285 0,-64.571 0,-96.856 0,-19.079 -15.921,-35 -35,-35 -47.269,0 -94.538,0 -141.807,0 -30.064,0 -60.129,0 -90.193,0 -19.079,0 -35,15.921 -35,35 0,19.079 15.92,34.999 34.999,34.999 z"
         id="path26"
         inkscape:connector-curvature="0" /></g></g><g
     display="none"
     id="g28"
     style="display:none"
     transform="translate(-287.08243,-679.47211)"><g
       display="inline"
       id="g30"
       style="display:inline"><path
         d="m 483.456,943.818 c 0,-36.451 0,-72.901 0,-109.352 0,-63.357 0,-126.715 0,-190.072 0,-23.716 0,-47.432 0,-71.147 0,-11.447 -9.553,-21 -21,-21 -44.726,0 -89.452,0 -134.178,0 -42.398,0 -84.797,0 -127.195,0 6.044,10.533 12.088,21.066 18.133,31.599 11.04,-22.735 22.08,-45.472 33.12,-68.208 25.419,-52.351 50.839,-104.702 76.259,-157.053 28.25,-58.178 56.499,-116.357 84.748,-174.536 19.529,-40.219 39.059,-80.439 58.587,-120.659 2.887,-5.944 5.772,-11.889 8.659,-17.833 -13.044,-3.533 -26.088,-7.066 -39.133,-10.599 0,36.436 0,72.872 0,109.308 0,63.333 0,126.665 0,189.997 0,23.707 0,47.413 0,71.119 0,11.447 9.553,21 21,21 44.804,0 89.607,0 134.412,0 42.473,0 84.944,0 127.417,0 -6.044,-10.533 -12.089,-21.066 -18.133,-31.599 -11.037,22.696 -22.073,45.393 -33.11,68.089 -25.422,52.28 -50.845,104.559 -76.267,156.838 -28.276,58.149 -56.553,116.298 -84.829,174.446 -19.6,40.305 -39.198,80.608 -58.797,120.912 -2.942,6.051 -5.884,12.101 -8.826,18.15 -5.006,10.295 -2.894,22.624 7.534,28.732 9.302,5.449 23.728,2.757 28.732,-7.533 11.037,-22.697 22.073,-45.394 33.11,-68.09 25.422,-52.279 50.845,-104.559 76.267,-156.838 28.276,-58.149 56.553,-116.298 84.829,-174.446 19.599,-40.305 39.198,-80.608 58.797,-120.912 2.942,-6.05 5.884,-12.101 8.826,-18.151 6.807,-13.998 -1.294,-31.599 -18.133,-31.599 -44.804,0 -89.608,0 -134.412,0 -42.472,0 -84.944,0 -127.417,0 7,7 14,14 21,21 0,-36.436 0,-72.872 0,-109.308 0,-63.333 0,-126.665 0,-189.997 0,-23.706 0,-47.413 0,-71.119 0,-9.339 -6.409,-17.772 -15.417,-20.25 -8.543,-2.35 -19.648,1.273 -23.716,9.651 -11.04,22.736 -22.08,45.473 -33.12,68.208 -25.419,52.351 -50.839,104.702 -76.259,157.053 -28.25,58.178 -56.499,116.357 -84.748,174.536 -19.529,40.219 -39.059,80.439 -58.587,120.658 -2.887,5.944 -5.773,11.889 -8.659,17.834 -3.35,6.897 -4.02,14.336 0,21.197 3.741,6.387 10.727,10.401 18.133,10.401 44.726,0 89.452,0 134.178,0 42.398,0 84.797,0 127.195,0 -7,-7 -14,-14 -21,-21 0,36.45 0,72.901 0,109.352 0,63.357 0,126.716 0,190.073 0,23.715 0,47.431 0,71.146 0,11.447 9.553,21 21,21 11.447,0 21,-9.551 21,-20.998 z"
         id="path32"
         inkscape:connector-curvature="0" /></g></g><g
     display="none"
     id="g34"
     style="display:none"
     transform="translate(-287.08243,-679.47211)"><g
       display="inline"
       id="g36"
       style="display:inline"><path
         d="m 392.707,949.401 c 7.567,-35.056 15.135,-70.11 22.703,-105.165 13.439,-62.252 26.878,-124.503 40.317,-186.754 5.66,-26.218 11.32,-52.436 16.98,-78.652 2.857,-13.235 -6.02,-26.583 -20.25,-26.583 -45.549,0 -91.098,0 -136.647,0 -38.242,0 -76.484,0 -114.727,0 6.044,10.533 12.088,21.066 18.133,31.599 13.008,-19.927 26.015,-39.854 39.023,-59.78 30.681,-47.002 61.362,-94.005 92.043,-141.007 35.843,-54.909 71.686,-109.818 107.528,-164.728 28.492,-43.648 56.983,-87.295 85.475,-130.943 9.102,-13.943 18.203,-27.887 27.305,-41.83 -12.794,-5.394 -25.589,-10.788 -38.383,-16.182 -7.567,35.041 -15.136,70.082 -22.703,105.123 -13.439,62.227 -26.878,124.453 -40.317,186.68 -5.659,26.207 -11.319,52.414 -16.979,78.621 -2.858,13.234 6.021,26.583 20.25,26.583 45.632,0 91.263,0 136.895,0 38.311,0 76.622,0 114.934,0 -6.044,-10.533 -12.089,-21.066 -18.133,-31.599 -13.024,19.933 -26.049,39.865 -39.073,59.797 -30.721,47.016 -61.441,94.03 -92.163,141.046 -35.889,54.924 -71.777,109.849 -107.666,164.772 -28.529,43.66 -57.057,87.319 -85.585,130.979 -9.114,13.947 -18.227,27.895 -27.34,41.841 -6.269,9.594 -1.968,23.166 7.534,28.732 10.248,6.003 22.483,2.029 28.732,-7.533 13.024,-19.933 26.049,-39.865 39.073,-59.798 30.721,-47.016 61.441,-94.03 92.163,-141.046 35.889,-54.924 71.777,-109.848 107.666,-164.772 28.528,-43.66 57.058,-87.319 85.586,-130.979 9.113,-13.947 18.227,-27.894 27.34,-41.841 8.849,-13.542 -2.818,-31.599 -18.133,-31.599 -45.632,0 -91.263,0 -136.895,0 -38.311,0 -76.622,0 -114.934,0 6.75,8.861 13.5,17.722 20.25,26.583 7.567,-35.041 15.136,-70.082 22.703,-105.123 13.439,-62.227 26.878,-124.453 40.317,-186.68 5.659,-26.207 11.319,-52.414 16.979,-78.621 2.005,-9.284 -1.19,-18.759 -9.651,-23.715 -10.244,-6.001 -22.487,-2.032 -28.731,7.534 -13.008,19.927 -26.016,39.854 -39.022,59.781 -30.682,47.002 -61.363,94.004 -92.044,141.006 -35.843,54.909 -71.686,109.818 -107.528,164.728 -28.492,43.648 -56.983,87.295 -85.475,130.944 -9.102,13.943 -18.204,27.887 -27.305,41.83 -8.841,13.544 2.813,31.599 18.133,31.599 45.549,0 91.098,0 136.647,0 38.242,0 76.484,0 114.727,0 -6.75,-8.861 -13.5,-17.722 -20.25,-26.583 -7.567,35.056 -15.135,70.11 -22.703,105.165 -13.439,62.252 -26.878,124.503 -40.317,186.754 -5.66,26.218 -11.32,52.436 -16.98,78.652 -2.413,11.18 3.177,22.672 14.667,25.833 10.56,2.903 23.415,-3.478 25.831,-14.669 z"
         id="path38"
         inkscape:connector-curvature="0" /></g></g><g
     display="none"
     id="g40"
     style="display:none"
     transform="translate(-287.08243,-679.47211)"><g
       display="inline"
       id="g42"
       style="display:inline"><path
         d="m 240.59,925.203 c 13.537,-29.871 27.073,-59.741 40.61,-89.611 26.473,-58.415 52.945,-116.83 79.417,-175.245 18.202,-40.165 36.404,-80.33 54.606,-120.495 0.789,-1.74 1.577,-3.48 2.366,-5.221 3.188,-7.034 4.097,-14.204 0,-21.197 -3.741,-6.387 -10.727,-10.401 -18.133,-10.401 -49.375,0 -98.749,0 -148.123,0 -16.75,0 -33.5,0 -50.251,0 6.75,8.861 13.5,17.722 20.25,26.583 5.731,-30.161 11.462,-60.321 17.194,-90.482 11.828,-62.245 23.656,-124.489 35.485,-186.734 9.876,-51.974 19.752,-103.947 29.629,-155.921 1.693,-8.907 3.385,-17.814 5.078,-26.722 -6.75,5.139 -13.5,10.278 -20.25,15.417 40.588,0 81.176,0 121.764,0 57.657,0 115.314,0 172.97,0 6.418,0 12.836,0 19.254,0 -6.044,-10.533 -12.089,-21.066 -18.133,-31.599 -15.155,35.551 -30.311,71.103 -45.466,106.654 -23.949,56.182 -47.899,112.363 -71.849,168.545 -5.229,12.265 -10.457,24.53 -15.686,36.794 -3.047,7.146 -4.162,14.094 0,21.198 3.741,6.386 10.728,10.401 18.133,10.401 45.297,0 90.595,0 135.892,0 39.646,0 79.291,0 118.937,0 -4.95,-11.95 -9.899,-23.899 -14.85,-35.849 -14.456,15.51 -28.911,31.021 -43.367,46.531 -35.434,38.018 -70.866,76.036 -106.3,114.054 -44.508,47.755 -89.017,95.51 -133.525,143.266 -41.681,44.722 -83.363,89.444 -125.044,134.167 -26.953,28.919 -53.906,57.838 -80.859,86.757 -4.244,4.554 -8.488,9.107 -12.732,13.661 -7.799,8.368 -8.304,21.396 0,29.699 7.877,7.877 21.894,8.374 29.698,0 14.456,-15.511 28.912,-31.021 43.368,-46.532 35.433,-38.018 70.866,-76.035 106.299,-114.054 44.508,-47.755 89.017,-95.51 133.525,-143.266 41.682,-44.722 83.363,-89.444 125.045,-134.167 26.953,-28.919 53.906,-57.838 80.859,-86.757 4.244,-4.554 8.488,-9.107 12.732,-13.661 12.311,-13.208 3.95,-35.849 -14.85,-35.849 -45.297,0 -90.595,0 -135.892,0 -39.646,0 -79.291,0 -118.937,0 6.044,10.533 12.089,21.066 18.133,31.599 15.155,-35.551 30.311,-71.103 45.466,-106.654 23.949,-56.182 47.899,-112.363 71.849,-168.545 5.229,-12.265 10.457,-24.53 15.686,-36.794 3.047,-7.146 4.161,-14.094 0,-21.198 -3.741,-6.386 -10.728,-10.401 -18.133,-10.401 -40.588,0 -81.176,0 -121.765,0 -57.656,0 -115.313,0 -172.97,0 -6.417,0 -12.835,0 -19.253,0 -8.764,0 -18.525,6.342 -20.25,15.417 -5.731,30.161 -11.462,60.321 -17.194,90.481 -11.828,62.245 -23.656,124.489 -35.485,186.734 -9.876,51.974 -19.752,103.947 -29.629,155.921 -1.693,8.907 -3.385,17.814 -5.078,26.722 -2.518,13.25 5.765,26.583 20.25,26.583 49.375,0 98.749,0 148.123,0 16.75,0 33.5,0 50.251,0 -6.044,-10.533 -12.088,-21.066 -18.133,-31.599 -13.537,29.87 -27.073,59.74 -40.61,89.61 -26.473,58.415 -52.945,116.83 -79.417,175.245 -18.202,40.165 -36.404,80.33 -54.606,120.495 -0.789,1.74 -1.577,3.48 -2.366,5.22 -4.725,10.427 -3.092,22.508 7.534,28.732 9.1,5.331 24.007,2.895 28.733,-7.532 z"
         id="path44"
         inkscape:connector-curvature="0" /></g></g><g
     display="none"
     id="g46"
     style="display:none"
     transform="translate(-287.08243,-679.47211)"><g
       display="inline"
       id="g48"
       style="display:inline"><path
         d="m 180.684,561.388 c 47.269,0 94.538,0 141.807,0 30.064,0 60.129,0 90.193,0 -7,-7 -14,-14 -21,-21 0,34.941 0,69.883 0,104.825 0,64.106 0,128.212 0,192.318 0,32.285 0,64.571 0,96.856 0,9.34 6.409,17.771 15.417,20.25 9.504,2.614 18.436,-1.763 23.715,-9.65 14.08,-21.036 28.161,-42.071 42.241,-63.107 32.395,-48.396 64.788,-96.792 97.183,-145.188 35.939,-53.692 71.878,-107.384 107.817,-161.076 24.715,-36.922 49.429,-73.845 74.143,-110.767 3.539,-5.287 7.078,-10.574 10.617,-15.861 9.028,-13.487 -2.952,-31.599 -18.133,-31.599 -47.269,0 -94.538,0 -141.807,0 -30.064,0 -60.129,0 -90.193,0 7,7 14,14 21,21 0,-34.941 0,-69.883 0,-104.825 0,-64.106 0,-128.213 0,-192.319 0,-32.286 0,-64.571 0,-96.856 0,-9.339 -6.409,-17.772 -15.417,-20.25 -9.505,-2.614 -18.436,1.763 -23.716,9.651 -14.08,21.036 -28.16,42.071 -42.241,63.106 -32.394,48.396 -64.789,96.792 -97.183,145.189 -35.939,53.692 -71.878,107.384 -107.817,161.076 -24.714,36.922 -49.428,73.845 -74.143,110.767 -3.539,5.287 -7.078,10.574 -10.617,15.861 -6.376,9.525 -1.887,23.214 7.534,28.732 10.331,6.052 22.378,1.959 28.732,-7.533 14.08,-21.036 28.161,-42.071 42.241,-63.107 32.394,-48.396 64.789,-96.792 97.183,-145.189 35.939,-53.692 71.878,-107.384 107.817,-161.076 24.714,-36.922 49.428,-73.845 74.142,-110.768 3.539,-5.287 7.078,-10.574 10.617,-15.861 -13.044,-3.533 -26.089,-7.066 -39.133,-10.599 0,34.941 0,69.883 0,104.825 0,64.106 0,128.213 0,192.319 0,32.286 0,64.571 0,96.856 0,11.447 9.553,21 21,21 47.269,0 94.538,0 141.807,0 30.064,0 60.129,0 90.193,0 -6.044,-10.533 -12.089,-21.066 -18.133,-31.599 -14.08,21.036 -28.16,42.071 -42.24,63.107 -32.395,48.396 -64.789,96.792 -97.184,145.188 -35.938,53.692 -71.877,107.384 -107.816,161.076 -24.714,36.922 -49.428,73.845 -74.143,110.767 -3.539,5.287 -7.078,10.574 -10.617,15.861 13.044,3.533 26.088,7.066 39.133,10.6 0,-34.941 0,-69.883 0,-104.825 0,-64.106 0,-128.212 0,-192.318 0,-32.285 0,-64.571 0,-96.856 0,-11.447 -9.552,-21 -21,-21 -47.269,0 -94.538,0 -141.807,0 -30.064,0 -60.129,0 -90.193,0 -11.448,0 -21,9.553 -21,21 0,11.447 9.553,20.999 21.001,20.999 z"
         id="path50"
         inkscape:connector-curvature="0" /></g></g><g
     display="none"
     id="g52"
     style="display:none"
     transform="translate(-287.08243,-679.47211)"><g
       display="inline"
       id="g54"
       style="display:inline"><path
         d="m 472.956,943.818 c 0,-36.451 0,-72.901 0,-109.352 0,-63.357 0,-126.715 0,-190.072 0,-23.716 0,-47.432 0,-71.147 0,-5.724 -4.776,-10.5 -10.5,-10.5 -44.726,0 -89.452,0 -134.178,0 -42.398,0 -84.797,0 -127.195,0 3.022,5.267 6.044,10.533 9.066,15.8 11.04,-22.736 22.08,-45.473 33.12,-68.209 25.419,-52.351 50.839,-104.702 76.259,-157.052 28.25,-58.179 56.499,-116.357 84.748,-174.536 19.529,-40.22 39.058,-80.439 58.587,-120.659 2.887,-5.944 5.772,-11.889 8.659,-17.833 -6.522,-1.766 -13.044,-3.533 -19.566,-5.299 0,36.436 0,72.872 0,109.308 0,63.333 0,126.665 0,189.997 0,23.707 0,47.413 0,71.119 0,5.724 4.776,10.5 10.5,10.5 44.804,0 89.607,0 134.412,0 42.473,0 84.944,0 127.417,0 -3.022,-5.267 -6.044,-10.533 -9.066,-15.8 -11.037,22.697 -22.073,45.393 -33.11,68.089 -25.422,52.28 -50.845,104.559 -76.267,156.838 -28.276,58.148 -56.553,116.298 -84.829,174.446 -19.599,40.304 -39.198,80.608 -58.797,120.912 -2.942,6.05 -5.884,12.101 -8.826,18.15 -2.503,5.147 -1.447,11.313 3.767,14.366 4.651,2.725 11.864,1.378 14.366,-3.767 11.037,-22.696 22.073,-45.393 33.11,-68.089 25.422,-52.28 50.845,-104.56 76.267,-156.839 28.276,-58.149 56.553,-116.298 84.829,-174.446 19.599,-40.304 39.198,-80.608 58.797,-120.912 2.942,-6.05 5.884,-12.101 8.826,-18.15 3.403,-6.999 -0.647,-15.8 -9.066,-15.8 -44.804,0 -89.608,0 -134.412,0 -42.472,0 -84.944,0 -127.417,0 3.5,3.5 7,7 10.5,10.5 0,-36.436 0,-72.872 0,-109.308 0,-63.333 0,-126.665 0,-189.997 0,-23.706 0,-47.413 0,-71.119 0,-9.963 -14.863,-14.987 -19.566,-5.299 -11.04,22.736 -22.08,45.472 -33.12,68.208 -25.419,52.351 -50.839,104.702 -76.259,157.052 -28.25,58.179 -56.499,116.357 -84.748,174.536 -19.529,40.22 -39.058,80.439 -58.587,120.659 -2.886,5.944 -5.773,11.889 -8.659,17.833 -3.399,7 0.644,15.8 9.066,15.8 44.726,0 89.452,0 134.178,0 42.398,0 84.797,0 127.195,0 -3.5,-3.5 -7,-7 -10.5,-10.5 0,36.45 0,72.901 0,109.352 0,63.357 0,126.716 0,190.073 0,23.715 0,47.431 0,71.146 -10e-4,13.543 20.999,13.543 20.999,10e-4 z"
         id="path56"
         inkscape:connector-curvature="0" /></g></g><g
     display="none"
     id="g58"
     style="display:none"
     transform="translate(-287.08243,-679.47211)"><g
       display="inline"
       id="g60"
       style="display:inline"><path
         d="m 382.582,946.609 c 7.568,-35.055 15.135,-70.109 22.703,-105.164 13.439,-62.252 26.878,-124.503 40.317,-186.755 5.66,-26.217 11.32,-52.435 16.98,-78.652 1.429,-6.617 -3.01,-13.291 -10.125,-13.291 -45.549,0 -91.098,0 -136.647,0 -38.242,0 -76.484,0 -114.727,0 3.022,5.267 6.044,10.533 9.066,15.8 13.008,-19.928 26.015,-39.854 39.023,-59.781 30.681,-47.002 61.362,-94.004 92.043,-141.007 35.843,-54.909 71.685,-109.818 107.528,-164.728 28.492,-43.647 56.983,-87.295 85.475,-130.943 9.102,-13.943 18.203,-27.887 27.305,-41.83 -6.397,-2.697 -12.794,-5.394 -19.191,-8.091 -7.567,35.041 -15.136,70.082 -22.703,105.123 -13.439,62.227 -26.878,124.453 -40.317,186.68 -5.659,26.207 -11.319,52.414 -16.979,78.621 -1.429,6.618 3.01,13.292 10.125,13.292 45.632,0 91.263,0 136.895,0 38.311,0 76.622,0 114.934,0 -3.022,-5.267 -6.044,-10.533 -9.066,-15.8 -13.024,19.933 -26.049,39.865 -39.073,59.798 -30.721,47.015 -61.441,94.03 -92.163,141.045 -35.889,54.925 -71.777,109.849 -107.666,164.773 -28.529,43.659 -57.057,87.319 -85.585,130.979 -9.113,13.946 -18.227,27.894 -27.34,41.841 -7.432,11.374 10.758,21.885 18.133,10.6 13.024,-19.933 26.049,-39.865 39.073,-59.798 30.721,-47.015 61.441,-94.03 92.163,-141.045 35.889,-54.925 71.777,-109.849 107.666,-164.773 28.528,-43.659 57.057,-87.319 85.585,-130.979 9.114,-13.947 18.228,-27.895 27.341,-41.841 4.425,-6.771 -1.409,-15.8 -9.066,-15.8 -45.632,0 -91.263,0 -136.895,0 -38.311,0 -76.622,0 -114.934,0 3.375,4.431 6.75,8.861 10.125,13.292 7.567,-35.041 15.136,-70.082 22.703,-105.123 13.439,-62.227 26.878,-124.453 40.317,-186.68 5.659,-26.207 11.319,-52.414 16.979,-78.621 2.532,-11.725 -12.601,-18.188 -19.191,-8.091 -13.008,19.927 -26.016,39.854 -39.022,59.781 -30.682,47.002 -61.363,94.004 -92.044,141.007 -35.843,54.909 -71.685,109.818 -107.528,164.728 -28.492,43.647 -56.983,87.295 -85.475,130.943 -9.102,13.943 -18.204,27.887 -27.305,41.83 -4.42,6.772 1.406,15.8 9.066,15.8 45.549,0 91.098,0 136.647,0 38.242,0 76.484,0 114.727,0 -3.375,-4.431 -6.75,-8.861 -10.125,-13.291 -7.568,35.055 -15.135,70.109 -22.703,105.165 -13.439,62.251 -26.878,124.502 -40.317,186.754 -5.66,26.217 -11.32,52.435 -16.98,78.652 -2.853,13.201 17.391,18.815 20.248,5.58 z"
         id="path62"
         inkscape:connector-curvature="0" /></g></g><g
     display="none"
     id="g64"
     style="display:none"
     transform="translate(-287.08243,-679.47211)"><g
       display="inline"
       id="g66"
       style="display:inline"><path
         d="m 231.523,919.903 c 13.537,-29.87 27.073,-59.741 40.61,-89.611 26.472,-58.415 52.945,-116.83 79.417,-175.244 18.202,-40.165 36.404,-80.33 54.606,-120.495 0.789,-1.74 1.577,-3.48 2.366,-5.221 3.186,-7.029 -0.484,-15.8 -9.066,-15.8 -49.375,0 -98.749,0 -148.123,0 -16.75,0 -33.5,0 -50.251,0 3.375,4.431 6.75,8.861 10.125,13.291 5.731,-30.16 11.462,-60.321 17.194,-90.481 11.828,-62.245 23.657,-124.489 35.485,-186.734 9.876,-51.974 19.752,-103.947 29.629,-155.92 1.693,-8.908 3.385,-17.815 5.078,-26.722 -3.375,2.569 -6.75,5.139 -10.125,7.708 40.588,0 81.176,0 121.764,0 57.657,0 115.314,0 172.97,0 6.418,0 12.836,0 19.254,0 -3.022,-5.267 -6.044,-10.533 -9.066,-15.799 -15.155,35.551 -30.311,71.102 -45.466,106.653 -23.949,56.182 -47.899,112.363 -71.849,168.545 -5.229,12.265 -10.457,24.53 -15.686,36.794 -3.005,7.05 0.35,15.8 9.066,15.8 45.297,0 90.595,0 135.892,0 39.646,0 79.291,0 118.937,0 -2.475,-5.975 -4.95,-11.95 -7.425,-17.925 -14.456,15.511 -28.912,31.021 -43.367,46.532 -35.434,38.018 -70.866,76.036 -106.3,114.054 -44.508,47.755 -89.017,95.51 -133.525,143.266 -41.682,44.722 -83.363,89.444 -125.045,134.166 -26.953,28.92 -53.906,57.839 -80.859,86.758 -4.244,4.554 -8.488,9.107 -12.732,13.661 -9.219,9.892 5.599,24.775 14.85,14.85 14.456,-15.511 28.912,-31.021 43.368,-46.531 35.433,-38.019 70.866,-76.036 106.299,-114.054 44.508,-47.756 89.017,-95.511 133.524,-143.266 41.682,-44.723 83.363,-89.445 125.045,-134.167 26.953,-28.919 53.906,-57.838 80.859,-86.757 4.244,-4.554 8.488,-9.107 12.732,-13.661 6.155,-6.604 1.975,-17.925 -7.425,-17.925 -45.297,0 -90.595,0 -135.892,0 -39.646,0 -79.291,0 -118.937,0 3.022,5.267 6.044,10.533 9.066,15.8 15.155,-35.551 30.311,-71.103 45.466,-106.654 23.949,-56.182 47.899,-112.363 71.849,-168.545 5.229,-12.265 10.457,-24.53 15.686,-36.795 3.006,-7.05 -0.351,-15.799 -9.066,-15.799 -40.588,0 -81.176,0 -121.765,0 -57.656,0 -115.313,0 -172.97,0 -6.417,0 -12.835,0 -19.253,0 -4.382,0 -9.263,3.171 -10.125,7.708 -5.731,30.161 -11.462,60.321 -17.194,90.482 -11.828,62.245 -23.657,124.489 -35.485,186.734 -9.876,51.974 -19.752,103.947 -29.629,155.92 -1.693,8.907 -3.385,17.815 -5.078,26.723 -1.259,6.624 2.882,13.291 10.125,13.291 49.375,0 98.749,0 148.123,0 16.75,0 33.5,0 50.251,0 -3.022,-5.267 -6.044,-10.533 -9.066,-15.8 -13.537,29.871 -27.073,59.741 -40.61,89.611 -26.472,58.415 -52.945,116.83 -79.417,175.244 -18.202,40.165 -36.404,80.33 -54.606,120.496 -0.789,1.739 -1.577,3.479 -2.366,5.22 -2.363,5.214 -1.546,11.254 3.767,14.366 4.55,2.664 12.004,1.447 14.366,-3.767 z"
         id="path68"
         inkscape:connector-curvature="0" /></g></g><g
     display="none"
     id="g70"
     style="display:none"
     transform="translate(-287.08243,-679.47211)"><g
       display="inline"
       id="g72"
       style="display:inline"><path
         d="m 180.684,550.888 c 47.269,0 94.538,0 141.807,0 30.064,0 60.129,0 90.193,0 -3.5,-3.5 -7,-7 -10.5,-10.5 0,34.941 0,69.883 0,104.825 0,64.106 0,128.212 0,192.318 0,32.285 0,64.571 0,96.856 0,10.895 13.92,13.735 19.566,5.3 14.08,-21.036 28.161,-42.071 42.241,-63.106 32.395,-48.396 64.788,-96.793 97.183,-145.189 35.938,-53.691 71.878,-107.384 107.816,-161.075 24.715,-36.923 49.429,-73.845 74.143,-110.768 3.539,-5.287 7.078,-10.574 10.617,-15.861 4.514,-6.744 -1.477,-15.8 -9.066,-15.8 -47.269,0 -94.538,0 -141.807,0 -30.064,0 -60.129,0 -90.193,0 3.5,3.5 7,7 10.5,10.5 0,-34.941 0,-69.883 0,-104.825 0,-64.106 0,-128.213 0,-192.319 0,-32.286 0,-64.571 0,-96.856 0,-10.895 -13.92,-13.735 -19.566,-5.299 -14.08,21.035 -28.16,42.071 -42.24,63.106 -32.395,48.396 -64.789,96.793 -97.183,145.189 -35.939,53.692 -71.878,107.384 -107.817,161.076 -24.714,36.922 -49.428,73.845 -74.143,110.767 -3.539,5.287 -7.078,10.574 -10.617,15.861 -3.188,4.763 -0.943,11.607 3.767,14.366 5.165,3.025 11.189,0.979 14.366,-3.767 14.08,-21.036 28.161,-42.071 42.241,-63.106 32.394,-48.396 64.789,-96.793 97.183,-145.189 35.939,-53.692 71.878,-107.384 107.817,-161.076 24.714,-36.922 49.428,-73.845 74.142,-110.767 3.539,-5.287 7.078,-10.574 10.617,-15.862 -6.522,-1.766 -13.044,-3.533 -19.566,-5.299 0,34.941 0,69.883 0,104.825 0,64.106 0,128.213 0,192.319 0,32.286 0,64.571 0,96.856 0,5.724 4.776,10.5 10.5,10.5 47.269,0 94.538,0 141.807,0 30.064,0 60.129,0 90.193,0 -3.022,-5.267 -6.044,-10.533 -9.066,-15.8 -14.08,21.036 -28.16,42.071 -42.24,63.106 -32.395,48.396 -64.789,96.793 -97.183,145.189 -35.939,53.691 -71.878,107.384 -107.817,161.075 -24.714,36.923 -49.428,73.845 -74.143,110.768 -3.539,5.287 -7.078,10.574 -10.617,15.861 6.522,1.767 13.044,3.533 19.566,5.3 0,-34.941 0,-69.883 0,-104.825 0,-64.106 0,-128.212 0,-192.318 0,-32.285 0,-64.571 0,-96.856 0,-5.724 -4.776,-10.5 -10.5,-10.5 -47.269,0 -94.538,0 -141.807,0 -30.064,0 -60.129,0 -90.193,0 -13.543,0 -13.543,21 -0.001,21 z"
         id="path74"
         inkscape:connector-curvature="0" /></g></g><g
     display="none"
     id="g76"
     style="display:none"
     transform="translate(-287.08243,-679.47211)"><g
       display="inline"
       id="g78"
       style="display:inline"><path
         d="m 615.435,43.991 c -19.349,17.603 -38.697,35.205 -58.046,52.807 -43.864,39.905 -87.729,79.811 -131.594,119.717 -47.109,42.857 -94.218,85.713 -141.326,128.57 -29.081,26.456 -58.162,52.912 -87.242,79.368 -2.029,1.846 -4.058,3.692 -6.087,5.538 -21.862,19.889 -29.261,53.885 -21.603,81.727 9.912,36.034 43.642,61.67 81,61.67 33.071,0 66.143,0 99.214,0 64.195,0 128.39,0 192.585,0 42.789,0 85.578,0 128.368,0 1.376,0 2.752,0 4.128,0 -19.799,-47.799 -39.598,-95.598 -59.397,-143.397 -19.349,17.603 -38.697,35.205 -58.046,52.807 -43.864,39.905 -87.729,79.812 -131.594,119.717 -47.109,42.856 -94.218,85.714 -141.326,128.57 -29.081,26.456 -58.162,52.912 -87.242,79.368 -2.029,1.846 -4.058,3.691 -6.087,5.538 -16.041,14.593 -24.603,38.094 -24.603,59.396 0,22.189 8.921,43.715 24.603,59.396 15.682,15.683 37.208,24.604 59.397,24.604 23.071,0 42.632,-9.352 59.397,-24.604 19.349,-17.602 38.697,-35.204 58.046,-52.807 43.865,-39.905 87.729,-79.812 131.594,-119.717 47.109,-42.856 94.218,-85.714 141.326,-128.57 29.081,-26.456 58.161,-52.912 87.242,-79.368 2.029,-1.846 4.059,-3.691 6.088,-5.538 21.861,-19.889 29.261,-53.885 21.602,-81.727 -9.911,-36.034 -43.642,-61.669 -80.999,-61.669 -33.071,0 -66.143,0 -99.215,0 -64.194,0 -128.39,0 -192.584,0 -42.79,0 -85.579,0 -128.368,0 -1.376,0 -2.752,0 -4.128,0 19.799,47.799 39.598,95.598 59.397,143.396 19.349,-17.602 38.697,-35.204 58.046,-52.807 43.865,-39.905 87.729,-79.811 131.594,-119.717 47.109,-42.857 94.218,-85.713 141.326,-128.57 29.081,-26.456 58.161,-52.912 87.242,-79.368 2.029,-1.846 4.059,-3.692 6.088,-5.538 16.04,-14.593 24.603,-38.095 24.603,-59.397 0,-22.189 -8.921,-43.715 -24.603,-59.397 C 718.548,28.307 697.023,19.386 674.834,19.386 651.761,19.388 632.2,28.739 615.435,43.991 l 0,0 z"
         id="path80"
         inkscape:connector-curvature="0" /></g></g><g
     display="none"
     id="g82"
     style="display:none"
     transform="translate(-287.08243,-679.47211)"><g
       display="inline"
       id="g84"
       style="display:inline"><path
         d="m 635.234,63.79 c -19.349,17.603 -38.698,35.205 -58.047,52.807 -43.864,39.906 -87.729,79.812 -131.594,119.717 -47.109,42.857 -94.217,85.714 -141.326,128.57 -29.081,26.456 -58.161,52.912 -87.242,79.368 -2.029,1.846 -4.058,3.692 -6.087,5.538 -14.574,13.259 -19.507,35.924 -14.401,54.485 6.608,24.022 29.094,41.113 54,41.113 33.071,0 66.143,0 99.214,0 64.195,0 128.39,0 192.585,0 42.789,0 85.578,0 128.368,0 1.376,0 2.752,0 4.128,0 -13.199,-31.866 -26.398,-63.732 -39.598,-95.598 -19.349,17.603 -38.698,35.205 -58.047,52.807 -43.864,39.905 -87.729,79.812 -131.594,119.717 -47.109,42.857 -94.217,85.714 -141.326,128.57 -29.081,26.456 -58.161,52.912 -87.242,79.368 -2.029,1.846 -4.058,3.691 -6.087,5.538 -22.584,20.546 -20.812,58.384 0,79.195 10.455,10.455 24.805,16.402 39.598,16.402 15.381,0 28.421,-6.234 39.598,-16.402 19.349,-17.602 38.697,-35.204 58.046,-52.807 43.865,-39.905 87.729,-79.812 131.594,-119.717 47.108,-42.857 94.218,-85.714 141.326,-128.57 29.081,-26.456 58.161,-52.912 87.242,-79.368 2.029,-1.846 4.059,-3.691 6.087,-5.538 14.575,-13.259 19.508,-35.923 14.402,-54.485 -6.608,-24.022 -29.095,-41.113 -54,-41.113 -33.071,0 -66.143,0 -99.215,0 -64.194,0 -128.39,0 -192.584,0 -42.79,0 -85.579,0 -128.368,0 -1.376,0 -2.752,0 -4.128,0 13.199,31.866 26.398,63.732 39.598,95.598 19.349,-17.602 38.697,-35.204 58.046,-52.807 43.865,-39.906 87.729,-79.812 131.594,-119.717 47.108,-42.857 94.218,-85.714 141.326,-128.57 29.081,-26.456 58.161,-52.912 87.242,-79.368 2.029,-1.846 4.059,-3.692 6.087,-5.538 22.585,-20.546 20.813,-58.384 0,-79.196 -10.454,-10.455 -24.805,-16.402 -39.598,-16.402 -15.38,10e-4 -28.42,6.236 -39.597,16.403 l 0,0 z"
         id="path86"
         inkscape:connector-curvature="0" /></g></g><g
     display="none"
     id="g88"
     style="display:none"
     transform="translate(-287.08243,-679.47211)"><g
       display="inline"
       id="g90"
       style="display:inline"><path
         d="m 650.083,78.64 c -19.349,17.602 -38.697,35.205 -58.046,52.807 -43.864,39.906 -87.729,79.812 -131.594,119.717 -47.109,42.857 -94.217,85.714 -141.326,128.571 -29.081,26.456 -58.161,52.912 -87.242,79.368 -2.029,1.846 -4.059,3.692 -6.087,5.538 -9.109,8.287 -12.192,22.452 -9.001,34.053 4.13,15.014 18.184,25.695 33.75,25.695 33.071,0 66.143,0 99.214,0 64.195,0 128.39,0 192.585,0 42.789,0 85.578,0 128.368,0 1.376,0 2.752,0 4.128,0 -8.25,-19.916 -16.499,-39.833 -24.749,-59.749 -19.349,17.602 -38.697,35.205 -58.046,52.807 -43.864,39.905 -87.729,79.811 -131.594,119.717 -47.109,42.856 -94.217,85.713 -141.326,128.57 -29.081,26.456 -58.161,52.912 -87.242,79.367 -2.029,1.847 -4.059,3.692 -6.087,5.538 -14.116,12.842 -13.008,36.49 0,49.498 13.96,13.96 35.397,12.827 49.497,0 19.349,-17.603 38.698,-35.205 58.046,-52.808 43.865,-39.905 87.729,-79.811 131.594,-119.717 47.109,-42.856 94.218,-85.713 141.326,-128.57 29.081,-26.456 58.162,-52.912 87.242,-79.367 2.029,-1.847 4.059,-3.692 6.088,-5.538 9.108,-8.287 12.191,-22.452 9.001,-34.053 -4.13,-15.014 -18.185,-25.696 -33.75,-25.696 -33.071,0 -66.143,0 -99.215,0 -64.194,0 -128.39,0 -192.584,0 -42.79,0 -85.579,0 -128.368,0 -1.376,0 -2.752,0 -4.128,0 8.25,19.916 16.499,39.832 24.749,59.749 19.349,-17.603 38.698,-35.205 58.046,-52.807 43.865,-39.906 87.729,-79.812 131.594,-119.717 47.109,-42.857 94.218,-85.714 141.326,-128.571 29.081,-26.456 58.162,-52.912 87.242,-79.368 2.029,-1.846 4.059,-3.692 6.088,-5.538 14.115,-12.841 13.007,-36.49 0,-49.497 -13.962,-13.96 -35.398,-12.827 -49.499,0.001 l 0,0 z"
         id="path92"
         inkscape:connector-curvature="0" /></g></g><g
     display="none"
     id="g94"
     style="display:none"
     transform="translate(-287.08243,-679.47211)"><g
       display="inline"
       id="g96"
       style="display:inline"><path
         d="m 659.982,88.539 c -19.349,17.602 -38.697,35.205 -58.046,52.807 -43.864,39.905 -87.729,79.811 -131.594,119.717 -47.109,42.856 -94.218,85.713 -141.327,128.57 -29.081,26.456 -58.161,52.912 -87.242,79.368 -2.029,1.846 -4.059,3.692 -6.087,5.538 -13.814,12.567 -2.832,35.849 14.849,35.849 33.071,0 66.143,0 99.214,0 64.195,0 128.39,0 192.585,0 42.789,0 85.578,0 128.368,0 1.376,0 2.752,0 4.128,0 -4.95,-11.95 -9.899,-23.899 -14.85,-35.849 -19.349,17.602 -38.697,35.205 -58.046,52.807 -43.864,39.905 -87.729,79.811 -131.594,119.717 -47.109,42.856 -94.218,85.714 -141.327,128.57 -29.081,26.456 -58.161,52.912 -87.242,79.368 -2.029,1.846 -4.059,3.691 -6.087,5.537 -8.469,7.705 -7.805,21.895 0,29.699 8.376,8.376 21.238,7.696 29.698,0 19.349,-17.603 38.698,-35.205 58.046,-52.808 43.865,-39.905 87.729,-79.811 131.594,-119.717 47.109,-42.856 94.217,-85.714 141.326,-128.57 29.081,-26.456 58.162,-52.912 87.242,-79.368 2.029,-1.846 4.059,-3.691 6.088,-5.537 13.813,-12.567 2.831,-35.85 -14.85,-35.85 -33.071,0 -66.143,0 -99.215,0 -64.194,0 -128.39,0 -192.584,0 -42.79,0 -85.579,0 -128.368,0 -1.376,0 -2.752,0 -4.128,0 4.95,11.95 9.899,23.899 14.849,35.85 19.349,-17.603 38.698,-35.205 58.046,-52.808 43.865,-39.905 87.729,-79.811 131.594,-119.717 47.109,-42.856 94.217,-85.713 141.326,-128.57 29.081,-26.456 58.162,-52.912 87.242,-79.368 2.029,-1.846 4.059,-3.692 6.088,-5.538 8.469,-7.705 7.804,-21.894 0,-29.698 -8.373,-8.375 -21.236,-7.696 -29.696,0.001 l 0,0 z"
         id="path98"
         inkscape:connector-curvature="0" /></g></g><g
     display="none"
     id="g100"
     style="display:none"
     transform="translate(-287.08243,-679.47211)"><g
       display="inline"
       id="g102"
       style="display:inline"><path
         d="m 715.041,533.919 c -32.253,32.253 -64.506,64.507 -96.759,96.761 -8.003,8.003 -16.491,15.482 -25.415,22.443 3.778,-2.919 7.556,-5.838 11.334,-8.757 -17.972,13.862 -37.574,25.376 -58.442,34.303 4.459,-1.882 8.919,-3.763 13.378,-5.645 -21.708,9.15 -44.478,15.396 -67.811,18.635 4.962,-0.667 9.925,-1.334 14.887,-2 -23.645,3.158 -47.559,3.197 -71.214,0.12 4.962,0.667 9.925,1.334 14.887,2.001 -23.346,-3.159 -46.141,-9.321 -67.888,-18.384 4.459,1.881 8.918,3.763 13.377,5.645 -21.344,-9.027 -41.383,-20.747 -59.728,-34.908 3.778,2.919 7.556,5.838 11.333,8.757 -17.682,-13.804 -33.579,-29.7 -47.382,-47.383 2.919,3.778 5.838,7.557 8.756,11.334 -14.16,-18.344 -25.881,-38.384 -34.908,-59.728 1.882,4.459 3.764,8.919 5.645,13.378 -9.063,-21.747 -15.225,-44.542 -18.384,-67.889 0.667,4.962 1.333,9.925 2,14.887 -3.077,-23.655 -3.038,-47.569 0.121,-71.214 -0.667,4.962 -1.333,9.925 -2,14.887 3.239,-23.333 9.484,-46.103 18.635,-67.811 -1.882,4.459 -3.764,8.918 -5.645,13.377 8.927,-20.868 20.441,-40.47 34.303,-58.442 -2.919,3.778 -5.838,7.556 -8.756,11.333 15.71,-20.141 34.7,-37.67 52.728,-55.698 20.417,-20.417 40.833,-40.833 61.249,-61.249 1.742,-1.742 3.484,-3.484 5.226,-5.226 -26.399,0 -52.797,0 -79.196,0 19.699,19.699 39.398,39.397 59.097,59.096 43.266,43.266 86.532,86.532 129.798,129.798 43.088,43.088 86.176,86.176 129.264,129.264 19.17,19.17 38.34,38.339 57.51,57.509 21.574,21.575 57.621,21.575 79.195,0 21.575,-21.574 21.575,-57.621 0,-79.195 C 774.538,514.219 754.839,494.521 735.14,474.821 691.873,431.555 648.608,388.289 605.341,345.023 562.253,301.935 519.165,258.847 476.077,215.76 c -19.17,-19.17 -38.34,-38.34 -57.509,-57.51 -21.575,-21.575 -57.621,-21.575 -79.196,0 -32.253,32.253 -64.506,64.506 -96.759,96.759 -37.809,37.809 -65.579,84.857 -81.043,135.99 -15.962,52.778 -16.616,109.393 -5.065,163.07 11.741,54.562 39.793,104.961 76.975,146.211 37.677,41.8 87.544,72.134 140.914,89.276 52.601,16.896 109.089,18.001 162.992,7.365 54.76,-10.805 105.169,-38.303 146.985,-74.757 17.865,-15.575 34.105,-33.29 50.846,-50.031 18.977,-18.976 37.952,-37.952 56.929,-56.929 0.697,-0.697 1.395,-1.395 2.092,-2.093 21.575,-21.575 21.575,-57.62 0,-79.195 -21.576,-21.572 -57.623,-21.572 -79.197,0.003 z"
         id="path104"
         inkscape:connector-curvature="0" /></g></g><g
     display="none"
     id="g106"
     style="display:none"
     transform="translate(-287.08243,-679.47211)"><g
       display="inline"
       id="g108"
       style="display:inline"><path
         d="m 502.699,321.577 c 30.477,-30.477 60.953,-60.953 91.429,-91.429 35.316,-35.316 70.632,-70.632 105.948,-105.948 0.567,-0.567 1.134,-1.135 1.701,-1.702 21.575,-21.575 21.575,-57.621 0,-79.196 -21.574,-21.575 -57.621,-21.575 -79.195,0 -30.477,30.477 -60.953,60.953 -91.429,91.429 -35.316,35.316 -70.632,70.632 -105.948,105.948 -0.567,0.567 -1.134,1.135 -1.702,1.702 -21.575,21.575 -21.575,57.621 0,79.196 21.576,21.575 57.622,21.575 79.196,0 l 0,0 z"
         id="path110"
         inkscape:connector-curvature="0" /></g></g><g
     display="none"
     id="g112"
     style="display:none"
     transform="translate(-287.08243,-679.47211)"><g
       display="inline"
       id="g114"
       style="display:inline"><path
         d="m 829.991,250.71 c -30.477,30.477 -60.953,60.953 -91.43,91.43 -35.315,35.316 -70.632,70.632 -105.948,105.948 -0.567,0.567 -1.134,1.135 -1.701,1.702 -21.575,21.575 -21.575,57.622 0,79.196 21.574,21.575 57.621,21.575 79.195,0 30.477,-30.477 60.953,-60.953 91.43,-91.429 35.315,-35.316 70.632,-70.632 105.948,-105.948 0.567,-0.567 1.135,-1.135 1.701,-1.702 21.575,-21.575 21.575,-57.621 0,-79.196 -21.574,-21.575 -57.621,-21.575 -79.195,-0.001 l 0,0 z"
         id="path116"
         inkscape:connector-curvature="0" /></g></g><g
     display="none"
     id="g118"
     style="display:none"
     transform="translate(-287.08243,-679.47211)"><g
       display="inline"
       id="g120"
       style="display:inline"><path
         d="m 95.377,935.474 c 28.399,-28.399 56.798,-56.799 85.198,-85.197 41.38,-41.381 82.76,-82.762 124.141,-124.142 5.465,-5.465 10.93,-10.93 16.395,-16.396 21.575,-21.574 21.575,-57.621 0,-79.195 -21.575,-21.575 -57.621,-21.575 -79.196,0 -28.399,28.399 -56.798,56.799 -85.198,85.197 -41.38,41.381 -82.76,82.762 -124.141,124.142 -5.465,5.465 -10.93,10.93 -16.395,16.396 -21.575,21.574 -21.575,57.621 0,79.195 21.575,21.575 57.621,21.575 79.196,0 l 0,0 z"
         id="path122"
         inkscape:connector-curvature="0" /></g></g><g
     display="none"
     id="g124"
     style="display:none"
     transform="translate(-287.08243,-679.47211)"><g
       display="inline"
       id="g126"
       style="display:inline"><path
         d="m 729.92,548.767 c -32.253,32.254 -64.506,64.508 -96.759,96.761 -8.003,8.004 -16.49,15.483 -25.414,22.443 2.361,-1.824 4.723,-3.648 7.084,-5.473 -17.973,13.862 -37.574,25.376 -58.442,34.303 2.787,-1.176 5.574,-2.352 8.36,-3.528 -21.707,9.151 -44.478,15.396 -67.81,18.636 3.102,-0.417 6.202,-0.834 9.304,-1.25 -23.645,3.158 -47.558,3.197 -71.213,0.12 3.102,0.417 6.203,0.834 9.304,1.25 -23.346,-3.158 -46.141,-9.32 -67.888,-18.384 2.787,1.177 5.574,2.353 8.361,3.528 -21.344,-9.027 -41.383,-20.747 -59.728,-34.908 2.361,1.824 4.722,3.648 7.083,5.473 -17.682,-13.803 -33.579,-29.7 -47.382,-47.382 1.824,2.361 3.648,4.723 5.473,7.084 -14.161,-18.344 -25.881,-38.384 -34.908,-59.728 1.176,2.787 2.352,5.574 3.528,8.361 -9.063,-21.747 -15.225,-44.542 -18.384,-67.888 0.417,3.101 0.833,6.202 1.25,9.304 -3.077,-23.654 -3.038,-47.569 0.121,-71.213 -0.417,3.101 -0.833,6.203 -1.25,9.304 3.24,-23.333 9.484,-46.103 18.635,-67.811 -1.176,2.787 -2.352,5.574 -3.528,8.361 8.928,-20.868 20.441,-40.47 34.304,-58.442 -1.824,2.361 -3.648,4.722 -5.473,7.083 15.711,-20.141 34.7,-37.67 52.729,-55.698 20.416,-20.417 40.833,-40.833 61.249,-61.249 1.742,-1.742 3.484,-3.484 5.226,-5.226 -16.499,0 -32.998,0 -49.497,0 19.699,19.699 39.397,39.397 59.096,59.096 43.266,43.266 86.532,86.532 129.798,129.797 43.088,43.088 86.176,86.176 129.264,129.263 19.17,19.17 38.339,38.34 57.509,57.51 13.484,13.484 36.014,13.484 49.498,0 13.484,-13.484 13.484,-36.014 0,-49.498 C 759.721,529.068 740.023,509.369 720.323,489.67 677.057,446.404 633.791,403.138 590.525,359.873 547.437,316.786 504.349,273.698 461.261,230.61 c -19.17,-19.169 -38.34,-38.339 -57.51,-57.509 -13.484,-13.484 -36.013,-13.484 -49.497,0 -32.253,32.253 -64.506,64.506 -96.76,96.759 -35.254,35.254 -61.219,79.032 -75.643,126.724 -14.86,49.134 -15.829,101.883 -5.064,151.904 10.982,51.037 36.751,98.312 71.574,136.944 35.282,39.142 81.621,67.806 131.647,83.875 48.941,15.72 101.6,17.275 151.826,7.365 51.185,-10.099 98.569,-35.227 137.719,-69.356 17.865,-15.574 34.105,-33.289 50.847,-50.03 18.976,-18.977 37.952,-37.953 56.928,-56.93 0.697,-0.697 1.395,-1.395 2.093,-2.092 13.484,-13.484 13.484,-36.014 0,-49.498 -13.484,-13.484 -36.017,-13.483 -49.501,0.001 z"
         id="path128"
         inkscape:connector-curvature="0" /></g></g><g
     display="none"
     id="g130"
     style="display:none"
     transform="translate(-287.08243,-679.47211)"><g
       display="inline"
       id="g132"
       style="display:inline"><path
         d="m 487.881,306.728 c 30.476,-30.476 60.952,-60.953 91.429,-91.429 35.315,-35.316 70.632,-70.632 105.947,-105.948 0.567,-0.567 1.135,-1.135 1.702,-1.702 13.484,-13.484 13.484,-36.013 0,-49.497 -13.484,-13.484 -36.014,-13.484 -49.498,0 -30.476,30.476 -60.952,60.953 -91.429,91.429 -35.315,35.316 -70.632,70.632 -105.947,105.948 -0.567,0.567 -1.135,1.135 -1.702,1.702 -13.484,13.484 -13.484,36.013 0,49.497 13.484,13.484 36.013,13.484 49.498,0 l 0,0 z"
         id="path134"
         inkscape:connector-curvature="0" /></g></g><g
     display="none"
     id="g136"
     style="display:none"
     transform="translate(-287.08243,-679.47211)"><g
       display="inline"
       id="g138"
       style="display:inline"><path
         d="m 844.87,265.561 c -30.477,30.476 -60.952,60.953 -91.429,91.429 -35.316,35.316 -70.632,70.632 -105.948,105.949 -0.567,0.567 -1.135,1.134 -1.702,1.702 -13.484,13.484 -13.484,36.013 0,49.498 13.484,13.485 36.014,13.484 49.498,0 30.476,-30.477 60.952,-60.953 91.429,-91.429 35.316,-35.316 70.632,-70.632 105.948,-105.949 0.567,-0.567 1.135,-1.134 1.702,-1.702 13.484,-13.484 13.484,-36.013 0,-49.497 -13.484,-13.484 -36.014,-13.486 -49.498,-0.001 l 0,0 z"
         id="path140"
         inkscape:connector-curvature="0" /></g></g><g
     display="none"
     id="g142"
     style="display:none"
     transform="translate(-287.08243,-679.47211)"><g
       display="inline"
       id="g144"
       style="display:inline"><path
         d="m 80.559,920.625 c 28.399,-28.399 56.799,-56.799 85.198,-85.198 41.38,-41.381 82.761,-82.761 124.141,-124.142 5.465,-5.465 10.93,-10.93 16.395,-16.395 13.484,-13.484 13.484,-36.014 0,-49.498 -13.484,-13.484 -36.013,-13.484 -49.497,0 -28.399,28.399 -56.799,56.799 -85.198,85.198 -41.38,41.381 -82.761,82.761 -124.141,124.142 -5.465,5.465 -10.93,10.93 -16.395,16.395 -13.484,13.484 -13.484,36.014 0,49.498 13.484,13.484 36.013,13.484 49.497,0 l 0,0 z"
         id="path146"
         inkscape:connector-curvature="0" /></g></g><g
     display="none"
     id="g148"
     style="display:none"
     transform="translate(-287.08243,-679.47211)"><g
       display="inline"
       id="g150"
       style="display:inline"><path
         d="m 443.79,418.167 c -29.61,21 -59.22,42 -88.83,62.999 -10.321,7.32 -17.335,17.037 -17.335,30.222 0,14.781 10.584,30.647 25.696,33.75 32.473,6.666 64.945,13.333 97.418,20 -2.787,-21.324 -5.574,-42.647 -8.361,-63.972 -29.61,21 -59.22,42 -88.83,62.999 -7.694,5.457 -13.506,11.541 -16.085,20.917 -2.485,9.034 -1.207,18.887 3.528,26.97 9.004,15.37 32.296,23.613 47.887,12.557 29.61,-21 59.22,-42 88.83,-62.999 10.321,-7.32 17.335,-17.037 17.335,-30.222 0,-14.781 -10.584,-30.647 -25.695,-33.75 -32.473,-6.666 -64.946,-13.333 -97.418,-20 2.787,21.324 5.574,42.647 8.361,63.972 29.61,-21 59.22,-42 88.83,-62.999 7.694,-5.457 13.506,-11.542 16.085,-20.917 2.484,-9.034 1.207,-18.886 -3.528,-26.969 -9.005,-15.371 -32.297,-23.615 -47.888,-12.558 l 0,0 z"
         id="path152"
         inkscape:connector-curvature="0" /></g></g><g
     display="none"
     id="g154"
     style="display:none"
     transform="translate(-287.08243,-679.47211)"><g
       display="inline"
       id="g156"
       style="display:inline"><path
         d="m 739.819,558.667 c -32.253,32.254 -64.506,64.508 -96.759,96.762 -6.638,6.638 -13.61,12.916 -20.885,18.85 -1.121,0.914 -2.256,1.811 -3.392,2.706 4.479,-3.533 0.547,-0.433 -0.323,0.224 -2.291,1.728 -4.623,3.398 -6.969,5.051 -5.043,3.551 -10.237,6.883 -15.517,10.07 -10.025,6.053 -20.498,11.351 -31.238,16.013 5.89,-2.557 -2.55,1.006 -4.01,1.576 -2.589,1.012 -5.201,1.962 -7.82,2.891 -5.656,2.007 -11.396,3.775 -17.175,5.393 -11.063,3.095 -22.343,5.381 -33.71,7.019 6.839,-0.985 -2.326,0.249 -3.967,0.426 -2.731,0.293 -5.47,0.523 -8.209,0.732 -5.934,0.453 -11.883,0.662 -17.832,0.718 -11.447,0.107 -22.894,-0.609 -34.257,-1.969 -4.888,-0.584 5.005,0.712 0.13,0.026 -1.363,-0.191 -2.722,-0.403 -4.081,-0.616 -2.721,-0.426 -5.431,-0.914 -8.137,-1.423 -5.875,-1.106 -11.702,-2.455 -17.489,-3.954 -11.192,-2.899 -22.164,-6.615 -32.879,-10.948 -4.563,-1.846 4.398,1.899 -0.128,-0.043 -1.284,-0.552 -2.559,-1.123 -3.834,-1.694 -2.556,-1.146 -5.084,-2.352 -7.603,-3.578 -5.487,-2.671 -10.857,-5.576 -16.145,-8.621 -4.922,-2.835 -9.729,-5.867 -14.458,-9.013 -2.381,-1.585 -4.724,-3.227 -7.053,-4.887 -1.168,-0.834 -2.324,-1.687 -3.479,-2.539 -0.943,-0.695 -6.202,-4.776 -1.476,-1.087 -9.613,-7.505 -18.64,-15.744 -27.143,-24.481 -4.085,-4.197 -7.998,-8.561 -11.799,-13.016 -1.882,-2.207 -3.71,-4.459 -5.52,-6.725 -3.14,-3.934 2.792,3.684 -0.255,-0.31 -1.163,-1.523 -2.297,-3.068 -3.427,-4.617 -6.979,-9.567 -13.234,-19.652 -18.866,-30.066 -2.671,-4.938 -5.144,-9.982 -7.494,-15.081 -0.655,-1.422 -4.258,-9.877 -1.786,-3.946 -1.25,-2.999 -2.42,-6.03 -3.558,-9.072 -4.043,-10.808 -7.291,-21.903 -9.893,-33.142 -1.243,-5.37 -2.277,-10.786 -3.185,-16.223 -0.271,-1.624 -1.531,-10.801 -0.639,-3.945 -0.414,-3.181 -0.746,-6.371 -1.044,-9.563 -1.066,-11.395 -1.312,-22.858 -0.911,-34.293 0.192,-5.49 0.597,-10.972 1.127,-16.439 0.266,-2.736 0.595,-5.465 0.944,-8.192 -0.807,6.286 -0.17,1.412 0.021,0.136 0.271,-1.814 0.575,-3.624 0.883,-5.433 1.934,-11.339 4.69,-22.529 8.077,-33.519 1.635,-5.305 3.478,-10.543 5.443,-15.733 0.986,-2.604 2.034,-5.186 3.102,-7.757 -2.287,5.506 -0.382,0.968 0.092,-0.11 0.751,-1.707 1.535,-3.398 2.322,-5.088 4.966,-10.655 10.729,-20.928 17.072,-30.821 3.087,-4.814 6.369,-9.5 9.762,-14.103 0.854,-1.159 1.727,-2.303 2.599,-3.447 -3.464,4.542 -0.397,0.556 0.281,-0.294 2.113,-2.649 4.298,-5.239 6.51,-7.805 4.449,-5.159 9.141,-10.099 13.957,-14.915 32.018,-32.017 64.035,-64.034 96.052,-96.052 -9.899,0 -19.799,0 -29.698,0 19.699,19.699 39.397,39.397 59.096,59.096 43.266,43.266 86.532,86.532 129.798,129.798 43.088,43.088 86.176,86.176 129.264,129.264 19.17,19.17 38.339,38.34 57.509,57.51 8.091,8.09 21.608,8.09 29.699,0 8.09,-8.091 8.09,-21.608 0,-29.699 -19.699,-19.698 -39.397,-39.397 -59.097,-59.096 -43.266,-43.266 -86.532,-86.532 -129.798,-129.798 -43.088,-43.088 -86.176,-86.176 -129.264,-129.264 -19.17,-19.17 -38.34,-38.34 -57.51,-57.509 -8.09,-8.091 -21.608,-8.091 -29.698,0 -32.253,32.253 -64.506,64.506 -96.76,96.759 -33.555,33.555 -58.311,75.144 -72.042,120.546 -14.127,46.712 -15.306,96.87 -5.065,144.461 21.319,99.07 97.48,180.218 193.443,211.042 46.508,14.938 96.602,16.793 144.382,7.365 48.803,-9.629 94.168,-33.175 131.541,-65.756 17.865,-15.574 34.105,-33.289 50.847,-50.03 18.976,-18.977 37.952,-37.953 56.928,-56.93 0.697,-0.697 1.395,-1.395 2.093,-2.092 8.09,-8.091 8.09,-21.608 0,-29.699 -8.088,-8.09 -21.606,-8.09 -29.697,-10e-4 z"
         id="path158"
         inkscape:connector-curvature="0" /></g></g><g
     display="none"
     id="g160"
     style="display:none"
     transform="translate(-287.08243,-679.47211)"><g
       display="inline"
       id="g162"
       style="display:inline"><path
         d="m 477.981,296.828 c 30.476,-30.476 60.952,-60.953 91.429,-91.429 35.315,-35.316 70.632,-70.632 105.947,-105.948 0.567,-0.567 1.135,-1.134 1.702,-1.702 8.09,-8.09 8.09,-21.608 0,-29.698 -8.091,-8.091 -21.608,-8.091 -29.699,0 -30.476,30.476 -60.952,60.953 -91.429,91.429 -35.315,35.316 -70.632,70.632 -105.947,105.948 -0.567,0.567 -1.135,1.134 -1.702,1.702 -8.091,8.09 -8.091,21.608 0,29.698 8.091,8.091 21.609,8.091 29.699,0 l 0,0 z"
         id="path164"
         inkscape:connector-curvature="0" /></g></g><g
     display="none"
     id="g166"
     style="display:none"
     transform="translate(-287.08243,-679.47211)"><g
       display="inline"
       id="g168"
       style="display:inline"><path
         d="m 854.77,275.459 c -30.476,30.477 -60.952,60.953 -91.429,91.429 -35.316,35.316 -70.632,70.632 -105.948,105.949 -0.567,0.567 -1.135,1.134 -1.702,1.702 -8.09,8.09 -8.09,21.608 0,29.699 8.091,8.09 21.608,8.09 29.699,0 30.476,-30.477 60.952,-60.953 91.429,-91.43 35.316,-35.316 70.632,-70.632 105.948,-105.949 0.567,-0.567 1.135,-1.134 1.702,-1.702 8.09,-8.09 8.09,-21.608 0,-29.698 -8.091,-8.09 -21.609,-8.09 -29.699,0 l 0,0 z"
         id="path170"
         inkscape:connector-curvature="0" /></g></g><g
     display="none"
     id="g172"
     style="display:none"
     transform="translate(-287.08243,-679.47211)"><g
       display="inline"
       id="g174"
       style="display:inline"><path
         d="m 70.659,910.726 c 28.399,-28.399 56.799,-56.799 85.198,-85.198 41.38,-41.381 82.76,-82.761 124.141,-124.142 5.465,-5.465 10.93,-10.93 16.395,-16.395 8.091,-8.091 8.091,-21.608 0,-29.699 -8.09,-8.09 -21.608,-8.09 -29.698,0 -28.399,28.399 -56.799,56.799 -85.198,85.198 -41.38,41.381 -82.76,82.761 -124.141,124.142 -5.465,5.465 -10.93,10.93 -16.395,16.395 -8.091,8.091 -8.091,21.608 0,29.699 8.09,8.09 21.608,8.09 29.698,0 l 0,0 z"
         id="path176"
         inkscape:connector-curvature="0" /></g></g><g
     display="none"
     id="g178"
     style="display:none"
     transform="translate(-287.08243,-679.47211)"><g
       display="inline"
       id="g180"
       style="display:inline"><path
         d="m 455.202,430.258 c -31.145,28.333 -62.289,56.667 -93.434,85 -13.814,12.567 -2.832,35.85 14.849,35.85 31.145,0 62.289,0 93.434,0 -4.95,-11.95 -9.899,-23.899 -14.849,-35.85 -31.145,28.334 -62.289,56.667 -93.434,85 -8.469,7.705 -7.805,21.895 0,29.699 8.376,8.376 21.238,7.696 29.698,0 31.145,-28.334 62.289,-56.667 93.434,-85 13.813,-12.567 2.831,-35.85 -14.85,-35.85 -31.145,0 -62.289,0 -93.434,0 4.95,11.95 9.899,23.899 14.849,35.85 31.145,-28.334 62.289,-56.667 93.434,-85.001 8.469,-7.705 7.804,-21.894 0,-29.698 -8.376,-8.376 -21.238,-7.696 -29.697,0 l 0,0 z"
         id="path182"
         inkscape:connector-curvature="0" /></g></g><g
     display="none"
     id="g184"
     style="display:none"
     transform="translate(-287.08243,-679.47211)"><g
       display="inline"
       id="g186"
       style="display:inline"><path
         d="m 747.213,566.092 c -32.253,32.254 -64.506,64.508 -96.759,96.761 -63.86,63.861 -158.055,88.979 -245.095,66.433 -45.237,-11.718 -86.292,-36.152 -118.831,-69.592 -32.442,-33.339 -54.823,-75.362 -65.298,-120.608 -10.148,-43.838 -7.977,-90.058 5.272,-133.053 12.214,-39.636 34.575,-75.441 63.84,-104.706 32.018,-32.018 64.036,-64.035 96.053,-96.052 -4.95,0 -9.9,0 -14.85,0 19.699,19.699 39.397,39.397 59.096,59.096 43.266,43.266 86.532,86.532 129.798,129.798 43.088,43.088 86.176,86.175 129.264,129.263 19.17,19.17 38.339,38.34 57.509,57.51 9.584,9.583 24.433,-5.266 14.85,-14.85 C 742.363,546.394 722.665,526.695 702.965,506.996 659.699,463.73 616.434,420.464 573.168,377.198 530.08,334.11 486.992,291.023 443.904,247.935 c -19.17,-19.17 -38.34,-38.34 -57.509,-57.51 -4.045,-4.045 -10.804,-4.045 -14.85,0 -32.253,32.253 -64.506,64.506 -96.76,96.759 -66.386,66.385 -94.116,163.2 -74.407,254.792 20.545,95.474 93.492,173.959 186.109,203.708 91.446,29.373 193.577,7.192 265.707,-55.69 17.865,-15.574 34.105,-33.289 50.847,-50.03 18.976,-18.977 37.952,-37.953 56.928,-56.93 0.697,-0.697 1.396,-1.395 2.093,-2.092 9.584,-9.584 -5.265,-24.434 -14.849,-14.85 z"
         id="path188"
         inkscape:connector-curvature="0" /></g></g><g
     display="none"
     id="g190"
     style="display:none"
     transform="translate(-287.08243,-679.47211)"><g
       display="inline"
       id="g192"
       style="display:inline"><path
         d="m 470.525,289.404 c 30.476,-30.477 60.952,-60.953 91.429,-91.429 35.315,-35.316 70.632,-70.632 105.947,-105.948 0.567,-0.567 1.135,-1.135 1.702,-1.702 9.583,-9.584 -5.266,-24.433 -14.85,-14.85 -30.476,30.477 -60.952,60.953 -91.429,91.429 -35.315,35.316 -70.632,70.632 -105.947,105.948 -0.567,0.567 -1.135,1.135 -1.702,1.702 -9.583,9.584 5.266,24.433 14.85,14.85 l 0,0 z"
         id="path194"
         inkscape:connector-curvature="0" /></g></g><g
     display="none"
     id="g196"
     style="display:none"
     transform="translate(-287.08243,-679.47211)"><g
       display="inline"
       id="g198"
       style="display:inline"><path
         d="m 862.163,282.884 c -30.477,30.477 -60.952,60.953 -91.429,91.43 -35.316,35.316 -70.633,70.632 -105.948,105.948 -0.567,0.567 -1.135,1.135 -1.702,1.702 -9.583,9.584 5.266,24.434 14.85,14.85 30.477,-30.477 60.952,-60.953 91.429,-91.43 35.316,-35.316 70.633,-70.632 105.948,-105.948 0.567,-0.567 1.135,-1.135 1.702,-1.702 9.584,-9.585 -5.266,-24.434 -14.85,-14.85 l 0,0 z"
         id="path200"
         inkscape:connector-curvature="0" /></g></g><g
     display="none"
     id="g202"
     style="display:none"
     transform="translate(-287.08243,-679.47211)"><g
       display="inline"
       id="g204"
       style="display:inline"><path
         d="m 63.205,903.301 c 28.399,-28.399 56.798,-56.799 85.198,-85.198 41.38,-41.381 82.76,-82.761 124.14,-124.142 5.465,-5.465 10.93,-10.93 16.396,-16.395 9.583,-9.584 -5.266,-24.434 -14.85,-14.85 -28.399,28.399 -56.798,56.799 -85.198,85.198 -41.38,41.381 -82.76,82.761 -124.14,124.142 -5.465,5.465 -10.93,10.93 -16.396,16.395 -9.584,9.585 5.266,24.434 14.85,14.85 l 0,0 z"
         id="path206"
         inkscape:connector-curvature="0" /></g></g><g
     display="none"
     id="g208"
     style="display:none"
     transform="translate(-287.08243,-679.47211)"><g
       display="inline"
       id="g210"
       style="display:inline"><path
         d="m 471.976,426.963 c -31.144,28.333 -62.289,56.667 -93.433,85 -6.907,6.283 -1.416,17.925 7.425,17.925 31.145,0 62.289,0 93.433,0 -2.475,-5.975 -4.95,-11.95 -7.425,-17.925 -31.144,28.333 -62.289,56.667 -93.433,85 -10.037,9.132 4.858,23.939 14.85,14.85 31.144,-28.333 62.289,-56.667 93.433,-85 6.906,-6.283 1.415,-17.925 -7.425,-17.925 -31.145,0 -62.289,0 -93.433,0 2.475,5.975 4.95,11.95 7.425,17.925 31.144,-28.334 62.289,-56.667 93.433,-85 10.036,-9.132 -4.859,-23.939 -14.85,-14.85 l 0,0 z"
         id="path212"
         inkscape:connector-curvature="0" /></g></g></svg>