<?xml version="1.0" encoding="UTF-8" standalone="no"?>
<svg
   xmlns:dc="http://purl.org/dc/elements/1.1/"
   xmlns:cc="http://creativecommons.org/ns#"
   xmlns:rdf="http://www.w3.org/1999/02/22-rdf-syntax-ns#"
   xmlns:svg="http://www.w3.org/2000/svg"
   xmlns="http://www.w3.org/2000/svg"
   xmlns:sodipodi="http://sodipodi.sourceforge.net/DTD/sodipodi-0.dtd"
   xmlns:inkscape="http://www.inkscape.org/namespaces/inkscape"
   version="1.1"
   x="0px"
   y="0px"
   viewBox="0 0 325.37192 292.68869"
   enable-background="new 0 0 100 100"
   xml:space="preserve"
   id="svg2"
   inkscape:version="0.48.4 r9939"
   width="100%"
   height="100%"
   sodipodi:docname="logo_kelautan.svg"><metadata
     id="metadata14"><rdf:RDF><cc:Work
         rdf:about=""><dc:format>image/svg+xml</dc:format><dc:type
           rdf:resource="http://purl.org/dc/dcmitype/StillImage" /><dc:title></dc:title></cc:Work></rdf:RDF></metadata><defs
     id="defs12" /><sodipodi:namedview
     pagecolor="#ffffff"
     bordercolor="#666666"
     borderopacity="1"
     objecttolerance="10"
     gridtolerance="10"
     guidetolerance="10"
     inkscape:pageopacity="0"
     inkscape:pageshadow="2"
     inkscape:window-width="1327"
     inkscape:window-height="744"
     id="namedview10"
     showgrid="false"
     fit-margin-top="0"
     fit-margin-left="0"
     fit-margin-right="0"
     fit-margin-bottom="0"
     inkscape:zoom="0.6675088"
     inkscape:cx="169.75287"
     inkscape:cy="141.72483"
     inkscape:window-x="39"
     inkscape:window-y="24"
     inkscape:window-maximized="1"
     inkscape:current-layer="svg2" /><path
     d="m 321.99829,194.45062 -28.67295,-28.67296 c -2.1613,-2.16129 -5.09318,-3.3722 -8.14614,-3.3722 -3.05664,0 -5.98485,1.21458 -8.14615,3.3722 l -28.67295,28.67296 c -4.49872,4.49872 -4.49872,11.79356 0,16.29228 4.49873,4.49873 11.79356,4.49873 16.29229,0 l 8.54978,-8.54978 c -10.72576,31.6929 -49.62175,62.70695 -98.99398,66.95982 V 91.508328 C 194.28733,86.363788 209.19257,68.167069 209.19257,46.506399 209.19257,20.864398 188.33184,0 162.68617,0 c -25.642,0 -46.5064,20.864398 -46.5064,46.506399 0,21.66067 14.90524,39.857389 34.98438,45.001929 V 269.14927 C 101.79192,264.8964 62.892252,233.88235 52.170168,202.18945 l 8.54978,8.54978 c 2.249363,2.24937 5.199587,3.37221 8.146142,3.37221 2.950226,0 5.89678,-1.12651 8.146142,-3.37221 4.498726,-4.49872 4.498726,-11.79356 0,-16.29228 L 48.339279,165.774 c -2.161295,-2.1613 -5.089504,-3.37221 -8.146142,-3.37221 -3.056638,0 -5.984844,1.21458 -8.146141,3.37221 L 3.3740445,194.45062 c -4.498726,4.49872 -4.498726,11.79356 0,16.29228 4.498725,4.49873 11.7935585,4.49873 16.2922835,0 l 8.513086,-8.51675 c 4.861999,20.9598 18.431562,41.33617 38.914341,57.70551 26.434601,21.12493 60.384195,32.75703 95.588745,32.75703 35.20821,0 69.15414,-11.6321 95.58874,-32.75703 20.48278,-16.36934 34.05234,-36.74204 38.91434,-57.70551 l 8.51676,8.51675 c 2.24936,2.24936 5.19591,3.37221 8.14614,3.37221 2.94655,0 5.89678,-1.12651 8.14614,-3.37221 4.5024,-4.49872 4.5024,-11.79356 0.004,-16.29228 z M 139.22014,46.506399 c 0,-12.938422 10.52761,-23.466027 23.46603,-23.466027 12.93842,0 23.46603,10.527605 23.46603,23.466027 0,12.93842 -10.52761,23.46603 -23.46603,23.46603 -12.93842,0 -23.46603,-10.52761 -23.46603,-23.46603 z"
     id="path4"
     inkscape:connector-curvature="0"
     style="fill:#034a73;fill-opacity:1" /></svg>