<?xml version="1.0" encoding="UTF-8" standalone="no"?>
<svg
   xmlns:dc="http://purl.org/dc/elements/1.1/"
   xmlns:cc="http://creativecommons.org/ns#"
   xmlns:rdf="http://www.w3.org/1999/02/22-rdf-syntax-ns#"
   xmlns:svg="http://www.w3.org/2000/svg"
   xmlns="http://www.w3.org/2000/svg"
   xmlns:sodipodi="http://sodipodi.sourceforge.net/DTD/sodipodi-0.dtd"
   xmlns:inkscape="http://www.inkscape.org/namespaces/inkscape"
   version="1.1"
   x="0px"
   y="0px"
   viewBox="0 0 285.65588 195.07452"
   enable-background="new 0 0 100 100"
   xml:space="preserve"
   id="svg2"
   inkscape:version="0.48.4 r9939"
   sodipodi:docname="logo_keuangan.svg"
   width="285.65588"
   height="195.07452"><metadata
     id="metadata14"><rdf:RDF><cc:Work
         rdf:about=""><dc:format>image/svg+xml</dc:format><dc:type
           rdf:resource="http://purl.org/dc/dcmitype/StillImage" /><dc:title></dc:title></cc:Work></rdf:RDF></metadata><defs
     id="defs12" /><sodipodi:namedview
     pagecolor="#ffffff"
     bordercolor="#666666"
     borderopacity="1"
     objecttolerance="10"
     gridtolerance="10"
     guidetolerance="10"
     inkscape:pageopacity="0"
     inkscape:pageshadow="2"
     inkscape:window-width="1327"
     inkscape:window-height="744"
     id="namedview10"
     showgrid="false"
     fit-margin-top="0"
     fit-margin-left="0"
     fit-margin-right="0"
     fit-margin-bottom="0"
     inkscape:zoom="1.3350176"
     inkscape:cx="109.44107"
     inkscape:cy="63.30139"
     inkscape:window-x="39"
     inkscape:window-y="24"
     inkscape:window-maximized="1"
     inkscape:current-layer="svg2" /><path
     d="m 60.593672,70.177361 c 7.728784,0 14.220963,6.49218 14.220963,14.22096 0,7.72879 -6.492179,14.22097 -14.220963,14.22097 -7.728785,0 -14.220964,-6.49218 -14.220964,-14.22097 0,-8.03793 6.183028,-14.22096 14.220964,-14.22096 z m 211.150398,77.596999 -66.1584,0 c -3.09151,0 -5.56472,2.47321 -5.56472,5.56472 l 0,8.96539 c 0,3.09152 2.47321,5.56473 5.56472,5.56473 l 65.84925,0 c 3.09151,0 5.56472,-2.47321 5.56472,-5.56473 l 0,-8.96539 c 0.30915,-3.09151 -2.16406,-5.56472 -5.25557,-5.56472 z m -75.43294,27.20532 c -3.09151,0 -5.56472,2.47321 -5.56472,5.56472 l 0,8.9654 c 0,3.09151 2.47321,5.56472 5.56472,5.56472 l 65.84924,0 c 3.09152,0 5.56473,-2.47321 5.56473,-5.56472 l 0,-8.9654 c 0,-3.09151 -2.47321,-5.56472 -5.56473,-5.56472 l -65.84924,0 z m 83.78002,-81.615969 -65.84924,0 c -3.09151,0 -5.56472,2.47322 -5.56472,5.56473 l 0,8.965389 c 0,3.09151 2.47321,5.56472 5.56472,5.56472 l 65.84924,0 c 3.09152,0 5.56473,-2.47321 5.56473,-5.56472 l 0,-8.965389 c 0,-3.09151 -2.47321,-5.56473 -5.56473,-5.56473 z m -17.93078,27.205329 -65.84924,0 c -3.09151,0 -5.56472,2.47321 -5.56472,5.56472 l 0,8.96539 c 0,3.09152 2.47321,5.56473 5.56472,5.56473 l 65.84924,0 c 3.09152,0 5.56473,-2.47321 5.56473,-5.56473 l 0,-8.96539 c 0,-3.09151 -2.47321,-5.56472 -5.56473,-5.56472 z m -58.42961,-48.845919 0,8.96539 c 0,3.09151 2.47321,5.56472 5.56473,5.56472 l 65.84924,0 c 3.09152,0 5.56473,-2.47321 5.56473,-5.56472 l 0,-8.96539 c 0,-3.09152 -2.47321,-5.56473 -5.56473,-5.56473 l -66.15839,0 c -2.78237,0 -5.25558,2.47321 -5.25558,5.56473 z M 23.495505,167.8692 l 139.118125,0 26.58702,0 0,0 c 2.47321,0 4.63727,-2.16406 4.63727,-4.63727 l 0,-11.12945 c 0,-2.47321 -2.16406,-4.63727 -4.63727,-4.63727 l -26.89617,0 -114.695166,0 c 0.618302,-3.40067 0.618302,-7.41964 -0.618303,-11.12945 -1.854909,-6.18303 -6.492179,-11.4386 -12.366056,-14.53012 -5.255574,-2.47321 -9.892844,-2.78236 -14.530115,-2.16406 l 0,-71.723119 c 5.255573,0.92746 11.12945,0.30915 17.621629,-4.018968 3.709817,-2.47321 6.801331,-6.18302 8.656239,-10.20199 1.854908,-4.63727 2.16406,-9.27454 1.545757,-13.60266 l 174.361385,0 c -0.92746,3.40066 -0.92746,7.41963 0,11.4386 2.16406,8.65624 9.27454,15.766718 17.93078,17.621628 3.70981,0.92745 7.41963,0.6183 11.12945,-0.30915 l 0,5.56472 c 0,2.47321 2.16406,4.63727 4.63727,4.63727 l 10.8203,0 c 2.47321,0 4.63727,-2.16406 4.63727,-4.63727 l 0,-30.915138 C 271.43492,10.511143 260.92377,0 247.93941,0 L 23.495505,0 C 10.511147,0 0,10.511143 0,23.495503 L 0,144.06454 c 0,13.29351 10.511147,23.80466 23.495505,23.80466 z M 135.40831,32.770043 c 28.44192,0 51.31913,22.877208 51.31913,51.319128 0,28.441929 -22.87721,51.319129 -51.31913,51.319129 -28.44193,0 -51.319133,-22.8772 -51.319133,-51.319129 0,-28.44192 22.877203,-51.319128 51.319133,-51.319128 z m 0,21.640598 c -16.38503,0 -29.67854,13.29351 -29.67854,29.67853 0,16.385029 13.29351,29.678539 29.67854,29.678539 16.38502,0 29.67853,-13.29351 29.67853,-29.678539 0,-16.38502 -13.29351,-29.67853 -29.67853,-29.67853 z"
     id="path4"
     inkscape:connector-curvature="0"
     style="fill:#034a73;fill-opacity:1" /></svg>