<?xml version="1.0" encoding="UTF-8" standalone="no"?>
<svg
   xmlns:dc="http://purl.org/dc/elements/1.1/"
   xmlns:cc="http://creativecommons.org/ns#"
   xmlns:rdf="http://www.w3.org/1999/02/22-rdf-syntax-ns#"
   xmlns:svg="http://www.w3.org/2000/svg"
   xmlns="http://www.w3.org/2000/svg"
   xmlns:sodipodi="http://sodipodi.sourceforge.net/DTD/sodipodi-0.dtd"
   xmlns:inkscape="http://www.inkscape.org/namespaces/inkscape"
   viewBox="0 0 6.7199998 6.7199997"
   version="1.1"
   xml:space="preserve"
   style="clip-rule:evenodd;fill-rule:evenodd;stroke-linejoin:round;stroke-miterlimit:1.41420996"
   x="0px"
   y="0px"
   stroke-miterlimit="1.41421"
   id="svg2"
   inkscape:version="0.91 r13725"
   sodipodi:docname="logo_pasar.svg"
   width="6.7199998"
   height="6.7199998"><metadata
     id="metadata14"><rdf:RDF><cc:Work
         rdf:about=""><dc:format>image/svg+xml</dc:format><dc:type
           rdf:resource="http://purl.org/dc/dcmitype/StillImage" /><dc:title></dc:title></cc:Work></rdf:RDF></metadata><defs
     id="defs12" /><sodipodi:namedview
     pagecolor="#ffffff"
     bordercolor="#666666"
     borderopacity="1"
     objecttolerance="10"
     gridtolerance="10"
     guidetolerance="10"
     inkscape:pageopacity="0"
     inkscape:pageshadow="2"
     inkscape:window-width="1317"
     inkscape:window-height="744"
     id="namedview10"
     showgrid="false"
     fit-margin-top="0"
     fit-margin-left="0"
     fit-margin-right="0"
     fit-margin-bottom="0"
     inkscape:zoom="23.6"
     inkscape:cx="-2.7935593"
     inkscape:cy="1.374"
     inkscape:window-x="49"
     inkscape:window-y="24"
     inkscape:window-maximized="1"
     inkscape:current-layer="svg2" /><path
     d="m 6.4869999,0.8259999 c 0.062,0 0.121,0.025 0.164,0.069 0.044,0.044 0.069,0.103 0.069,0.165 0,0.687 0,2.685 0,3.371 0,0.062 -0.025,0.122 -0.069,0.166 -0.044,0.044 -0.103,0.069 -0.166,0.069 l -2.592,0 0.396,0.988 0.921,0 c 0.023,0 0.045,0.009 0.061,0.025 0.017,0.017 0.026,0.039 0.026,0.061 0,0.022 0,0.046 0,0.068 0,0.023 -0.009,0.045 -0.026,0.061 -0.016,0.016 -0.038,0.025 -0.061,0.025 -0.513,0 -3.154,0 -3.667,0 -0.023,0 -0.045,-0.009 -0.061,-0.025 -0.016,-0.016 -0.025,-0.038 -0.025,-0.061 0,-0.022 0,-0.046 0,-0.068 0,-0.022 0.009,-0.044 0.025,-0.061 0.016,-0.016 0.038,-0.025 0.061,-0.025 l 0.922,0 0.395,-0.988 -2.625,0 c -0.063,0 -0.122,-0.025 -0.166,-0.069 -0.044,-0.044 -0.0690000049042,-0.104 -0.0690000049042,-0.166 0,-0.686 0,-2.684 0,-3.371 0,-0.062 0.0250000049042,-0.121 0.0690000049042,-0.165 0.044,-0.044 0.103,-0.069 0.166,-0.069 1.038,0 5.212,0 6.25,0 l 0.002,0 z m -0.247,0.48 -5.76,0 0,2.88 5.76,0 0,-2.88 z m -3.12,1.832 c 0,-0.093 -0.037,-0.182 -0.103,-0.248 -0.065,-0.066 -0.154,-0.102 -0.247,-0.102 -0.007,0 -0.013,0 -0.02,0 -0.093,0 -0.182,0.036 -0.247,0.102 -0.066,0.066 -0.103,0.155 -0.103,0.248 0,0.157 0,0.342 0,0.499 0,0.093 0.037,0.182 0.103,0.248 0.065,0.066 0.154,0.103 0.247,0.103 0.007,0 0.013,0 0.02,0 0.093,0 0.182,-0.037 0.247,-0.103 0.066,-0.066 0.103,-0.155 0.103,-0.248 0,-0.157 0,-0.342 0,-0.499 z m 1.183,-0.482 c 0,-0.092 -0.036,-0.181 -0.102,-0.246 -0.065,-0.066 -0.154,-0.102 -0.246,-0.102 -0.008,0 -0.016,0 -0.023,0 -0.193,0 -0.349,0.156 -0.349,0.348 0,0.288 0,0.695 0,0.983 0,0.092 0.037,0.181 0.102,0.246 0.066,0.066 0.154,0.103 0.247,0.103 0.007,0 0.015,0 0.023,0 0.092,0 0.181,-0.037 0.246,-0.103 0.066,-0.065 0.102,-0.154 0.102,-0.246 0,-0.288 0,-0.695 0,-0.983 z m 1.217,-0.48 c 0,-0.092 -0.037,-0.181 -0.102,-0.246 -0.065,-0.066 -0.154,-0.102 -0.247,-0.102 -0.007,0 -0.015,0 -0.022,0 -0.093,0 -0.182,0.036 -0.247,0.102 -0.065,0.065 -0.102,0.154 -0.102,0.246 0,0.403 0,1.061 0,1.463 0,0.092 0.037,0.181 0.102,0.246 0.065,0.066 0.154,0.103 0.247,0.103 0.007,0 0.015,0 0.022,0 0.093,0 0.182,-0.037 0.247,-0.103 0.065,-0.065 0.102,-0.154 0.102,-0.246 0,-0.402 0,-1.06 0,-1.463 z m -3.6,1.446 c 0,-0.196 -0.159,-0.354 -0.355,-0.354 -0.003,0 -0.007,0 -0.01,0 -0.196,0 -0.355,0.158 -0.355,0.354 0,0.004 0,0.007 0,0.011 0,0.196 0.159,0.355 0.355,0.355 0.003,0 0.007,0 0.01,0 0.196,0 0.355,-0.159 0.355,-0.355 0,-0.004 0,-0.007 0,-0.011 z m 2.355,-1.945 -0.029,-0.071 c -0.007,-0.017 -0.004,-0.037 0.007,-0.052 0.011,-0.015 0.028,-0.023 0.047,-0.021 0.125,0.009 0.358,0.028 0.494,0.038 0.02,0.002 0.038,0.015 0.045,0.034 0.008,0.018 0.004,0.04 -0.009,0.055 -0.09,0.102 -0.245,0.277 -0.328,0.372 -0.012,0.014 -0.03,0.02 -0.049,0.017 -0.018,-0.003 -0.033,-0.015 -0.04,-0.032 l -0.038,-0.093 -3.07,1.14 c -0.016,0.006 -0.035,-0.002 -0.042,-0.019 -0.006,-0.017 10e-4,-0.036 0.018,-0.043 l 2.994,-1.325 z"
     id="path4"
     inkscape:connector-curvature="0"
     style="fill:#034a73;fill-opacity:1" /><text
     x="-0.47999999"
     y="23.346001"
     font-size="5px"
     font-weight="bold"
     id="text6"
     style="font-weight:bold;font-size:5px;font-family:'Helvetica Neue', Helvetica, Arial-Unicode, Arial, Sans-serif;fill:#000000">Created by Sakchai Ruankam</text>
<text
     x="-0.47999999"
     y="28.346001"
     font-size="5px"
     font-weight="bold"
     id="text8"
     style="font-weight:bold;font-size:5px;font-family:'Helvetica Neue', Helvetica, Arial-Unicode, Arial, Sans-serif;fill:#000000">from the Noun Project</text>
</svg>