<?xml version="1.0" encoding="UTF-8" standalone="no"?>
<svg
   xmlns:dc="http://purl.org/dc/elements/1.1/"
   xmlns:cc="http://creativecommons.org/ns#"
   xmlns:rdf="http://www.w3.org/1999/02/22-rdf-syntax-ns#"
   xmlns:svg="http://www.w3.org/2000/svg"
   xmlns="http://www.w3.org/2000/svg"
   xmlns:sodipodi="http://sodipodi.sourceforge.net/DTD/sodipodi-0.dtd"
   xmlns:inkscape="http://www.inkscape.org/namespaces/inkscape"
   version="1.1"
   x="0px"
   y="0px"
   viewBox="0 0 88.67 88.67"
   enable-background="new 0 0 100 100"
   xml:space="preserve"
   id="svg2"
   inkscape:version="0.48.4 r9939"
   width="100%"
   height="100%"
   sodipodi:docname="noun_1169403_cc.svg"><metadata
     id="metadata14"><rdf:RDF><cc:Work
         rdf:about=""><dc:format>image/svg+xml</dc:format><dc:type
           rdf:resource="http://purl.org/dc/dcmitype/StillImage" /><dc:title></dc:title></cc:Work></rdf:RDF></metadata><defs
     id="defs12" /><sodipodi:namedview
     pagecolor="#ffffff"
     bordercolor="#666666"
     borderopacity="1"
     objecttolerance="10"
     gridtolerance="10"
     guidetolerance="10"
     inkscape:pageopacity="0"
     inkscape:pageshadow="2"
     inkscape:window-width="1327"
     inkscape:window-height="744"
     id="namedview10"
     showgrid="false"
     fit-margin-top="0"
     fit-margin-left="0"
     fit-margin-right="0"
     fit-margin-bottom="0"
     inkscape:zoom="3.776"
     inkscape:cx="-11.675245"
     inkscape:cy="36.681238"
     inkscape:window-x="39"
     inkscape:window-y="24"
     inkscape:window-maximized="1"
     inkscape:current-layer="svg2" /><path
     d="m 87.751063,57.445001 -7.814,-7.814 c -0.589,-0.589 -1.388,-0.919 -2.22,-0.919 -0.833,0 -1.631,0.331 -2.22,0.919 l -7.814,7.814 c -1.226,1.226 -1.226,3.214 0,4.44 1.226,1.226 3.214,1.226 4.44,0 l 2.33,-2.33 c -2.923,8.637 -13.523,17.089 -26.978,18.248 v -48.412 c 5.472,-1.402 9.534,-6.361 9.534,-12.264 0,-6.988 -5.685,-12.674 -12.674,-12.674 -6.988,0 -12.674,5.686 -12.674,12.674 0,5.903 4.062,10.862 9.534,12.264 v 48.411 c -13.455,-1.159 -24.056,-9.611 -26.978,-18.248 l 2.33,2.33 c 0.613,0.613 1.417,0.919 2.22,0.919 0.804,0 1.607,-0.307 2.22,-0.919 1.226,-1.226 1.226,-3.214 0,-4.44 l -7.814,-7.814 c -0.589,-0.589 -1.387,-0.919 -2.22,-0.919 -0.833,0 -1.6309996,0.331 -2.2199996,0.919 l -7.814,7.815 c -1.226,1.226 -1.226,3.214 0,4.44 1.226,1.226 3.214,1.226 4.44,0 l 2.32,-2.321 c 1.325,5.712 5.0229996,11.265 10.6049996,15.726 7.204,5.757 16.456,8.927 26.05,8.927 9.595,0 18.846,-3.17 26.05,-8.927 5.582,-4.461 9.28,-10.013 10.605,-15.726 l 2.321,2.321 c 0.613,0.613 1.416,0.919 2.22,0.919 0.803,0 1.607,-0.307 2.22,-0.919 1.227,-1.226 1.227,-3.214 0.001,-4.44 z m -49.811,-40.318 c 0,-3.526 2.869,-6.395 6.395,-6.395 3.526,0 6.395,2.869 6.395,6.395 0,3.526 -2.869,6.395 -6.395,6.395 -3.526,0 -6.395,-2.869 -6.395,-6.395 z"
     id="path4"
     inkscape:connector-curvature="0"
     style="fill:#034a73;fill-opacity:1" /></svg>