<?xml version="1.0" encoding="UTF-8" standalone="no"?>
<svg
   xmlns:dc="http://purl.org/dc/elements/1.1/"
   xmlns:cc="http://creativecommons.org/ns#"
   xmlns:rdf="http://www.w3.org/1999/02/22-rdf-syntax-ns#"
   xmlns:svg="http://www.w3.org/2000/svg"
   xmlns="http://www.w3.org/2000/svg"
   xmlns:sodipodi="http://sodipodi.sourceforge.net/DTD/sodipodi-0.dtd"
   xmlns:inkscape="http://www.inkscape.org/namespaces/inkscape"
   version="1.1"
   x="0px"
   y="0px"
   viewBox="0 0 84 84"
   id="svg2"
   inkscape:version="0.91 r13725"
   sodipodi:docname="logo_moneter.svg"
   width="84"
   height="84">
  <metadata
     id="metadata16">
    <rdf:RDF>
      <cc:Work
         rdf:about="">
        <dc:format>image/svg+xml</dc:format>
        <dc:type
           rdf:resource="http://purl.org/dc/dcmitype/StillImage" />
        <dc:title></dc:title>
      </cc:Work>
    </rdf:RDF>
  </metadata>
  <defs
     id="defs14" />
  <sodipodi:namedview
     pagecolor="#ffffff"
     bordercolor="#666666"
     borderopacity="1"
     objecttolerance="10"
     gridtolerance="10"
     guidetolerance="10"
     inkscape:pageopacity="0"
     inkscape:pageshadow="2"
     inkscape:window-width="1317"
     inkscape:window-height="744"
     id="namedview12"
     showgrid="false"
     fit-margin-top="0"
     fit-margin-left="0"
     fit-margin-right="0"
     fit-margin-bottom="0"
     inkscape:zoom="1.888"
     inkscape:cx="-41.919492"
     inkscape:cy="29.5"
     inkscape:window-x="49"
     inkscape:window-y="24"
     inkscape:window-maximized="1"
     inkscape:current-layer="svg2" />
  <g
     transform="translate(-8,-960.36218)"
     id="g4"
     style="fill:#034a73;fill-opacity:1">
    <path
       style="color:#000000;display:inline;overflow:visible;visibility:visible;fill:#034a73;stroke:none;marker:none;enable-background:accumulate;fill-opacity:1"
       d="m 13,8 0,74 37.21875,0 C 49.44335,79.8086 49,77.457 49,75 c 0,-0.6718 0.03207,-1.3444 0.09375,-2 L 21,73 C 19.952679,73.049 18.955343,72.14105 18.90625,71.09375 18.85716,70.04635 19.765159,69.0489 20.8125,69 L 21,69 49.875,69 c 0.645418,-2.1688 1.641108,-4.187 2.90625,-6 L 21,63 C 19.952679,63.049 18.955343,62.14105 18.90625,61.09375 18.85716,60.04635 19.765159,59.0489 20.8125,59 L 21,59 56.40625,59 C 59.350795,56.4918 62.988025,54.79415 67,54.21875 L 67,26 51,26 c -1.047169,-10e-5 -1.999895,-0.9528 -2,-2 L 49,8 13,8 Z M 53,8 53,22 67,22 53,8 Z M 20.625,39 c 0.03124,-7e-4 0.06251,-7e-4 0.09375,0 0.03124,-7e-4 0.06251,-7e-4 0.09375,0 L 21,39 59,39 c 1.056621,-0.015 2.03125,0.9433 2.03125,2 0,1.0567 -0.974629,2.0149 -2.03125,2 L 21,43 C 19.952802,43.098 18.910675,42.2347 18.8125,41.1875 18.71433,40.1403 19.577802,39.0982 20.625,39 Z m 0,10 c 0.03124,-7e-4 0.06251,-7e-4 0.09375,0 0.03124,-7e-4 0.06251,-7e-4 0.09375,0 L 21,49 59,49 c 1.056621,-0.015 2.03125,0.9433 2.03125,2 0,1.0567 -0.974629,2.0149 -2.03125,2 L 21,53 C 19.952802,53.098 18.910675,52.2347 18.8125,51.1875 18.71433,50.1403 19.577802,49.0982 20.625,49 Z M 70,58 c -9.388841,0 -17,7.6112 -17,17 0,9.3888 7.611159,17 17,17 9.388841,0 17,-7.6112 17,-17 0,-9.3888 -7.611159,-17 -17,-17 z m -0.21875,4.96875 A 2.0001999,2.0001999 0 0 1 72,65 l 0,1.3125 c 1.860852,0.568749 3.161343,1.859082 3.78125,3.125 a 2.0001999,2.0001999 0 1 1 -3.5625,1.75 C 71.901285,70.5394 71.53721,70.01 70.03125,70 70.01675,69.9999 70.01472,70 70,70 c -0.602056,0.0129 -1.207719,0.21805 -1.53125,0.46875 -0.321301,0.2488 -0.46145,0.4474 -0.46875,1 0.01215,0.5692 0.05222,0.56715 0.34375,0.78125 0.301364,0.2213 1.076966,0.5371 2.15625,0.8125 1.206433,0.3079 2.413924,0.617 3.53125,1.4375 1.117326,0.8205 1.94035,2.32 1.96875,3.9375 A 2.0001999,2.0001999 0 0 1 76,78.5 c 0,1.7391 -0.858231,3.2793 -2.03125,4.1875 -0.60376,0.467662 -1.281855,0.787576 -1.96875,1 L 72,85 a 2.0001999,2.0001999 0 1 1 -4,0 l 0,-1.28125 c -1.860852,-0.57746 -3.161343,-1.921884 -3.78125,-3.1875 a 2.0001999,2.0001999 0 1 1 3.5625,-1.75 c 0.317492,0.6482 0.681218,1.20875 2.1875,1.21875 0.01438,1e-4 0.01666,0 0.03125,0 0.602024,-0.0129 1.207702,-0.21805 1.53125,-0.46875 0.321318,-0.2488 0.46145,-0.4474 0.46875,-1 -3.62e-4,-0.02 4.1e-4,-0.01225 0,-0.03125 C 71.98785,77.9308 71.94779,77.93275 71.65625,77.71875 71.354879,77.49745 70.579284,77.2129 69.5,76.9375 68.293567,76.6296 67.086082,76.28915 65.96875,75.46875 64.851418,74.64825 64.0284,73.14875 64,71.53125 A 2.0001999,2.0001999 0 0 1 64,71.5 c 0,-1.7391 0.858214,-3.31005 2.03125,-4.21875 C 66.63526,66.813401 67.312808,66.516863 68,66.3125 L 68,65 a 2.0001999,2.0001999 0 0 1 1.78125,-2.03125 z"
       transform="translate(0,952.36218)"
       visibility="visible"
       display="inline"
       overflow="visible"
       id="path6"
       inkscape:connector-curvature="0" />
  </g>
</svg>
