<?xml version="1.0" encoding="UTF-8" standalone="no"?>
<svg
   xmlns:dc="http://purl.org/dc/elements/1.1/"
   xmlns:cc="http://creativecommons.org/ns#"
   xmlns:rdf="http://www.w3.org/1999/02/22-rdf-syntax-ns#"
   xmlns:svg="http://www.w3.org/2000/svg"
   xmlns="http://www.w3.org/2000/svg"
   xmlns:sodipodi="http://sodipodi.sourceforge.net/DTD/sodipodi-0.dtd"
   xmlns:inkscape="http://www.inkscape.org/namespaces/inkscape"
   version="1.1"
   x="0px"
   y="0px"
   viewBox="0 0 87.08 87.08"
   enable-background="new 0 0 100 100"
   xml:space="preserve"
   id="svg2"
   inkscape:version="0.48.4 r9939"
   width="100%"
   height="100%"
   sodipodi:docname="noun_1750723_cc.svg"><metadata
     id="metadata24"><rdf:RDF><cc:Work
         rdf:about=""><dc:format>image/svg+xml</dc:format><dc:type
           rdf:resource="http://purl.org/dc/dcmitype/StillImage" /><dc:title></dc:title></cc:Work></rdf:RDF></metadata><defs
     id="defs22" /><sodipodi:namedview
     pagecolor="#ffffff"
     bordercolor="#666666"
     borderopacity="1"
     objecttolerance="10"
     gridtolerance="10"
     guidetolerance="10"
     inkscape:pageopacity="0"
     inkscape:pageshadow="2"
     inkscape:window-width="1327"
     inkscape:window-height="744"
     id="namedview20"
     showgrid="false"
     fit-margin-top="0"
     fit-margin-left="0"
     fit-margin-right="0"
     fit-margin-bottom="0"
     inkscape:zoom="1.888"
     inkscape:cx="-50.805339"
     inkscape:cy="23.422"
     inkscape:window-x="39"
     inkscape:window-y="24"
     inkscape:window-maximized="1"
     inkscape:current-layer="svg2" /><g
     id="g4"
     transform="translate(-7.5860009,-6.4760007)"
     style="fill:#034a73;fill-opacity:1"><path
       d="m 94.62,38.38 v 0.09 c 0,1.984 -0.721,3.697 -2.119,5.096 -1.398,1.399 -3.112,2.119 -5.095,2.119 -1.986,0 -3.698,-0.721 -5.098,-2.119 -1.397,-1.398 -2.117,-3.111 -2.117,-5.096 V 38.38 H 80.189 70.013 v 0.09 c 0,1.984 -0.72,3.697 -2.118,5.096 -1.4,1.398 -3.112,2.119 -5.097,2.119 -1.985,0 -3.697,-0.721 -5.096,-2.119 -1.397,-1.398 -2.119,-3.111 -2.119,-5.096 v -0.09 h -9.638 v 0.09 c 0,1.984 -0.721,3.697 -2.117,5.096 -1.398,1.398 -3.114,2.119 -5.097,2.119 -1.983,0 -3.699,-0.721 -5.095,-2.119 -1.399,-1.398 -2.12,-3.111 -2.12,-5.096 V 38.38 H 21.97 v 0.09 c 0,1.984 -0.722,3.697 -2.12,5.096 -1.397,1.398 -3.113,2.119 -5.095,2.119 -1.984,0 -3.699,-0.721 -5.096,-2.119 C 8.457,42.365 7.758,40.927 7.585,39.287 V 85.922 H 35.014 V 71.696 c 0,-8.838 7.164,-16.002 16.002,-16.002 h 0.173 c 8.837,0 16.001,7.164 16.001,16.002 V 85.921 H 94.667 V 38.38 H 94.62 z"
       id="path6"
       inkscape:connector-curvature="0"
       style="fill:#034a73;fill-opacity:1" /><rect
       x="31.517"
       y="14.11"
       width="14.429"
       height="24.27"
       id="rect8"
       style="fill:#034a73;fill-opacity:1" /><rect
       x="55.583"
       y="14.11"
       width="14.43"
       height="24.27"
       id="rect10"
       style="fill:#034a73;fill-opacity:1" /><polygon
       points="80.191,38.38 94.62,38.38 88.777,14.11 80.191,14.11 "
       id="polygon12"
       style="fill:#034a73;fill-opacity:1" /><polygon
       points="7.586,38.38 21.971,38.38 21.971,14.11 13.428,14.11 "
       id="polygon14"
       style="fill:#034a73;fill-opacity:1" /></g></svg>