<?xml version="1.0" encoding="UTF-8" standalone="no"?>
<svg
   xmlns:dc="http://purl.org/dc/elements/1.1/"
   xmlns:cc="http://creativecommons.org/ns#"
   xmlns:rdf="http://www.w3.org/1999/02/22-rdf-syntax-ns#"
   xmlns:svg="http://www.w3.org/2000/svg"
   xmlns="http://www.w3.org/2000/svg"
   xmlns:sodipodi="http://sodipodi.sourceforge.net/DTD/sodipodi-0.dtd"
   xmlns:inkscape="http://www.inkscape.org/namespaces/inkscape"
   version="1.1"
   x="0px"
   y="0px"
   viewBox="0 0 66.2 66.2"
   xml:space="preserve"
   id="svg2"
   inkscape:version="0.48.4 r9939"
   width="100%"
   height="100%"
   sodipodi:docname="noun_1327924_cc.svg"><metadata
     id="metadata46"><rdf:RDF><cc:Work
         rdf:about=""><dc:format>image/svg+xml</dc:format><dc:type
           rdf:resource="http://purl.org/dc/dcmitype/StillImage" /><dc:title></dc:title></cc:Work></rdf:RDF></metadata><defs
     id="defs44" /><sodipodi:namedview
     pagecolor="#ffffff"
     bordercolor="#666666"
     borderopacity="1"
     objecttolerance="10"
     gridtolerance="10"
     guidetolerance="10"
     inkscape:pageopacity="0"
     inkscape:pageshadow="2"
     inkscape:window-width="1327"
     inkscape:window-height="744"
     id="namedview42"
     showgrid="false"
     fit-margin-top="0"
     fit-margin-left="0"
     fit-margin-right="0"
     fit-margin-bottom="0"
     inkscape:zoom="2.8606061"
     inkscape:cx="-28.481503"
     inkscape:cy="24.95"
     inkscape:window-x="39"
     inkscape:window-y="24"
     inkscape:window-maximized="1"
     inkscape:current-layer="svg2" /><g
     id="g4"
     transform="translate(0.10836674,1.525879e-6)"
     style="fill:#034a73;fill-opacity:1"><g
       id="g6"
       style="fill:#034a73;fill-opacity:1"><path
         d="m 60.8,18 2.8,0.8 c 0.1,0 0.2,0 0.3,0 0.4,0 0.8,-0.3 1,-0.7 0.2,-0.5 -0.2,-1.1 -0.7,-1.2 l -5.5,-1.6 c -0.2,-0.1 -0.5,0 -0.8,0.1 -0.3,0.2 -0.5,0.5 -0.5,0.7 L 56.7,22 c -0.1,0.5 0.3,1 0.9,1.1 0.6,0.1 1,-0.3 1.1,-0.9 l 0.4,-3.3 c 7.7,11.6 6.4,27.2 -3.3,37.3 -0.4,0.4 -0.4,1 0,1.4 0.4,0.4 1,0.4 1.4,0 C 67.5,46.9 68.9,30.3 60.8,18 z"
         id="path8"
         inkscape:connector-curvature="0"
         style="fill:#034a73;fill-opacity:1" /></g><g
       id="g10"
       style="fill:#034a73;fill-opacity:1"><path
         d="M 8.2,13.8 C -1.6,24.6 -2.7,40.4 5.1,52.5 L 2.4,51.6 c -0.5,-0.2 -1.1,0.1 -1.3,0.6 -0.2,0.5 0.1,1.1 0.6,1.3 l 5.6,1.8 c 0.3,0.1 0.6,0 0.9,-0.1 C 8.5,55 8.6,54.7 8.6,54.5 L 9.3,48.3 C 9.4,47.8 9,47.3 8.4,47.2 7.9,47.1 7.4,47.5 7.3,48.1 L 7,51.7 C -0.5,40.3 0.4,25.3 9.7,15.1 10.1,14.7 10,14.1 9.6,13.7 9.2,13.3 8.6,13.4 8.2,13.8 z"
         id="path12"
         inkscape:connector-curvature="0"
         style="fill:#034a73;fill-opacity:1" /></g><g
       id="g14"
       style="fill:#034a73;fill-opacity:1"><path
         d="M 52.9,35.7 C 52.8,35.6 52.6,35.4 52.5,35.4 L 33.3,24.9 c -0.3,-0.2 -0.7,-0.2 -0.9,0 l -6.7,3.6 c 0,0 0,0 0,0 l -4.8,2.6 c 0,0 0,0 0,0 l -7.6,4.1 c -0.1,0 -0.2,0.1 -0.2,0.2 0,0 0,0 -0.1,0.1 -0.1,0.1 -0.1,0.1 -0.1,0.2 0,0 0,0.1 -0.1,0.1 0,0.1 0,0.2 -0.1,0.3 0,0 0,0 0,0.1 v 16.9 c 0,0.3 0.2,0.7 0.5,0.8 L 32.4,66 c 0.1,0.1 0.3,0.2 0.5,0.2 0.2,0 0.4,-0.1 0.5,-0.1 L 52.7,55.8 c 0.3,-0.2 0.5,-0.5 0.5,-0.9 V 36.3 C 53.1,36.2 53.1,35.9 52.9,35.7 z M 32.8,26.9 50,36.3 45.4,38.8 28.2,29.4 32.8,26.9 z M 41.7,42 c 0,0 0,0 0,0 -0.1,-0.2 -0.3,-0.3 -0.4,-0.4 l -17.9,-9.7 2.7,-1.4 18.3,10 v 5.2 l -2.7,1.5 v -4.7 c 0.1,-0.1 0,-0.4 0,-0.5 z m -20.4,-8.9 17.4,9.4 -5.9,3.2 -17,-9.7 5.5,-2.9 z M 14.7,52.3 V 37.7 l 17.2,9.7 V 63.1 L 14.7,52.3 z m 19.1,11 V 47.5 l 6,-3.3 v 4.7 c 0,0.4 0.2,0.7 0.5,0.9 0.3,0.2 0.7,0.2 1,0 L 46,47.2 c 0.3,-0.2 0.5,-0.5 0.5,-0.9 V 40.5 L 51.2,38 v 16.1 l -17.4,9.2 z"
         id="path16"
         inkscape:connector-curvature="0"
         style="fill:#034a73;fill-opacity:1" /></g><g
       id="g18"
       style="fill:#034a73;fill-opacity:1"><path
         d="M 29.4,50.6 18.2,44.1 c -0.5,-0.3 -1.1,-0.1 -1.4,0.4 -0.3,0.5 -0.1,1.1 0.4,1.4 l 11.2,6.5 c 0.5,0.3 1.1,0.1 1.4,-0.4 0.3,-0.5 0.1,-1.1 -0.4,-1.4 z"
         id="path20"
         inkscape:connector-curvature="0"
         style="fill:#034a73;fill-opacity:1" /></g><g
       id="g22"
       style="fill:#034a73;fill-opacity:1"><path
         d="M 29.3,54.9 18.1,48.4 c -0.5,-0.3 -1.1,-0.1 -1.4,0.4 -0.3,0.5 -0.1,1.1 0.4,1.4 l 11.2,6.5 c 0.5,0.3 1.1,0.1 1.4,-0.4 0.3,-0.6 0.1,-1.2 -0.4,-1.4 z"
         id="path24"
         inkscape:connector-curvature="0"
         style="fill:#034a73;fill-opacity:1" /></g><g
       id="g26"
       style="fill:#034a73;fill-opacity:1"><path
         d="m 53.7,1 c 0,-0.6 -0.4,-1 -1,-1 -7.8,0 -31.2,0 -39.3,0 -0.6,0 -1,0.4 -1,1 v 21.2 c 0,0.6 0.4,1 1,1 15.1,0 24.3,0 39.3,0 0.6,0 1,-0.4 1,-1 0,-12.1 0,-9.3 0,-21.2 z M 45.9,21.2 H 20.1 c -0.4,-3 -2.8,-5.3 -5.8,-5.8 V 7.8 C 17.3,7.4 19.6,5 20.1,2 h 25.8 c 0.4,3 2.8,5.3 5.8,5.8 v 7.6 c -3,0.4 -5.3,2.8 -5.8,5.8 z M 51.7,5.7 C 49.8,5.3 48.4,3.9 48,2 h 3.7 V 5.7 z M 18.1,2 C 17.7,3.9 16.2,5.4 14.4,5.8 V 2 h 3.7 z m -3.7,15.4 c 1.9,0.4 3.3,1.9 3.7,3.7 H 14.4 V 17.4 z M 48,21.2 c 0.4,-1.9 1.9,-3.4 3.7,-3.8 v 3.8 H 48 z"
         id="path28"
         inkscape:connector-curvature="0"
         style="fill:#034a73;fill-opacity:1" /></g><g
       id="g30"
       style="fill:#034a73;fill-opacity:1"><path
         d="m 33,2.8 c -4.8,0 -8.8,3.9 -8.8,8.8 0,4.9 3.9,8.8 8.8,8.8 4.8,0 8.8,-3.9 8.8,-8.8 0,-4.9 -3.9,-8.8 -8.8,-8.8 z m 0,15.6 c -3.7,0 -6.8,-3 -6.8,-6.8 0,-3.8 3,-6.8 6.8,-6.8 3.7,0 6.8,3 6.8,6.8 0,3.8 -3,6.8 -6.8,6.8 z"
         id="path32"
         inkscape:connector-curvature="0"
         style="fill:#034a73;fill-opacity:1" /></g><g
       id="g34"
       style="fill:#034a73;fill-opacity:1"><path
         d="m 33.6,10.7 0,0 0,-2.4 c 0.6,0.1 1.2,0.3 1.8,0.7 L 36.2,7.8 C 35.4,7.2 34.5,6.9 33.6,6.9 V 6.4 H 32.8 V 7 c -0.8,0 -1.5,0.3 -2,0.8 -0.5,0.4 -0.8,1 -0.8,1.7 0,0.7 0.2,1.3 0.7,1.6 0.4,0.4 1.1,0.7 2.1,0.9 v 2.5 C 32.1,14.4 31.3,14 30.6,13.4 l -0.9,1.1 c 0.9,0.8 1.9,1.3 3.1,1.4 v 0.9 h 0.8 v -0.9 c 0.9,0 1.5,-0.3 2.1,-0.8 0.5,-0.5 0.8,-1.1 0.8,-1.8 0,-0.7 -0.2,-1.3 -0.7,-1.7 C 35.3,11.3 34.6,11 33.6,10.7 z M 32.8,10.5 C 32.3,10.3 32,10.2 31.8,10 31.6,9.8 31.5,9.6 31.5,9.3 31.5,9 31.6,8.8 31.8,8.6 32,8.4 32.3,8.3 32.7,8.3 v 2.2 z m 1.7,3.7 c -0.2,0.2 -0.6,0.3 -1,0.4 v -2.3 c 0.5,0.2 0.8,0.3 1,0.5 0.2,0.2 0.3,0.4 0.3,0.7 0.1,0.3 -0.1,0.5 -0.3,0.7 z"
         id="path36"
         inkscape:connector-curvature="0"
         style="fill:#034a73;fill-opacity:1" /></g></g></svg>