<?xml version="1.0" encoding="UTF-8" standalone="no"?>
<svg
   xmlns:dc="http://purl.org/dc/elements/1.1/"
   xmlns:cc="http://creativecommons.org/ns#"
   xmlns:rdf="http://www.w3.org/1999/02/22-rdf-syntax-ns#"
   xmlns:svg="http://www.w3.org/2000/svg"
   xmlns="http://www.w3.org/2000/svg"
   xmlns:sodipodi="http://sodipodi.sourceforge.net/DTD/sodipodi-0.dtd"
   xmlns:inkscape="http://www.inkscape.org/namespaces/inkscape"
   version="1.1"
   x="0px"
   y="0px"
   viewBox="206 206 86.485001 86.485001"
   enable-background="new 206 206 100 100"
   xml:space="preserve"
   id="svg2"
   inkscape:version="0.91 r13725"
   sodipodi:docname="logo_pasar.svg"
   width="86.485001"
   height="86.485001"><metadata
     id="metadata20"><rdf:RDF><cc:Work
         rdf:about=""><dc:format>image/svg+xml</dc:format><dc:type
           rdf:resource="http://purl.org/dc/dcmitype/StillImage" /><dc:title></dc:title></cc:Work></rdf:RDF></metadata><defs
     id="defs18" /><sodipodi:namedview
     pagecolor="#ffffff"
     bordercolor="#666666"
     borderopacity="1"
     objecttolerance="10"
     gridtolerance="10"
     guidetolerance="10"
     inkscape:pageopacity="0"
     inkscape:pageshadow="2"
     inkscape:window-width="1317"
     inkscape:window-height="744"
     id="namedview16"
     showgrid="false"
     fit-margin-top="0"
     fit-margin-left="0"
     fit-margin-right="0"
     fit-margin-bottom="0"
     inkscape:zoom="1.888"
     inkscape:cx="-35.677492"
     inkscape:cy="26.708"
     inkscape:window-x="49"
     inkscape:window-y="24"
     inkscape:window-maximized="1"
     inkscape:current-layer="svg2" /><g
     id="g4"
     transform="translate(-6.7579997,-6.7589997)"
     style="fill:#034a73;fill-opacity:1"><polygon
       points="238.804,295.208 273.197,295.208 269.12,283.928 242.88,283.928 "
       id="polygon6"
       style="fill:#034a73;fill-opacity:1" /><path
       d="m 217.219,221.617 0,51.462 77.562,0 0,-51.462 -77.562,0 z m 7.112,47.73 c 0,0.539 -0.438,0.977 -0.977,0.977 -0.539,0 -0.977,-0.438 -0.977,-0.977 l 0,-10.685 c 0,-0.539 0.438,-0.977 0.977,-0.977 0.539,0 0.977,0.438 0.977,0.977 l 0,10.685 z m 5.408,0 c 0,0.539 -0.438,0.977 -0.977,0.977 -0.539,0 -0.977,-0.438 -0.977,-0.977 l 0,-10.685 c 0,-0.539 0.438,-0.977 0.977,-0.977 0.539,0 0.977,0.438 0.977,0.977 l 0,10.685 z m 5.407,0 c 0,0.539 -0.438,0.977 -0.977,0.977 -0.539,0 -0.977,-0.438 -0.977,-0.977 l 0,-19.962 c 0,-0.541 0.438,-0.977 0.977,-0.977 0.539,0 0.977,0.436 0.977,0.977 l 0,19.962 z m -0.977,-34.345 -10.814,0 c -0.539,0 -0.977,-0.438 -0.977,-0.977 0,-0.539 0.438,-0.977 0.977,-0.977 l 10.814,0 c 0.539,0 0.977,0.438 0.977,0.977 0,0.539 -0.438,0.977 -0.977,0.977 z m 6.384,34.345 c 0,0.539 -0.438,0.977 -0.977,0.977 -0.541,0 -0.977,-0.438 -0.977,-0.977 l 0,-21.997 c 0,-0.539 0.436,-0.977 0.977,-0.977 0.539,0 0.977,0.438 0.977,0.977 l 0,21.997 z m -0.977,-39.619 -16.221,0 c -0.539,0 -0.977,-0.438 -0.977,-0.977 0,-0.539 0.438,-0.977 0.977,-0.977 l 16.221,0 c 0.539,0 0.977,0.438 0.977,0.977 0,0.539 -0.438,0.977 -0.977,0.977 z m 6.382,39.619 c 0,0.539 -0.438,0.977 -0.977,0.977 -0.539,0 -0.977,-0.438 -0.977,-0.977 l 0,-17.383 c 0,-0.539 0.438,-0.977 0.977,-0.977 0.539,0 0.977,0.438 0.977,0.977 l 0,17.383 z m 5.407,0 c 0,0.539 -0.438,0.977 -0.977,0.977 -0.539,0 -0.977,-0.438 -0.977,-0.977 l 0,-21.997 c 0,-0.539 0.438,-0.977 0.977,-0.977 0.539,0 0.977,0.438 0.977,0.977 l 0,21.997 z m -3.753,-38.306 1.016,0 c 1.51,0 2.737,1.229 2.737,2.739 0,1.35 -0.983,2.471 -2.268,2.694 l 0,1.045 c 0,0.539 -0.438,0.977 -0.977,0.977 -0.539,0 -0.977,-0.438 -0.977,-0.977 l 0,-1.002 -1.291,0 c -0.539,0 -0.977,-0.438 -0.977,-0.977 0,-0.539 0.438,-0.977 0.977,-0.977 l 2.776,0 c 0.432,0 0.783,-0.352 0.783,-0.783 0,-0.434 -0.352,-0.785 -0.783,-0.785 l -1.016,0 c -1.51,0 -2.737,-1.227 -2.737,-2.737 0,-1.35 0.981,-2.471 2.268,-2.694 l 0,-1.045 c 0,-0.539 0.438,-0.977 0.977,-0.977 0.539,0 0.977,0.438 0.977,0.977 l 0,1.002 1.291,0 c 0.539,0 0.977,0.436 0.977,0.977 0,0.539 -0.438,0.977 -0.977,0.977 l -2.776,0 c -0.432,0 -0.783,0.352 -0.783,0.783 0,0.431 0.351,0.783 0.783,0.783 z m 9.16,38.306 c 0,0.539 -0.438,0.977 -0.977,0.977 -0.539,0 -0.977,-0.438 -0.977,-0.977 l 0,-17.383 c 0,-0.539 0.438,-0.977 0.977,-0.977 0.539,0 0.977,0.438 0.977,0.977 l 0,17.383 z m 5.407,0 c 0,0.539 -0.438,0.977 -0.977,0.977 -0.539,0 -0.977,-0.438 -0.977,-0.977 l 0,-28.744 c 0,-0.539 0.438,-0.977 0.977,-0.977 0.539,0 0.977,0.438 0.977,0.977 l 0,28.744 z m 5.407,0 c 0,0.539 -0.438,0.977 -0.977,0.977 -0.541,0 -0.977,-0.438 -0.977,-0.977 l 0,-12.32 c 0,-0.539 0.436,-0.977 0.977,-0.977 0.539,0 0.977,0.438 0.977,0.977 l 0,12.32 z m 5.407,0 c 0,0.539 -0.438,0.977 -0.977,0.977 -0.541,0 -0.977,-0.438 -0.977,-0.977 l 0,-26.281 c 0,-0.539 0.436,-0.977 0.977,-0.977 0.539,0 0.977,0.438 0.977,0.977 l 0,26.281 z m 5.407,0 c 0,0.539 -0.438,0.977 -0.977,0.977 -0.541,0 -0.977,-0.438 -0.977,-0.977 l 0,-37.327 c 0,-0.541 0.436,-0.977 0.977,-0.977 0.539,0 0.977,0.436 0.977,0.977 l 0,37.327 z m 5.405,0 c 0,0.539 -0.436,0.977 -0.977,0.977 -0.539,0 -0.977,-0.438 -0.977,-0.977 l 0,-32.577 c 0,-0.539 0.438,-0.977 0.977,-0.977 0.541,0 0.977,0.438 0.977,0.977 l 0,32.577 z m 5.407,0 c 0,0.539 -0.436,0.977 -0.977,0.977 -0.539,0 -0.977,-0.438 -0.977,-0.977 l 0,-21.997 c 0,-0.539 0.438,-0.977 0.977,-0.977 0.541,0 0.977,0.438 0.977,0.977 l 0,21.997 z"
       id="path8"
       inkscape:connector-curvature="0"
       style="fill:#034a73;fill-opacity:1" /><path
       d="m 295.857,216.795 -79.714,0 c -1.867,0 -3.385,1.518 -3.385,3.385 l 0,61.796 86.485,0 0,-61.796 c -10e-4,-1.868 -1.518,-3.385 -3.386,-3.385 z m -28.154,62.581 -23.406,0 c -0.539,0 -0.977,-0.436 -0.977,-0.977 0,-0.539 0.438,-0.977 0.977,-0.977 l 23.406,0 c 0.539,0 0.977,0.438 0.977,0.977 0,0.541 -0.438,0.977 -0.977,0.977 z m 29.031,-5.32 c 0,0.539 -0.438,0.977 -0.977,0.977 l -79.515,0 c -0.539,0 -0.977,-0.438 -0.977,-0.977 l 0,-53.416 c 0,-0.539 0.438,-0.977 0.977,-0.977 l 79.515,0 c 0.539,0 0.977,0.438 0.977,0.977 l 0,53.416 z"
       id="path10"
       inkscape:connector-curvature="0"
       style="fill:#034a73;fill-opacity:1" /></g></svg>