<?xml version="1.0" encoding="UTF-8" standalone="no"?>
<svg
   xmlns:dc="http://purl.org/dc/elements/1.1/"
   xmlns:cc="http://creativecommons.org/ns#"
   xmlns:rdf="http://www.w3.org/1999/02/22-rdf-syntax-ns#"
   xmlns:svg="http://www.w3.org/2000/svg"
   xmlns="http://www.w3.org/2000/svg"
   xmlns:sodipodi="http://sodipodi.sourceforge.net/DTD/sodipodi-0.dtd"
   xmlns:inkscape="http://www.inkscape.org/namespaces/inkscape"
   version="1.1"
   x="0px"
   y="0px"
   viewBox="0 0 100 100"
   enable-background="new 0 0 100 100"
   xml:space="preserve"
   id="svg2"
   inkscape:version="0.91 r13725"
   sodipodi:docname="logo_perdagangan.svg"
   width="100"
   height="100"><metadata
     id="metadata20"><rdf:RDF><cc:Work
         rdf:about=""><dc:format>image/svg+xml</dc:format><dc:type
           rdf:resource="http://purl.org/dc/dcmitype/StillImage" /><dc:title></dc:title></cc:Work></rdf:RDF></metadata><defs
     id="defs18" /><sodipodi:namedview
     pagecolor="#ffffff"
     bordercolor="#666666"
     borderopacity="1"
     objecttolerance="10"
     gridtolerance="10"
     guidetolerance="10"
     inkscape:pageopacity="0"
     inkscape:pageshadow="2"
     inkscape:window-width="1317"
     inkscape:window-height="744"
     id="namedview16"
     showgrid="false"
     fit-margin-top="0"
     fit-margin-left="0"
     fit-margin-right="0"
     fit-margin-bottom="0"
     inkscape:zoom="1.888"
     inkscape:cx="-28.919492"
     inkscape:cy="37.5"
     inkscape:window-x="49"
     inkscape:window-y="24"
     inkscape:window-maximized="1"
     inkscape:current-layer="svg2" /><path
     d="m 82.813,11.813 -4.5,0 0,-11.813 -16.813,16.813 16.813,16.813 0,-11.813 4.5,0 C 86.776,21.813 90,25.037 90,29 l 0,15.233 10,0 L 100,29 C 100,19.523 92.29,11.813 82.813,11.813 Z"
     id="path4"
     inkscape:connector-curvature="0"
     style="fill:#034a73;fill-opacity:1" /><path
     d="M 28,0 C 12.536,0 0,12.536 0,28 0,43.464 12.536,56 28,56 43.464,56 56,43.464 56,28 56,12.536 43.464,0 28,0 Z m 8.28,43.728 c -1.476,1.115 -3.297,1.874 -5.28,2.24 l 0,4.782 -6,0 0,-4.9 C 20.085,44.736 15.741,41.126 15.741,35.32 l 0,-3 6,0 0,3 c 0,3.878 4.28,4.903 6.543,4.903 1.704,0 3.3,-0.468 4.379,-1.283 1.074,-0.812 1.596,-1.913 1.596,-3.365 0,-2.065 -2.019,-3.186 -6.849,-5.067 -4.669,-1.82 -10.48,-4.084 -10.48,-10.393 0,-5.398 3.678,-8.741 8.07,-9.887 l 0,-4.978 6,0 0,4.77 c 4.661,0.875 8.75,4.182 8.75,9.755 l 0,3 -6,0 0,-3 c 0,-3.156 -3.313,-3.999 -5.27,-3.999 -2.061,0 -5.55,0.914 -5.55,4.338 0,2.059 2.516,3.188 6.659,4.802 4.503,1.755 10.67,4.158 10.67,10.658 0,3.32 -1.413,6.215 -3.979,8.154 z"
     id="path6"
     inkscape:connector-curvature="0"
     style="fill:#034a73;fill-opacity:1" /><path
     d="m 72,44 c -15.464,0 -28,12.536 -28,28 0,15.464 12.536,28 28,28 15.464,0 28,-12.536 28,-28 C 100,56.536 87.464,44 72,44 Z m 10.073,43.533 c -1.718,1.292 -4.982,2.454 -8.577,2.455 -2.162,0 -4.443,-0.421 -6.579,-1.487 -2.654,-1.325 -5.662,-3.941 -7.191,-9.053 l -4.996,0 0,-6 4.027,0 c -0.025,-0.527 -0.044,-1.062 -0.044,-1.623 0,-0.309 0.014,-0.611 0.025,-0.915 l -4.008,0 0,-6 5.039,0 c 1.362,-4.143 4.003,-7.38 7.699,-9.258 4.616,-2.345 10.327,-2.162 13.891,0.439 l 2.423,1.77 -3.539,4.846 -2.423,-1.77 c -1.492,-1.091 -4.675,-1.438 -7.634,0.064 -1.686,0.857 -2.998,2.193 -3.921,3.908 l 13.798,0 0,6 -15.305,0 c -0.014,0.305 -0.044,0.6 -0.044,0.915 0,0.524 0.015,1.068 0.049,1.623 l 15.301,0 0,6 -13.92,0 c 0.744,1.554 1.841,2.88 3.453,3.685 3.295,1.645 7.524,0.618 8.869,-0.395 l 2.398,-1.804 3.606,4.796 -2.397,1.804 z"
     id="path8"
     inkscape:connector-curvature="0"
     style="fill:#034a73;fill-opacity:1" /><path
     d="m 17.187,88.187 4.5,0 0,11.813 L 38.5,83.187 21.687,66.374 l 0,11.813 -4.5,0 C 13.224,78.187 10,74.963 10,71 l 0,-15.233 -10,0 L 0,71 c 0,9.477 7.71,17.187 17.187,17.187 z"
     id="path10"
     inkscape:connector-curvature="0"
     style="fill:#034a73;fill-opacity:1" /></svg>