<?xml version="1.0" encoding="UTF-8" standalone="no"?>
<svg
   xmlns:dc="http://purl.org/dc/elements/1.1/"
   xmlns:cc="http://creativecommons.org/ns#"
   xmlns:rdf="http://www.w3.org/1999/02/22-rdf-syntax-ns#"
   xmlns:svg="http://www.w3.org/2000/svg"
   xmlns="http://www.w3.org/2000/svg"
   xmlns:sodipodi="http://sodipodi.sourceforge.net/DTD/sodipodi-0.dtd"
   xmlns:inkscape="http://www.inkscape.org/namespaces/inkscape"
   version="1.1"
   x="0px"
   y="0px"
   viewBox="0 0 99.032417 99.032417"
   xml:space="preserve"
   id="svg2"
   inkscape:version="0.91 r13725"
   sodipodi:docname="logo_perdagangan.svg"
   width="99.032417"
   height="99.032417"><metadata
     id="metadata20"><rdf:RDF><cc:Work
         rdf:about=""><dc:format>image/svg+xml</dc:format><dc:type
           rdf:resource="http://purl.org/dc/dcmitype/StillImage" /><dc:title></dc:title></cc:Work></rdf:RDF></metadata><defs
     id="defs18" /><sodipodi:namedview
     pagecolor="#ffffff"
     bordercolor="#666666"
     borderopacity="1"
     objecttolerance="10"
     gridtolerance="10"
     guidetolerance="10"
     inkscape:pageopacity="0"
     inkscape:pageshadow="2"
     inkscape:window-width="1317"
     inkscape:window-height="744"
     id="namedview16"
     showgrid="false"
     fit-margin-top="0"
     fit-margin-left="0"
     fit-margin-right="0"
     fit-margin-bottom="0"
     inkscape:zoom="1.888"
     inkscape:cx="49.5"
     inkscape:cy="32.9"
     inkscape:window-x="49"
     inkscape:window-y="24"
     inkscape:window-maximized="1"
     inkscape:current-layer="svg2" /><g
     id="g4"
     transform="translate(-0.49999869,-0.53379135)"
     style="fill:#034a73;fill-opacity:1"><path
       d="M 95.5,15 23,15 22.8,13.9 C 21.9,8.6 17.4,4.7 11.9,4.7 l -7.4,0 c -2.2,0 -4,1.8 -4,4 0,2.2 1.8,4 4,4 l 7.5,0 c 1.5,0 2.7,1.1 3,2.5 l 6.3,38.4 c 0,0.2 0.1,0.4 0.1,0.7 l 1.1,6.8 c 1,6.3 6.4,10.9 12.8,10.9 l 49.2,0 c 2.2,0 4,-1.8 4,-4 0,-2.2 -1.8,-4 -4,-4 l -49.2,0 c -2.5,0 -4.5,-1.8 -4.9,-4.2 l -0.4,-2.6 56.5,0 c 1.8,0 3.4,-1.2 3.9,-3 L 99.4,20 C 99.7,18.8 99.5,17.5 98.7,16.5 97.9,15.6 96.8,15 95.5,15 Z m -12.1,34.2 -54.8,0 -4.3,-26.2 66,0 -6.9,26.2 z"
       id="path6"
       inkscape:connector-curvature="0"
       style="fill:#034a73;fill-opacity:1" /><path
       d="m 47.5,84.1 c 0,-6.2 -5,-11.3 -11.3,-11.3 -6.3,0 -11.2,5.1 -11.2,11.3 0,6.2 5,11.3 11.3,11.3 6.3,0 11.2,-5.1 11.2,-11.3 z m -14.5,0 c 0,-1.8 1.5,-3.3 3.3,-3.3 1.8,0 3.3,1.5 3.3,3.3 0,1.8 -1.5,3.3 -3.3,3.3 -1.8,0 -3.3,-1.5 -3.3,-3.3 z"
       id="path8"
       inkscape:connector-curvature="0"
       style="fill:#034a73;fill-opacity:1" /><path
       d="m 81.8,84.1 c 0,-6.2 -5,-11.3 -11.3,-11.3 -6.3,0 -11.3,5 -11.3,11.3 0,6.3 5,11.3 11.3,11.3 6.3,0 11.3,-5.1 11.3,-11.3 z m -14.5,0 c 0,-1.8 1.5,-3.3 3.3,-3.3 1.8,0 3.3,1.5 3.3,3.3 0,1.8 -1.5,3.3 -3.3,3.3 -1.9,-0.1 -3.3,-1.5 -3.3,-3.3 z"
       id="path10"
       inkscape:connector-curvature="0"
       style="fill:#034a73;fill-opacity:1" /></g></svg>