<?xml version="1.0" encoding="UTF-8" standalone="no"?>
<svg
   xmlns:dc="http://purl.org/dc/elements/1.1/"
   xmlns:cc="http://creativecommons.org/ns#"
   xmlns:rdf="http://www.w3.org/1999/02/22-rdf-syntax-ns#"
   xmlns:svg="http://www.w3.org/2000/svg"
   xmlns="http://www.w3.org/2000/svg"
   xmlns:sodipodi="http://sodipodi.sourceforge.net/DTD/sodipodi-0.dtd"
   xmlns:inkscape="http://www.inkscape.org/namespaces/inkscape"
   version="1.1"
   x="0px"
   y="0px"
   viewBox="0 0 92.400002 92.400001"
   enable-background="new 0 0 100 100"
   xml:space="preserve"
   id="svg2"
   inkscape:version="0.91 r13725"
   sodipodi:docname="logo_keuangan.svg"
   width="92.400002"
   height="92.400002"><metadata
     id="metadata14"><rdf:RDF><cc:Work
         rdf:about=""><dc:format>image/svg+xml</dc:format><dc:type
           rdf:resource="http://purl.org/dc/dcmitype/StillImage" /><dc:title></dc:title></cc:Work></rdf:RDF></metadata><defs
     id="defs12" /><sodipodi:namedview
     pagecolor="#ffffff"
     bordercolor="#666666"
     borderopacity="1"
     objecttolerance="10"
     gridtolerance="10"
     guidetolerance="10"
     inkscape:pageopacity="0"
     inkscape:pageshadow="2"
     inkscape:window-width="1317"
     inkscape:window-height="744"
     id="namedview10"
     showgrid="false"
     fit-margin-top="0"
     fit-margin-left="0"
     fit-margin-right="0"
     fit-margin-bottom="0"
     inkscape:zoom="1.888"
     inkscape:cx="-32.719492"
     inkscape:cy="19"
     inkscape:window-x="49"
     inkscape:window-y="24"
     inkscape:window-maximized="1"
     inkscape:current-layer="svg2" /><path
     d="m 19.600001,37.350001 c 2.5,0 4.6,2.1 4.6,4.6 0,2.5 -2.1,4.6 -4.6,4.6 -2.5,0 -4.6,-2.1 -4.6,-4.6 0,-2.6 2,-4.6 4.6,-4.6 z m 68.3,25.1 -21.4,0 c -1,0 -1.8,0.8 -1.8,1.8 l 0,2.9 c 0,1 0.8,1.8 1.8,1.8 l 21.3,0 c 1,0 1.8,-0.8 1.8,-1.8 l 0,-2.9 c 0.1,-1 -0.7,-1.8 -1.7,-1.8 z m -24.4,8.8 c -1,0 -1.8,0.8 -1.8,1.8 l 0,2.9 c 0,1 0.8,1.8 1.8,1.8 l 21.3,0 c 1,0 1.8,-0.8 1.8,-1.8 l 0,-2.9 c 0,-1 -0.8,-1.8 -1.8,-1.8 l -21.3,0 z m 27.1,-26.4 -21.3,0 c -1,0 -1.8,0.8 -1.8,1.8 l 0,2.9 c 0,1 0.8,1.8 1.8,1.8 l 21.3,0 c 1,0 1.8,-0.8 1.8,-1.8 l 0,-2.9 c 0,-1 -0.8,-1.8 -1.8,-1.8 z m -5.8,8.8 -21.3,0 c -1,0 -1.8,0.8 -1.8,1.8 l 0,2.9 c 0,1 0.8,1.8 1.8,1.8 l 21.3,0 c 1,0 1.8,-0.8 1.8,-1.8 l 0,-2.9 c 0,-1 -0.8,-1.8 -1.8,-1.8 z m -18.9,-15.8 0,2.9 c 0,1 0.8,1.8 1.8,1.8 l 21.3,0 c 1,0 1.8,-0.8 1.8,-1.8 l 0,-2.9 c 0,-1 -0.8,-1.8 -1.8,-1.8 l -21.4,0 c -0.9,0 -1.7,0.8 -1.7,1.8 z m -58.3000002,31.1 45.0000002,0 8.6,0 0,0 c 0.8,0 1.5,-0.7 1.5,-1.5 l 0,-3.6 c 0,-0.8 -0.7,-1.5 -1.5,-1.5 l -8.7,0 -37.1,0 c 0.2,-1.1 0.2,-2.4 -0.2,-3.6 -0.6,-2 -2.1,-3.7 -4,-4.7 -1.7000002,-0.8 -3.2000002,-0.9 -4.7000002,-0.7 l 0,-23.2 c 1.7,0.3 3.6000002,0.1 5.7000002,-1.3 1.2,-0.8 2.2,-2 2.8,-3.3 0.6,-1.5 0.7,-3 0.5,-4.4 l 56.4,0 c -0.3,1.1 -0.3,2.4 0,3.7 0.7,2.8 3,5.1 5.8,5.7 1.2,0.3 2.4,0.2 3.6,-0.1 l 0,1.8 c 0,0.8 0.7,1.5 1.5,1.5 l 3.5,0 c 0.8,0 1.5,-0.7 1.5,-1.5 l 0,-10 c 0,-4.2 -3.4,-7.6 -7.6,-7.6 l -72.6000002,0 c -4.2,0 -7.60000003706055,3.4 -7.60000003706055,7.6 l 0,39 c 0,4.3 3.40000003706055,7.7 7.60000003706055,7.7 z m 36.2000002,-43.7 c 9.2,0 16.6,7.4 16.6,16.6 0,9.2 -7.4,16.6 -16.6,16.6 -9.2,0 -16.6,-7.4 -16.6,-16.6 0,-9.2 7.4,-16.6 16.6,-16.6 z m 0,7 c -5.3,0 -9.6,4.3 -9.6,9.6 0,5.3 4.3,9.6 9.6,9.6 5.3,0 9.6,-4.3 9.6,-9.6 0,-5.3 -4.3,-9.6 -9.6,-9.6 z"
     id="path4"
     inkscape:connector-curvature="0"
     style="fill:#034a73;fill-opacity:1" /></svg>