<?xml version="1.0" encoding="UTF-8" standalone="no"?>
<svg
   xmlns:dc="http://purl.org/dc/elements/1.1/"
   xmlns:cc="http://creativecommons.org/ns#"
   xmlns:rdf="http://www.w3.org/1999/02/22-rdf-syntax-ns#"
   xmlns:svg="http://www.w3.org/2000/svg"
   xmlns="http://www.w3.org/2000/svg"
   xmlns:sodipodi="http://sodipodi.sourceforge.net/DTD/sodipodi-0.dtd"
   xmlns:inkscape="http://www.inkscape.org/namespaces/inkscape"
   version="1.1"
   x="0px"
   y="0px"
   viewBox="0 0 90 90"
   enable-background="new 0 0 100 100"
   xml:space="preserve"
   id="svg2"
   inkscape:version="0.91 r13725"
   sodipodi:docname="logo_ketenagakerjaan.svg"
   width="90"
   height="90"><metadata
     id="metadata22"><rdf:RDF><cc:Work
         rdf:about=""><dc:format>image/svg+xml</dc:format><dc:type
           rdf:resource="http://purl.org/dc/dcmitype/StillImage" /><dc:title></dc:title></cc:Work></rdf:RDF></metadata><defs
     id="defs20" /><sodipodi:namedview
     pagecolor="#ffffff"
     bordercolor="#666666"
     borderopacity="1"
     objecttolerance="10"
     gridtolerance="10"
     guidetolerance="10"
     inkscape:pageopacity="0"
     inkscape:pageshadow="2"
     inkscape:window-width="1317"
     inkscape:window-height="744"
     id="namedview18"
     showgrid="false"
     fit-margin-top="0"
     fit-margin-left="0"
     fit-margin-right="0"
     fit-margin-bottom="0"
     inkscape:zoom="1.888"
     inkscape:cx="-47.361492"
     inkscape:cy="32.5"
     inkscape:window-x="49"
     inkscape:window-y="24"
     inkscape:window-maximized="1"
     inkscape:current-layer="svg2" /><g
     id="g4"
     transform="translate(-5,-5)"
     style="fill:#034a73;fill-opacity:1"><path
       d="m 62.643,55.073 -25.289,0 c -10.605,0.969 -18.912,9.884 -18.912,20.742 0,3.673 0.955,6.104 2.623,7.719 l 1.192,-2.352 c 2.095,-4.132 6.269,-6.699 10.891,-6.699 3.759,0 7.222,1.699 9.511,4.557 l 14.682,0 c 2.289,-2.857 5.752,-4.557 9.512,-4.557 4.622,0 8.794,2.567 10.891,6.699 l 1.193,2.351 c 1.667,-1.614 2.621,-4.045 2.621,-7.718 C 81.556,64.956 73.247,56.041 62.643,55.073 Z"
       id="path6"
       inkscape:connector-curvature="0"
       style="fill:#034a73;fill-opacity:1" /><path
       d="m 32.005,33.948 c 0,9.938 8.058,17.995 17.994,17.995 9.938,0 17.996,-8.058 17.996,-17.995 0,-0.153 -0.008,-0.306 -0.013,-0.458 l -35.965,0 c -0.004,0.153 -0.012,0.305 -0.012,0.458 z"
       id="path8"
       inkscape:connector-curvature="0"
       style="fill:#034a73;fill-opacity:1" /><path
       d="m 30.801,30.36 38.396,0 c 1.496,0 2.71,-1.213 2.71,-2.709 0,-1.495 -1.214,-2.707 -2.71,-2.707 l -0.736,0 c 0,-7.196 -4.121,-13.425 -10.127,-16.471 l -1.529,8.674 c -0.121,0.688 -0.72,1.171 -1.394,1.171 -0.081,0 -0.164,-0.007 -0.246,-0.021 -0.771,-0.138 -1.283,-0.871 -1.146,-1.642 L 55.764,6.747 C 55.11,5.699 53.947,5 52.619,5 l -5.24,0 C 46.052,5 44.89,5.699 44.235,6.747 l 1.747,9.908 c 0.136,0.771 -0.377,1.504 -1.147,1.642 -0.083,0.015 -0.165,0.021 -0.246,0.021 -0.675,0 -1.274,-0.483 -1.394,-1.171 L 41.665,8.474 C 35.659,11.519 31.54,17.747 31.54,24.944 l -0.738,0 c -1.496,0 -2.708,1.212 -2.708,2.707 -0.001,1.496 1.211,2.709 2.707,2.709 z"
       id="path10"
       inkscape:connector-curvature="0"
       style="fill:#034a73;fill-opacity:1" /><path
       d="m 67.687,82.952 6.567,0 c -1.37,-2.701 -4.165,-4.557 -7.401,-4.557 -3.235,0 -6.032,1.855 -7.402,4.557 l -18.9,0 c -1.37,-2.701 -4.167,-4.557 -7.401,-4.557 -3.237,0 -6.033,1.855 -7.402,4.557 l 6.568,0 0.834,1.445 1.328,2.3 -1.328,2.302 -0.834,1.445 -6.568,0 c 1.369,2.7 4.166,4.556 7.402,4.556 3.235,0 6.031,-1.855 7.401,-4.556 l 18.9,0 c 1.37,2.7 4.167,4.556 7.402,4.556 3.236,0 6.031,-1.855 7.401,-4.556 l -6.567,0 -0.834,-1.445 -1.328,-2.302 1.328,-2.3 0.834,-1.445 z"
       id="path12"
       inkscape:connector-curvature="0"
       style="fill:#034a73;fill-opacity:1" /></g></svg>