<?xml version="1.0" encoding="UTF-8" standalone="no"?>
<svg
   xmlns:dc="http://purl.org/dc/elements/1.1/"
   xmlns:cc="http://creativecommons.org/ns#"
   xmlns:rdf="http://www.w3.org/1999/02/22-rdf-syntax-ns#"
   xmlns:svg="http://www.w3.org/2000/svg"
   xmlns="http://www.w3.org/2000/svg"
   xmlns:sodipodi="http://sodipodi.sourceforge.net/DTD/sodipodi-0.dtd"
   xmlns:inkscape="http://www.inkscape.org/namespaces/inkscape"
   version="1.2"
   x="0px"
   y="0px"
   viewBox="0 0 90 90"
   xml:space="preserve"
   id="svg2"
   inkscape:version="0.48.4 r9939"
   width="100%"
   height="100%"
   sodipodi:docname="noun_530586_cc.svg"><metadata
     id="metadata14"><rdf:RDF><cc:Work
         rdf:about=""><dc:format>image/svg+xml</dc:format><dc:type
           rdf:resource="http://purl.org/dc/dcmitype/StillImage" /><dc:title></dc:title></cc:Work></rdf:RDF></metadata><defs
     id="defs12" /><sodipodi:namedview
     pagecolor="#ffffff"
     bordercolor="#666666"
     borderopacity="1"
     objecttolerance="10"
     gridtolerance="10"
     guidetolerance="10"
     inkscape:pageopacity="0"
     inkscape:pageshadow="2"
     inkscape:window-width="1327"
     inkscape:window-height="744"
     id="namedview10"
     showgrid="false"
     fit-margin-top="0"
     fit-margin-left="0"
     fit-margin-right="0"
     fit-margin-bottom="0"
     inkscape:zoom="1.888"
     inkscape:cx="-48.75"
     inkscape:cy="32.5"
     inkscape:window-x="39"
     inkscape:window-y="24"
     inkscape:window-maximized="1"
     inkscape:current-layer="svg2" /><path
     d="M 74.339,53.292 62.766,50.72 c 2.316,-4.56 3.484,-10.043 3.484,-15.613 0,-0.44 -0.008,-0.867 -0.022,-1.283 1.722,0.029 3.669,-0.081 5.021,-1.287 C 72.056,31.817 72.5,30.806 72.5,29.691 72.5,13.215 60.42,0.309 45,0.309 c -15.42,0 -27.5,12.906 -27.5,29.382 0,1.115 0.444,2.126 1.251,2.847 1.13,1.009 2.725,1.329 5.021,1.289 -0.015,0.415 -0.022,0.841 -0.022,1.281 0,5.57 1.168,11.052 3.484,15.613 L 15.661,53.293 C 6.511,55.326 0,63.442 0,72.816 V 89.691 H 90 V 72.816 C 90,63.442 83.489,55.326 74.339,53.292 z M 35,10.671 v 4.02 h 5 V 8.499 c 0.814,-0.222 1.646,-0.398 2.5,-0.51 v 5.451 h 5 V 7.989 c 0.854,0.112 1.686,0.288 2.5,0.51 v 6.192 h 5 v -4.02 c 4.109,2.549 7.255,6.644 8.844,11.617 C 61.699,21.586 59.265,21.024 56.679,20.604 53.545,19.87 49.652,19.691 45,19.691 c -4.652,0 -8.545,0.179 -11.678,0.912 -2.587,0.42 -5.02,0.982 -7.165,1.684 C 27.745,17.315 30.891,13.22 35,10.671 z M 23.643,28.83 C 26.38,27.135 33.696,24.691 45,24.691 c 11.304,0 18.62,2.444 21.357,4.139 -1.712,-0.039 -4.266,-0.33 -6.457,-0.579 -4.143,-0.473 -9.3,-1.06 -14.9,-1.06 -5.6,0 -10.757,0.587 -14.9,1.06 -2.192,0.249 -4.746,0.54 -6.457,0.579 z m 35.107,6.278 c 0,7.273 -2.896,19.583 -13.75,19.583 -10.854,0 -13.75,-12.31 -13.75,-19.583 0,-0.717 0.029,-1.361 0.074,-1.964 3.902,-0.443 8.642,-0.953 13.676,-0.953 5.034,0 9.774,0.51 13.676,0.953 0.045,0.603 0.074,1.247 0.074,1.964 z M 20,82.191 H 7.5 v -9.375 c 0,-5.904 4.025,-10.922 9.788,-12.202 L 20,60.011 v 22.18 z m 45,0 H 25 v -7.5 h 40 v 7.5 z m 0,-12.5 H 25 V 58.9 l 7.145,-1.588 c 3.315,3.031 7.603,4.879 12.855,4.879 5.252,0 9.54,-1.848 12.855,-4.879 L 65,58.9 v 10.791 z m 17.5,12.5 H 70 v -22.18 l 2.712,0.603 c 5.763,1.281 9.788,6.299 9.788,12.202 v 9.375 z"
     id="path4"
     inkscape:connector-curvature="0"
     style="fill:#034a73;fill-opacity:1" /></svg>