<?xml version="1.0" encoding="UTF-8" standalone="no"?>
<svg
   xmlns:dc="http://purl.org/dc/elements/1.1/"
   xmlns:cc="http://creativecommons.org/ns#"
   xmlns:rdf="http://www.w3.org/1999/02/22-rdf-syntax-ns#"
   xmlns:svg="http://www.w3.org/2000/svg"
   xmlns="http://www.w3.org/2000/svg"
   xmlns:sodipodi="http://sodipodi.sourceforge.net/DTD/sodipodi-0.dtd"
   xmlns:inkscape="http://www.inkscape.org/namespaces/inkscape"
   xml:space="preserve"
   version="1.1"
   style="fill-rule:evenodd"
   viewBox="0 0 751 751"
   x="0px"
   y="0px"
   clip-rule="evenodd"
   id="svg2"
   inkscape:version="0.48.4 r9939"
   width="100%"
   height="100%"
   sodipodi:docname="noun_1709344_cc.svg"><metadata
     id="metadata18"><rdf:RDF><cc:Work
         rdf:about=""><dc:format>image/svg+xml</dc:format><dc:type
           rdf:resource="http://purl.org/dc/dcmitype/StillImage" /><dc:title></dc:title></cc:Work></rdf:RDF></metadata><sodipodi:namedview
     pagecolor="#ffffff"
     bordercolor="#666666"
     borderopacity="1"
     objecttolerance="10"
     gridtolerance="10"
     guidetolerance="10"
     inkscape:pageopacity="0"
     inkscape:pageshadow="2"
     inkscape:window-width="1327"
     inkscape:window-height="744"
     id="namedview16"
     showgrid="false"
     fit-margin-top="0"
     fit-margin-left="0"
     fit-margin-right="0"
     fit-margin-bottom="0"
     inkscape:zoom="0.50279627"
     inkscape:cx="88.873553"
     inkscape:cy="317.82356"
     inkscape:window-x="39"
     inkscape:window-y="24"
     inkscape:window-maximized="1"
     inkscape:current-layer="svg2" /><defs
     id="defs4"><style
       type="text/css"
       id="style6">
   
    .fil0 {fill:black;fill-rule:nonzero}
   
  </style></defs><g
     id="g8"
     transform="translate(11.5,0)"
     style="fill:#034a73;fill-opacity:1"><path
       class="fil0"
       d="m 279,470 16,-39 c -30,-19 -51,-52 -53,-98 -19,0 -37,-7 -37,-30 l 0,-43 c -47,0 -50,-64 -7,-71 5,-71 49,-125 118,-144 l 0,-10 C 316,16 332,0 351,0 l 26,0 c 20,0 35,16 35,35 l 0,10 c 69,19 113,73 118,144 43,6 40,71 -7,71 l 0,43 c 0,23 -18,30 -37,30 -2,46 -23,79 -53,98 l 16,39 12,-6 c 17,4 33,7 50,10 201,40 177,68 217,277 L 0,751 C 33,581 10,517 193,479 c 8,-2 16,-3 24,-5 17,-3 34,-6 50,-10 l 12,6 z m 134,-29 c -15,6 -32,9 -49,9 -17,0 -34,-3 -49,-9 l -16,39 65,31 65,-31 -16,-39 z m 197,83 0,204 91,0 C 686,650 693,559 610,524 z m -22,204 0,-212 c -18,-6 -38,-11 -57,-15 l -97,88 -59,-44 0,182 213,1 z m -155,-168 71,-64 -6,-2 c -12,-2 -23,-4 -34,-6 l -78,37 47,35 z m -292,-44 0,212 212,-1 0,-182 -59,44 -97,-88 c -19,4 -38,9 -56,15 z m -23,212 0,-204 C 36,559 42,650 27,728 l 91,0 z m 106,-232 72,64 47,-35 -79,-37 c -11,2 -22,4 -34,6 l -6,2 z m 188,-428 0,55 c 0,64 -96,64 -96,0 l 0,-55 c -61,19 -95,70 -96,132 l 0,11 -11,0 c -28,0 -22,27 -4,27 106,0 212,0 318,0 19,0 24,-27 -4,-27 l -11,0 0,-11 C 507,138 473,87 412,68 z m 89,192 -15,0 0,51 c 6,0 15,1 15,-8 l 0,-43 z m -37,0 c -67,0 -133,0 -199,0 l 0,68 c 0,48 25,79 58,92 13,5 27,8 41,8 14,0 28,-3 41,-8 33,-13 59,-44 59,-92 l 0,-68 z m -222,0 -15,0 0,43 c 0,9 9,8 15,8 l 0,-51 z M 377,22 351,22 c -7,0 -13,6 -13,13 l 0,88 c 0,34 52,34 52,0 l 0,-88 c 0,-7 -6,-13 -13,-13 z"
       id="path10"
       inkscape:connector-curvature="0"
       style="fill:#034a73;fill-rule:nonzero;fill-opacity:1" /></g></svg>