<?xml version="1.0" encoding="UTF-8" standalone="no"?>
<svg
   xmlns:osb="http://www.openswatchbook.org/uri/2009/osb"
   xmlns:dc="http://purl.org/dc/elements/1.1/"
   xmlns:cc="http://creativecommons.org/ns#"
   xmlns:rdf="http://www.w3.org/1999/02/22-rdf-syntax-ns#"
   xmlns:svg="http://www.w3.org/2000/svg"
   xmlns="http://www.w3.org/2000/svg"
   xmlns:sodipodi="http://sodipodi.sourceforge.net/DTD/sodipodi-0.dtd"
   xmlns:inkscape="http://www.inkscape.org/namespaces/inkscape"
   xml:space="preserve"
   version="1.1"
   style="fill-rule:evenodd"
   viewBox="0 0 295.75 295.75"
   x="0px"
   y="0px"
   clip-rule="evenodd"
   id="svg2"
   inkscape:version="0.48.4 r9939"
   width="100%"
   height="100%"
   sodipodi:docname="logo_ekonomi.svg"><metadata
     id="metadata18"><rdf:RDF><cc:Work
         rdf:about=""><dc:format>image/svg+xml</dc:format><dc:type
           rdf:resource="http://purl.org/dc/dcmitype/StillImage" /><dc:title></dc:title></cc:Work></rdf:RDF></metadata><sodipodi:namedview
     pagecolor="#ffffff"
     bordercolor="#666666"
     borderopacity="1"
     objecttolerance="10"
     gridtolerance="10"
     guidetolerance="10"
     inkscape:pageopacity="0"
     inkscape:pageshadow="2"
     inkscape:window-width="1327"
     inkscape:window-height="744"
     id="namedview16"
     showgrid="false"
     fit-margin-top="0"
     fit-margin-left="0"
     fit-margin-right="0"
     fit-margin-bottom="0"
     inkscape:zoom="0.80181237"
     inkscape:cx="-122.25184"
     inkscape:cy="112.07748"
     inkscape:window-x="39"
     inkscape:window-y="24"
     inkscape:window-maximized="1"
     inkscape:current-layer="g8" /><defs
     id="defs4"><linearGradient
       id="linearGradient5238"
       osb:paint="solid"><stop
         style="stop-color:#000000;stop-opacity:1;"
         offset="0"
         id="stop5240" /></linearGradient><style
       type="text/css"
       id="style6">
   
    .fil0 {fill:black;fill-rule:nonzero}
   
  </style></defs><g
     id="g8"
     transform="translate(-19,-18.25)"><path
       class="fil0"
       d="m 308,300.5 c 9,0 9,13 0,13 l -289,0 0,-288 c 0,-9 13,-9 13,0 l 0,158 64,-46 71,44 117,-111 c 2,-2 7,-2 9,1 3,2 2,7 0,9 l -124,118 -72,-45 -65,47 0,100 35,0 0,-94 55,0 0,94 31,0 0,-60 55,0 0,60 29,0 0,-120 55,0 0,120 16,0 z m -227,0 28,0 0,-81 -28,0 0,81 z m 85,0 28,0 0,-47 -28,0 0,47 z m 85,0 28,0 0,-106 -28,0 0,106 z"
       id="path10"
       inkscape:connector-curvature="0"
       style="fill:#034a73;fill-opacity:1;fill-rule:nonzero" /></g></svg>