<?xml version="1.0" encoding="UTF-8" standalone="no"?>
<svg
   xmlns:dc="http://purl.org/dc/elements/1.1/"
   xmlns:cc="http://creativecommons.org/ns#"
   xmlns:rdf="http://www.w3.org/1999/02/22-rdf-syntax-ns#"
   xmlns:svg="http://www.w3.org/2000/svg"
   xmlns="http://www.w3.org/2000/svg"
   xmlns:sodipodi="http://sodipodi.sourceforge.net/DTD/sodipodi-0.dtd"
   xmlns:inkscape="http://www.inkscape.org/namespaces/inkscape"
   version="1.1"
   x="0px"
   y="0px"
   viewBox="0 0 96 96"
   xml:space="preserve"
   id="svg2"
   inkscape:version="0.91 r13725"
   sodipodi:docname="logo_teknologi_dan_komunikasi.svg"
   width="96"
   height="96"><metadata
     id="metadata84"><rdf:RDF><cc:Work
         rdf:about=""><dc:format>image/svg+xml</dc:format><dc:type
           rdf:resource="http://purl.org/dc/dcmitype/StillImage" /><dc:title>80 all</dc:title></cc:Work></rdf:RDF></metadata><defs
     id="defs82" /><sodipodi:namedview
     pagecolor="#ffffff"
     bordercolor="#666666"
     borderopacity="1"
     objecttolerance="10"
     gridtolerance="10"
     guidetolerance="10"
     inkscape:pageopacity="0"
     inkscape:pageshadow="2"
     inkscape:window-width="1317"
     inkscape:window-height="744"
     id="namedview80"
     showgrid="false"
     fit-margin-top="0"
     fit-margin-left="0"
     fit-margin-right="0"
     fit-margin-bottom="0"
     inkscape:zoom="1.888"
     inkscape:cx="-30.919492"
     inkscape:cy="35.5"
     inkscape:window-x="49"
     inkscape:window-y="24"
     inkscape:window-maximized="1"
     inkscape:current-layer="svg2" /><title
     id="title4">80 all</title><g
     id="g6"
     transform="translate(-2,-2)"
     style="fill:#034a73;fill-opacity:1"><g
       id="g8"
       style="fill:#034a73;fill-opacity:1"><path
         d="m 68,21 -36,0 c -6.1,0 -11,4.9 -11,11 l 0,36 c 0,6.1 4.9,11 11,11 l 36,0 c 6.1,0 11,-4.9 11,-11 L 79,32 C 79,25.9 74.1,21 68,21 Z M 50,63 c -7.2,0 -13,-5.8 -13,-13 0,-7.2 5.8,-13 13,-13 7.2,0 13,5.8 13,13 0,7.2 -5.8,13 -13,13 z"
         id="path10"
         inkscape:connector-curvature="0"
         style="fill:#034a73;fill-opacity:1" /></g><g
       id="g12"
       style="fill:#034a73;fill-opacity:1"><path
         d="m 44,17 c 1.7,0 3,-1.3 3,-3 L 47,5 C 47,3.3 45.7,2 44,2 42.3,2 41,3.3 41,5 l 0,9 c 0,1.7 1.3,3 3,3 z"
         id="path14"
         inkscape:connector-curvature="0"
         style="fill:#034a73;fill-opacity:1" /></g><g
       id="g16"
       style="fill:#034a73;fill-opacity:1"><path
         d="m 56,17 c 1.7,0 3,-1.3 3,-3 L 59,5 C 59,3.3 57.7,2 56,2 54.3,2 53,3.3 53,5 l 0,9 c 0,1.7 1.3,3 3,3 z"
         id="path18"
         inkscape:connector-curvature="0"
         style="fill:#034a73;fill-opacity:1" /></g><g
       id="g20"
       style="fill:#034a73;fill-opacity:1"><path
         d="m 32,17 c 1.7,0 3,-1.3 3,-3 L 35,5 C 35,3.3 33.7,2 32,2 30.3,2 29,3.3 29,5 l 0,9 c 0,1.7 1.3,3 3,3 z"
         id="path22"
         inkscape:connector-curvature="0"
         style="fill:#034a73;fill-opacity:1" /></g><g
       id="g24"
       style="fill:#034a73;fill-opacity:1"><path
         d="m 68,17 c 1.7,0 3,-1.3 3,-3 L 71,5 C 71,3.3 69.7,2 68,2 66.3,2 65,3.3 65,5 l 0,9 c 0,1.7 1.3,3 3,3 z"
         id="path26"
         inkscape:connector-curvature="0"
         style="fill:#034a73;fill-opacity:1" /></g><g
       id="g28"
       style="fill:#034a73;fill-opacity:1"><path
         d="m 44,83 c -1.7,0 -3,1.3 -3,3 l 0,9 c 0,1.7 1.3,3 3,3 1.7,0 3,-1.3 3,-3 l 0,-9 c 0,-1.7 -1.3,-3 -3,-3 z"
         id="path30"
         inkscape:connector-curvature="0"
         style="fill:#034a73;fill-opacity:1" /></g><g
       id="g32"
       style="fill:#034a73;fill-opacity:1"><path
         d="m 56,83 c -1.7,0 -3,1.3 -3,3 l 0,9 c 0,1.7 1.3,3 3,3 1.7,0 3,-1.3 3,-3 l 0,-9 c 0,-1.7 -1.3,-3 -3,-3 z"
         id="path34"
         inkscape:connector-curvature="0"
         style="fill:#034a73;fill-opacity:1" /></g><g
       id="g36"
       style="fill:#034a73;fill-opacity:1"><path
         d="m 32,83 c -1.7,0 -3,1.3 -3,3 l 0,9 c 0,1.7 1.3,3 3,3 1.7,0 3,-1.3 3,-3 l 0,-9 c 0,-1.7 -1.3,-3 -3,-3 z"
         id="path38"
         inkscape:connector-curvature="0"
         style="fill:#034a73;fill-opacity:1" /></g><g
       id="g40"
       style="fill:#034a73;fill-opacity:1"><path
         d="m 68,83 c -1.7,0 -3,1.3 -3,3 l 0,9 c 0,1.7 1.3,3 3,3 1.7,0 3,-1.3 3,-3 l 0,-9 c 0,-1.7 -1.3,-3 -3,-3 z"
         id="path42"
         inkscape:connector-curvature="0"
         style="fill:#034a73;fill-opacity:1" /></g><g
       id="g44"
       style="fill:#034a73;fill-opacity:1"><path
         d="m 95,41 -9,0 c -1.7,0 -3,1.3 -3,3 0,1.7 1.3,3 3,3 l 9,0 c 1.7,0 3,-1.3 3,-3 0,-1.7 -1.3,-3 -3,-3 z"
         id="path46"
         inkscape:connector-curvature="0"
         style="fill:#034a73;fill-opacity:1" /></g><g
       id="g48"
       style="fill:#034a73;fill-opacity:1"><path
         d="m 95,53 -9,0 c -1.7,0 -3,1.3 -3,3 0,1.7 1.3,3 3,3 l 9,0 c 1.7,0 3,-1.3 3,-3 0,-1.7 -1.3,-3 -3,-3 z"
         id="path50"
         inkscape:connector-curvature="0"
         style="fill:#034a73;fill-opacity:1" /></g><g
       id="g52"
       style="fill:#034a73;fill-opacity:1"><path
         d="m 86,35 9,0 c 1.7,0 3,-1.3 3,-3 0,-1.7 -1.3,-3 -3,-3 l -9,0 c -1.7,0 -3,1.3 -3,3 0,1.7 1.3,3 3,3 z"
         id="path54"
         inkscape:connector-curvature="0"
         style="fill:#034a73;fill-opacity:1" /></g><g
       id="g56"
       style="fill:#034a73;fill-opacity:1"><path
         d="m 95,65 -9,0 c -1.7,0 -3,1.3 -3,3 0,1.7 1.3,3 3,3 l 9,0 c 1.7,0 3,-1.3 3,-3 0,-1.7 -1.3,-3 -3,-3 z"
         id="path58"
         inkscape:connector-curvature="0"
         style="fill:#034a73;fill-opacity:1" /></g><g
       id="g60"
       style="fill:#034a73;fill-opacity:1"><path
         d="m 14,41 -9,0 c -1.7,0 -3,1.3 -3,3 0,1.7 1.3,3 3,3 l 9,0 c 1.7,0 3,-1.3 3,-3 0,-1.7 -1.3,-3 -3,-3 z"
         id="path62"
         inkscape:connector-curvature="0"
         style="fill:#034a73;fill-opacity:1" /></g><g
       id="g64"
       style="fill:#034a73;fill-opacity:1"><path
         d="m 14,53 -9,0 c -1.7,0 -3,1.3 -3,3 0,1.7 1.3,3 3,3 l 9,0 c 1.7,0 3,-1.3 3,-3 0,-1.7 -1.3,-3 -3,-3 z"
         id="path66"
         inkscape:connector-curvature="0"
         style="fill:#034a73;fill-opacity:1" /></g><g
       id="g68"
       style="fill:#034a73;fill-opacity:1"><path
         d="m 14,29 -9,0 c -1.7,0 -3,1.3 -3,3 0,1.7 1.3,3 3,3 l 9,0 c 1.7,0 3,-1.3 3,-3 0,-1.7 -1.3,-3 -3,-3 z"
         id="path70"
         inkscape:connector-curvature="0"
         style="fill:#034a73;fill-opacity:1" /></g><g
       id="g72"
       style="fill:#034a73;fill-opacity:1"><path
         d="m 14,65 -9,0 c -1.7,0 -3,1.3 -3,3 0,1.7 1.3,3 3,3 l 9,0 c 1.7,0 3,-1.3 3,-3 0,-1.7 -1.3,-3 -3,-3 z"
         id="path74"
         inkscape:connector-curvature="0"
         style="fill:#034a73;fill-opacity:1" /></g></g></svg>