<?xml version="1.0" encoding="UTF-8" standalone="no"?>
<svg
   xmlns:dc="http://purl.org/dc/elements/1.1/"
   xmlns:cc="http://creativecommons.org/ns#"
   xmlns:rdf="http://www.w3.org/1999/02/22-rdf-syntax-ns#"
   xmlns:svg="http://www.w3.org/2000/svg"
   xmlns="http://www.w3.org/2000/svg"
   xmlns:sodipodi="http://sodipodi.sourceforge.net/DTD/sodipodi-0.dtd"
   xmlns:inkscape="http://www.inkscape.org/namespaces/inkscape"
   xml:space="preserve"
   version="1.1"
   style="fill-rule:evenodd"
   viewBox="0 0 745 745"
   x="0px"
   y="0px"
   clip-rule="evenodd"
   id="svg2"
   inkscape:version="0.48.4 r9939"
   width="100%"
   height="100%"
   sodipodi:docname="noun_1709350_cc.svg"><metadata
     id="metadata18"><rdf:RDF><cc:Work
         rdf:about=""><dc:format>image/svg+xml</dc:format><dc:type
           rdf:resource="http://purl.org/dc/dcmitype/StillImage" /><dc:title></dc:title></cc:Work></rdf:RDF></metadata><sodipodi:namedview
     pagecolor="#ffffff"
     bordercolor="#666666"
     borderopacity="1"
     objecttolerance="10"
     gridtolerance="10"
     guidetolerance="10"
     inkscape:pageopacity="0"
     inkscape:pageshadow="2"
     inkscape:window-width="1327"
     inkscape:window-height="744"
     id="namedview16"
     showgrid="false"
     fit-margin-top="0"
     fit-margin-left="0"
     fit-margin-right="0"
     fit-margin-bottom="0"
     inkscape:zoom="0.36525789"
     inkscape:cx="189.59256"
     inkscape:cy="361.91536"
     inkscape:window-x="39"
     inkscape:window-y="24"
     inkscape:window-maximized="1"
     inkscape:current-layer="svg2" /><defs
     id="defs4"><style
       type="text/css"
       id="style6">
   
    .fil0 {fill:black;fill-rule:nonzero}
   
  </style></defs><g
     id="g8"
     transform="translate(0,7)"
     style="fill:#034a73;fill-opacity:1"><path
       class="fil0"
       d="m 510,194 c 21,0 21,-31 0,-31 l -189,0 c -11,0 -12,-17 0,-17 l 176,0 C 494,96 457,56 410,42 l 0,65 c 0,48 -75,49 -75,0 l 0,-65 c -47,14 -84,54 -87,104 l 47,0 c 11,0 11,17 0,17 l -60,0 c -21,0 -21,31 0,31 92,0 183,0 275,0 z M 0,731 15,599 c 1,-14 20,-10 18,0 l -13,114 125,0 0,-241 c -26,7 -101,27 -104,56 l -4,39 c -1,13 -20,12 -19,0 l 5,-41 c 7,-65 208,-91 259,-97 l 2,4 26,-70 0,0 c -28,-18 -47,-48 -52,-82 -24,-8 -31,-50 -32,-72 -33,-10 -29,-58 6,-62 3,-59 47,-107 103,-122 l 0,-3 C 335,10 345,0 357,0 l 31,0 c 12,0 22,10 22,22 l 0,3 c 56,15 100,63 103,122 35,4 39,52 6,62 -1,22 -8,64 -32,72 -5,34 -24,64 -52,82 l 0,0 26,70 2,-4 c 53,7 252,32 259,97 l 23,205 -745,0 z m 326,-359 -30,81 c 35,35 118,36 153,0 l -30,-81 c -14,6 -30,10 -46,10 -16,0 -32,-4 -47,-10 z m 196,341 0,-58 -299,0 0,58 299,0 z m 18,0 42,0 0,-245 c -10,-3 -20,-5 -30,-7 l 0,61 c 0,29 -21,48 -50,61 -65,27 -194,27 -259,0 -29,-13 -49,-32 -49,-61 l 0,-61 c -11,2 -21,4 -31,7 l 0,245 42,0 0,-77 335,0 0,77 z M 495,566 c 23,-10 38,-24 38,-44 l 0,-64 c -20,-4 -40,-7 -59,-9 -33,66 -170,65 -203,0 -19,2 -39,5 -59,9 l 0,64 c 0,20 15,34 38,44 60,25 185,25 245,0 z m 105,-94 0,241 125,0 -21,-185 c -3,-29 -78,-49 -104,-56 z m -112,-261 0,51 c 10,-12 14,-36 15,-51 l -15,0 z m -16,57 0,-58 -198,0 0,57 c 0,54 44,99 99,99 53,0 98,-44 99,-98 z M 388,16 357,16 c -3,0 -6,3 -6,6 l 0,85 c 0,28 43,28 43,0 l 0,-85 c 0,-3 -3,-6 -6,-6 z m -131,246 0,-51 -15,0 c 1,15 5,39 15,51 z"
       id="path10"
       inkscape:connector-curvature="0"
       style="fill:#034a73;fill-rule:nonzero;fill-opacity:1" /></g></svg>