<?xml version="1.0" encoding="UTF-8" standalone="no"?>
<svg
   xmlns:dc="http://purl.org/dc/elements/1.1/"
   xmlns:cc="http://creativecommons.org/ns#"
   xmlns:rdf="http://www.w3.org/1999/02/22-rdf-syntax-ns#"
   xmlns:svg="http://www.w3.org/2000/svg"
   xmlns="http://www.w3.org/2000/svg"
   xmlns:sodipodi="http://sodipodi.sourceforge.net/DTD/sodipodi-0.dtd"
   xmlns:inkscape="http://www.inkscape.org/namespaces/inkscape"
   xml:space="preserve"
   version="1.1"
   style="clip-rule:evenodd;fill-rule:evenodd;image-rendering:optimizeQuality;shape-rendering:geometricPrecision;text-rendering:geometricPrecision"
   viewBox="0 0 913.87708 913.87708"
   x="0px"
   y="0px"
   id="svg2"
   inkscape:version="0.91 r13725"
   sodipodi:docname="logo_ketenagakerjaan.svg"
   width="913.87708"
   height="913.87708"><metadata
     id="metadata18"><rdf:RDF><cc:Work
         rdf:about=""><dc:format>image/svg+xml</dc:format><dc:type
           rdf:resource="http://purl.org/dc/dcmitype/StillImage" /><dc:title></dc:title></cc:Work></rdf:RDF></metadata><sodipodi:namedview
     pagecolor="#ffffff"
     bordercolor="#666666"
     borderopacity="1"
     objecttolerance="10"
     gridtolerance="10"
     guidetolerance="10"
     inkscape:pageopacity="0"
     inkscape:pageshadow="2"
     inkscape:window-width="1317"
     inkscape:window-height="744"
     id="namedview16"
     showgrid="false"
     fit-margin-top="0"
     fit-margin-left="0"
     fit-margin-right="0"
     fit-margin-bottom="0"
     inkscape:zoom="0.29212639"
     inkscape:cx="-98.193659"
     inkscape:cy="109.54268"
     inkscape:window-x="49"
     inkscape:window-y="24"
     inkscape:window-maximized="1"
     inkscape:current-layer="svg2" /><defs
     id="defs4"><style
       type="text/css"
       id="style6">
   
    .fil0 {fill:black}
   
  </style></defs><g
     id="g8"
     transform="translate(21.883991,-0.12293661)"
     style="fill:#034a73;fill-opacity:1"><path
       class="fil0"
       d="m 394,238 43,42 -1,1 0,0 -48,48 -42,-43 c -32,-32 17,-80 48,-48 z M 228,642 c 53,52 53,137 0,189 -36,36 -88,47 -134,33 l 54,-54 c 24,-24 24,-64 0,-88 l 0,0 C 124,698 84,698 60,722 L 6,776 C -8,730 3,678 39,642 c 52,-52 137,-52 189,0 z m 409,-300 -25,26 -2,-2 -96,-96 c -4,-4 -9,-7 -15,-9 l 29,-28 c 9,24 23,47 42,67 20,19 43,34 67,42 z m -311,312 -50,50 c -6,-26 -19,-51 -39,-71 -20,-20 -45,-33 -70,-39 l 50,-50 7,7 c 1,1 2,2 3,3 l 0,0 99,100 z M 866,135 c 12,55 -3,114 -46,156 -66,67 -174,67 -241,0 C 513,224 513,117 579,50 621,8 680,-8 735,4 l -46,46 c -36,36 -36,95 0,131 l 0,0 c 36,37 95,37 131,0 l 46,-46 z m -361,144 5,4 7,8 84,84 c 75,75 39,191 74,223 L 811,720 618,914 259,569 c 33,2 60,-33 43,-67 40,20 81,-20 62,-60 16,8 37,8 54,-9 l 44,-44 c -16,72 -10,183 50,222 10,7 20,-9 10,-16 -58,-38 -57,-161 -37,-223 3,-9 -8,-16 -15,-10 l 0,0 -61,61 c -33,33 -81,-16 -49,-48 l 85,-85 c 16,-16 46,-25 60,-11 z m -295,144 71,71 c 38,38 -11,86 -48,49 l -72,-72 c -32,-32 17,-80 49,-48 z m 61,-62 72,72 c 13,13 16,28 12,40 l 0,0 -1,0 c -3,11 -13,19 -24,21 l 0,0 0,0 0,0 c -11,2 -24,-1 -36,-13 l -72,-72 c -31,-31 17,-80 49,-48 z m 62,-62 42,43 -24,24 0,0 0,1 0,0 0,0 c -11,10 -15,22 -14,33 l -53,-52 c -32,-32 17,-80 49,-49 z"
       id="path10"
       inkscape:connector-curvature="0"
       style="fill:#034a73;fill-opacity:1" /></g></svg>