<?xml version="1.0" encoding="UTF-8" standalone="no"?>
<svg
   xmlns:dc="http://purl.org/dc/elements/1.1/"
   xmlns:cc="http://creativecommons.org/ns#"
   xmlns:rdf="http://www.w3.org/1999/02/22-rdf-syntax-ns#"
   xmlns:svg="http://www.w3.org/2000/svg"
   xmlns="http://www.w3.org/2000/svg"
   xmlns:sodipodi="http://sodipodi.sourceforge.net/DTD/sodipodi-0.dtd"
   xmlns:inkscape="http://www.inkscape.org/namespaces/inkscape"
   version="1.1"
   x="0px"
   y="0px"
   viewBox="0 0 93.66 93.66"
   enable-background="new 0 0 100 100"
   xml:space="preserve"
   id="svg2"
   inkscape:version="0.48.4 r9939"
   width="100%"
   height="100%"
   sodipodi:docname="noun_1578597_cc.svg"><metadata
     id="metadata18"><rdf:RDF><cc:Work
         rdf:about=""><dc:format>image/svg+xml</dc:format><dc:type
           rdf:resource="http://purl.org/dc/dcmitype/StillImage" /><dc:title></dc:title></cc:Work></rdf:RDF></metadata><defs
     id="defs16" /><sodipodi:namedview
     pagecolor="#ffffff"
     bordercolor="#666666"
     borderopacity="1"
     objecttolerance="10"
     gridtolerance="10"
     guidetolerance="10"
     inkscape:pageopacity="0"
     inkscape:pageshadow="2"
     inkscape:window-width="1327"
     inkscape:window-height="744"
     id="namedview14"
     showgrid="false"
     fit-margin-top="0"
     fit-margin-left="0"
     fit-margin-right="0"
     fit-margin-bottom="0"
     inkscape:zoom="1.888"
     inkscape:cx="-49.809339"
     inkscape:cy="34.516"
     inkscape:window-x="39"
     inkscape:window-y="24"
     inkscape:window-maximized="1"
     inkscape:current-layer="svg2" /><g
     id="g4"
     transform="translate(-5.1435661,-3.3585018)"
     style="fill:#034a73;fill-opacity:1"><path
       d="m 28.006,28.978 0.288,0.122 c 0.895,0.381 1.911,0.814 3.046,0.961 l 1.3,0.171 c 0.024,2.547 0.313,6.662 0.883,9.021 1.424,5.896 3.979,10.455 7.811,13.938 3.179,2.892 6.968,4.346 10.762,4.346 3.491,0 6.988,-1.232 10.018,-3.712 1.65,-1.349 3.187,-3.05 4.568,-5.059 2.814,-4.088 4.412,-8.933 4.883,-14.807 0.05,-0.605 0.04,-2.1 0.024,-3.629 1.501,-0.309 2.918,-0.73 4.158,-1.124 1.101,-0.351 1.867,-0.948 2.276,-1.775 0.623,-1.264 0.156,-2.566 0.002,-2.997 -0.43,-1.189 -1.479,-2.735 -4.041,-3.352 C 73.93,21.069 73.878,21.063 73.824,21.051 71.331,10.904 62.257,3.361 51.47,3.361 c -10.955,0 -20.142,7.783 -22.463,18.172 -1.467,0.692 -2.495,1.857 -2.915,3.406 -0.474,1.76 0.276,3.345 1.914,4.039 z m 39.572,4.657 c -0.413,5.161 -1.785,9.368 -4.191,12.864 -1.168,1.697 -2.447,3.12 -3.805,4.229 -4.8,3.926 -10.905,3.732 -15.558,-0.497 -3.22,-2.927 -5.383,-6.825 -6.612,-11.917 -0.441,-1.828 -0.705,-5.222 -0.76,-7.562 2.26,0.282 4.551,0.533 6.843,0.659 3.447,0.189 6.695,0.285 9.794,0.285 5.104,0 9.794,-0.275 14.307,-0.8 0.008,1.008 0.014,2.345 -0.018,2.739 z M 51.471,7.361 c 10.426,0 18.911,8.551 19.025,19.104 -0.348,0.067 -0.697,0.131 -1.048,0.18 -7.685,1.069 -15.861,1.314 -25.734,0.772 -3.225,-0.177 -6.53,-0.617 -9.726,-1.042 l -1.527,-0.201 c 0.012,-0.46 0.025,-0.92 0.068,-1.372 L 32.9,24.782 32.796,22.967 C 34.507,14.086 42.227,7.361 51.471,7.361 z"
       id="path6"
       inkscape:connector-curvature="0"
       style="fill:#034a73;fill-opacity:1" /><path
       d="M 97.324,94.023 96.312,86.924 C 95.504,81.277 94.698,75.63 93.92,69.982 93.425,66.385 91.454,64.679 89.89,63.881 87.861,62.847 85.816,61.964 83.65,61.028 82.747,60.637 81.829,60.241 80.898,59.826 L 79.22,59.08 C 77.273,58.045 74.895,56.9 72.877,55.932 71.91,55.466 71.033,55.044 70.346,54.703 l -2.707,-1.347 -1.438,24.03 H 38.066 l -1.437,-24.045 -3.597,1.798 c -2.75,1.374 -7.819,3.906 -9.859,4.862 l -0.164,0.054 c -0.181,0.059 -0.317,0.103 -0.46,0.155 -0.684,0.256 -1.369,0.507 -2.054,0.758 -1.734,0.638 -3.527,1.296 -5.279,2.013 -0.948,0.39 -2.23,1.099 -2.958,2.271 -0.652,1.063 -1.548,2.678 -1.819,4.426 C 9.581,75.203 8.797,80.824 8.038,86.261 L 7.346,91.2 c -0.109,0.763 -0.205,1.526 -0.302,2.3 l -0.455,3.516 h 13.353 7.291 51.158 v -0.015 h 18.957 l 0.004,-2.187 c 0.007,-0.214 0.017,-0.48 -0.028,-0.791 z M 19.942,93.016 h -8.805 c 0.054,-0.418 0.11,-0.834 0.17,-1.252 L 12,86.814 c 0.756,-5.422 1.539,-11.028 2.392,-16.523 0.161,-1.038 0.805,-2.18 1.27,-2.938 0.068,-0.104 0.421,-0.403 1.072,-0.672 1.683,-0.688 3.44,-1.334 5.139,-1.957 0.043,-0.016 0.085,-0.031 0.127,-0.047 l 1.077,28.338 h -3.135 z m 7.139,0 -1.137,-29.904 c 1.889,-0.912 4.75,-2.335 7.054,-3.485 l 1.301,21.759 h 35.672 l 1.301,-21.787 c 2.219,1.066 4.85,2.336 6.762,3.39 L 76.896,93.017 H 27.081 z M 80.898,93.001 81.97,64.66 c 0.031,0.014 0.063,0.027 0.094,0.04 2.104,0.909 4.093,1.769 6.008,2.745 0.675,0.344 1.604,1.037 1.886,3.082 0.778,5.656 1.586,11.31 2.394,16.964 l 0.789,5.51 H 80.898 z"
       id="path8"
       inkscape:connector-curvature="0"
       style="fill:#034a73;fill-opacity:1" /></g></svg>