<?xml version="1.0" encoding="UTF-8" standalone="no"?>
<svg
   xmlns:dc="http://purl.org/dc/elements/1.1/"
   xmlns:cc="http://creativecommons.org/ns#"
   xmlns:rdf="http://www.w3.org/1999/02/22-rdf-syntax-ns#"
   xmlns:svg="http://www.w3.org/2000/svg"
   xmlns="http://www.w3.org/2000/svg"
   xmlns:sodipodi="http://sodipodi.sourceforge.net/DTD/sodipodi-0.dtd"
   xmlns:inkscape="http://www.inkscape.org/namespaces/inkscape"
   version="1.1"
   x="0px"
   y="0px"
   viewBox="0 0 80 80"
   xml:space="preserve"
   id="svg2"
   inkscape:version="0.48.4 r9939"
   width="100%"
   height="100%"
   sodipodi:docname="noun_1711960_cc.svg"><metadata
     id="metadata16"><rdf:RDF><cc:Work
         rdf:about=""><dc:format>image/svg+xml</dc:format><dc:type
           rdf:resource="http://purl.org/dc/dcmitype/StillImage" /><dc:title></dc:title></cc:Work></rdf:RDF></metadata><defs
     id="defs14" /><sodipodi:namedview
     pagecolor="#ffffff"
     bordercolor="#666666"
     borderopacity="1"
     objecttolerance="10"
     gridtolerance="10"
     guidetolerance="10"
     inkscape:pageopacity="0"
     inkscape:pageshadow="2"
     inkscape:window-width="1327"
     inkscape:window-height="744"
     id="namedview12"
     showgrid="false"
     fit-margin-top="0"
     fit-margin-left="0"
     fit-margin-right="0"
     fit-margin-bottom="0"
     inkscape:zoom="1.888"
     inkscape:cx="-53.220339"
     inkscape:cy="27.5"
     inkscape:window-x="39"
     inkscape:window-y="24"
     inkscape:window-maximized="1"
     inkscape:current-layer="svg2" /><path
     d="m 61.75,33.008789 h 7.7901 c 0.469299,2.434326 2.609924,4.280762 5.179138,4.280762 2.911621,0 5.280762,-2.369141 5.280762,-5.280762 0,-2.911621 -2.369141,-5.280273 -5.280762,-5.280273 -2.569214,0 -4.709839,1.846069 -5.179138,4.280273 H 61.75 V 19.25 c 0,-0.552246 -0.447754,-1 -1,-1 h -1.140625 v -2.666504 c 0,-0.552246 -0.447754,-1 -1,-1 -0.552246,0 -1,0.447754 -1,1 V 18.25 h -3.337891 v -2.666504 c 0,-0.552246 -0.447753,-1 -1,-1 -0.552246,0 -1,0.447754 -1,1 V 18.25 h -3.280273 v -4.968811 c 2.434204,-0.469421 4.280273,-2.610413 4.280273,-5.179627 0,-2.911621 -2.368652,-5.280273 -5.280273,-5.280273 -2.911621,0 -5.280762,2.368652 -5.280762,5.280273 0,2.569214 1.846436,4.710206 4.280762,5.179627 V 18.25 h -3.330078 v -2.666504 c 0,-0.552246 -0.447754,-1 -1,-1 -0.552246,0 -1,0.447754 -1,1 V 18.25 h -3.330078 v -2.666504 c 0,-0.552246 -0.447754,-1 -1,-1 -0.552246,0 -1,0.447754 -1,1 V 18.25 H 33.008789 V 10.4599 C 35.443115,9.990601 37.289551,7.849976 37.289551,5.280762 37.289551,2.369141 34.92041,0 32.008789,0 c -2.911621,0 -5.280273,2.369141 -5.280273,5.280762 0,2.569214 1.846069,4.709839 4.280273,5.179138 V 18.25 h -3.337891 v -2.666504 c 0,-0.552246 -0.447753,-1 -1,-1 -0.552246,0 -1,0.447754 -1,1 V 18.25 h -3.337402 v -2.666504 c 0,-0.552246 -0.447754,-1 -1,-1 -0.552246,0 -1,0.447754 -1,1 V 18.25 H 19.25 c -0.552246,0 -1,0.447754 -1,1 V 31.008789 H 10.4599 C 9.990601,28.574585 7.849976,26.728516 5.280762,26.728516 2.369141,26.728516 0,29.097168 0,32.008789 c 0,2.911621 2.369141,5.280762 5.280762,5.280762 2.569214,0 4.709839,-1.846436 5.179138,-4.280762 H 18.25 V 46.991211 H 10.4599 C 9.990601,44.556885 7.849976,42.710449 5.280762,42.710449 2.369141,42.710449 0,45.07959 0,47.991211 c 0,2.911621 2.369141,5.280273 5.280762,5.280273 2.569214,0 4.709839,-1.846069 5.179138,-4.280273 H 18.25 V 60.75 c 0,0.552246 0.447754,1 1,1 h 1.140625 v 2.666504 c 0,0.552246 0.447754,1 1,1 0.552246,0 1,-0.447754 1,-1 V 61.75 h 3.337891 v 2.666504 c 0,0.552246 0.447754,1 1,1 0.552246,0 1,-0.447754 1,-1 V 61.75 h 3.280273 v 4.968811 c -2.434204,0.469421 -4.280273,2.610413 -4.280273,5.179626 0,2.911622 2.368652,5.280274 5.280273,5.280274 2.911621,0 5.280762,-2.368652 5.280762,-5.280274 0,-2.569213 -1.846436,-4.710205 -4.280762,-5.179626 V 61.75 h 3.330078 v 2.666504 c 0,0.552246 0.447754,1 1,1 0.552246,0 1,-0.447754 1,-1 V 61.75 h 3.330078 v 2.666504 c 0,0.552246 0.447754,1 1,1 0.552246,0 1,-0.447754 1,-1 V 61.75 h 3.322266 v 7.7901 c -2.434326,0.469299 -4.280762,2.609924 -4.280762,5.179138 0,2.911621 2.369141,5.280762 5.280762,5.280762 2.911621,0 5.280273,-2.369141 5.280273,-5.280762 0,-2.569214 -1.846069,-4.709839 -4.280273,-5.179138 V 61.75 h 3.33789 v 2.666504 c 0,0.552246 0.447754,1 1,1 0.552247,0 1.000001,-0.447754 1.000001,-1 V 61.75 h 3.337402 v 2.666504 c 0,0.552246 0.447754,1 1,1 0.552246,0 1,-0.447754 1,-1 V 61.75 H 60.75 c 0.552246,0 1,-0.447754 1,-1 V 48.991211 h 7.7901 c 0.469299,2.434204 2.609924,4.280273 5.179138,4.280273 2.911621,0 5.280762,-2.368652 5.280762,-5.280273 0,-2.911621 -2.369141,-5.280762 -5.280762,-5.280762 -2.569214,0 -4.709839,1.846436 -5.179138,4.280762 H 61.75 V 33.008789 z m 12.969238,-4.280273 c 1.809082,0 3.280762,1.471679 3.280762,3.280273 0,1.809082 -1.47168,3.280762 -3.280762,3.280762 -1.808593,0 -3.280273,-1.47168 -3.280273,-3.280762 0,-1.808594 1.47168,-3.280273 3.280273,-3.280273 z M 44.710449,8.101562 c 0,-1.808593 1.47168,-3.280273 3.280762,-3.280273 1.808594,0 3.280273,1.47168 3.280273,3.280273 0,1.809082 -1.471679,3.280762 -3.280273,3.280762 -1.809082,0 -3.280762,-1.47168 -3.280762,-3.280762 z M 28.728516,5.280762 C 28.728516,3.47168 30.200195,2 32.008789,2 c 1.809082,0 3.280762,1.47168 3.280762,3.280762 0,1.808593 -1.47168,3.280273 -3.280762,3.280273 -1.808594,0 -3.280273,-1.47168 -3.280273,-3.280273 z M 5.280762,35.289551 C 3.47168,35.289551 2,33.817871 2,32.008789 c 0,-1.808594 1.47168,-3.280273 3.280762,-3.280273 1.808593,0 3.280273,1.471679 3.280273,3.280273 0,1.809082 -1.47168,3.280762 -3.280273,3.280762 z m 0,15.981933 C 3.47168,51.271484 2,49.799805 2,47.991211 c 0,-1.809082 1.47168,-3.280762 3.280762,-3.280762 1.808593,0 3.280273,1.47168 3.280273,3.280762 0,1.808594 -1.47168,3.280273 -3.280273,3.280273 z m 30.008789,20.626953 c 0,1.808594 -1.47168,3.280274 -3.280762,3.280274 -1.808594,0 -3.280273,-1.47168 -3.280273,-3.280274 0,-1.809082 1.471679,-3.280761 3.280273,-3.280761 1.809082,0 3.280762,1.471679 3.280762,3.280761 z m 15.981933,2.820801 C 51.271484,76.52832 49.799805,78 47.991211,78 c -1.809082,0 -3.280762,-1.47168 -3.280762,-3.280762 0,-1.808593 1.47168,-3.280273 3.280762,-3.280273 1.808594,0 3.280273,1.47168 3.280273,3.280273 z M 74.719238,44.710449 c 1.809082,0 3.280762,1.47168 3.280762,3.280762 0,1.808594 -1.47168,3.280273 -3.280762,3.280273 -1.808593,0 -3.280273,-1.471679 -3.280273,-3.280273 0,-1.809082 1.47168,-3.280762 3.280273,-3.280762 z M 59.75,59.75 h -39.5 v -39.5 h 39.5 v 39.5 z"
     id="path4"
     inkscape:connector-curvature="0"
     style="fill:#034a73;fill-opacity:1" /><path
     d="m 28.246582,52.753418 h 23.506836 c 0.552246,0 1,-0.447754 1,-1 V 28.246582 c 0,-0.552246 -0.447754,-1 -1,-1 H 28.246582 c -0.552246,0 -1,0.447754 -1,1 v 23.506836 c 0,0.552246 0.447754,1 1,1 z m 1,-23.506836 H 50.753418 V 50.753418 H 29.246582 V 29.246582 z"
     id="path6"
     inkscape:connector-curvature="0"
     style="fill:#034a73;fill-opacity:1" /></svg>