<?xml version="1.0" encoding="UTF-8" standalone="no"?>
<svg
   xmlns:dc="http://purl.org/dc/elements/1.1/"
   xmlns:cc="http://creativecommons.org/ns#"
   xmlns:rdf="http://www.w3.org/1999/02/22-rdf-syntax-ns#"
   xmlns:svg="http://www.w3.org/2000/svg"
   xmlns="http://www.w3.org/2000/svg"
   xmlns:sodipodi="http://sodipodi.sourceforge.net/DTD/sodipodi-0.dtd"
   xmlns:inkscape="http://www.inkscape.org/namespaces/inkscape"
   version="1.1"
   x="0px"
   y="0px"
   viewBox="0 0 96 96"
   enable-background="new 0 0 100 100"
   xml:space="preserve"
   id="svg2"
   inkscape:version="0.48.4 r9939"
   width="100%"
   height="100%"
   sodipodi:docname="noun_417310_cc.svg"><metadata
     id="metadata14"><rdf:RDF><cc:Work
         rdf:about=""><dc:format>image/svg+xml</dc:format><dc:type
           rdf:resource="http://purl.org/dc/dcmitype/StillImage" /><dc:title></dc:title></cc:Work></rdf:RDF></metadata><defs
     id="defs12" /><sodipodi:namedview
     pagecolor="#ffffff"
     bordercolor="#666666"
     borderopacity="1"
     objecttolerance="10"
     gridtolerance="10"
     guidetolerance="10"
     inkscape:pageopacity="0"
     inkscape:pageshadow="2"
     inkscape:window-width="1327"
     inkscape:window-height="744"
     id="namedview10"
     showgrid="false"
     fit-margin-top="0"
     fit-margin-left="0"
     fit-margin-right="0"
     fit-margin-bottom="0"
     inkscape:zoom="1.888"
     inkscape:cx="-47.520339"
     inkscape:cy="35.5"
     inkscape:window-x="39"
     inkscape:window-y="24"
     inkscape:window-maximized="1"
     inkscape:current-layer="svg2" /><path
     d="m 61,35.3 2.4,-1.4 c 0.4,-0.2 1,-0.2 1.3,0 l 4.2,2.4 c 0.4,0.2 0.4,0.6 0,0.8 l -2.4,1.4 c -0.4,0.2 -1,0.2 -1.3,0 L 61,36.1 c -0.4,-0.2 -0.4,-0.6 0,-0.8 z m -34,-18.8 4.2,2.4 c 0.4,0.2 1,0.2 1.3,0 l 2.4,-1.4 c 0.4,-0.2 0.4,-0.6 0,-0.8 l -4.2,-2.4 c -0.4,-0.2 -1,-0.2 -1.3,0 L 27,15.7 c -0.3,0.2 -0.3,0.6 0,0.8 z m 66.6,16.3 0,11.4 0,0 0,0 0,21.3 0.1,0 -0.1,0.1 0,10.7 L 59.5,96 58.4,95.4 55.3,93.6 2.4,63 V 52.4 l -0.1,0 0.1,0 V 41.7 l -0.1,0 0.1,0 V 31.1 l -0.1,0 0.1,0 V 20.2 h 0 C 2.3,19.9 2.5,19.5 2.9,19.3 l 32.6,-19 c 0.7,-0.4 2,-0.4 2.7,0 L 93.1,32 c 0.3,0.2 0.5,0.5 0.6,0.7 l 0,0 -0.1,0.1 c 0,-0.1 0,0 0,0 z m -4.1,2.8 -29.1,16.9 c -0.7,0.4 -2,0.4 -2.7,0 L 6.5,22.9 v 5.6 L 59.4,59.1 89.5,41.6 v -6 z M 16.9,23 c -0.3,0.2 -0.7,0.3 -1,0.5 l 36.9,21.3 c 0.2,-0.1 0.4,-0.3 0.6,-0.4 2.8,-1.6 7.3,-1.6 10.1,0 0.4,0.3 0.8,0.5 1.1,0.8 L 80,36.3 c -0.5,-0.2 -1,-0.4 -1.4,-0.6 -2.8,-1.6 -2.8,-4.2 0,-5.8 0.4,-0.2 0.9,-0.4 1.4,-0.6 L 43,7.9 c -0.2,0.2 -0.5,0.4 -0.8,0.6 -2.8,1.6 -7.3,1.6 -10.1,0 C 31.8,8.3 31.5,8.1 31.3,7.9 l -15.2,8.8 c 0.3,0.1 0.7,0.3 1,0.5 2.6,1.6 2.6,4.2 -0.2,5.8 z M 6.5,33.4 v 5.7 l 53,30.7 30,-17.8 V 46.5 L 59.4,64 58.3,63.4 55.2,61.6 6.5,33.4 z m 0,10.6 v 5.7 L 59.4,80.3 89.5,62.8 V 57.2 L 59.5,74.7 58.4,74.1 55.3,72.3 6.5,44 z m 83,29.6 V 67.8 L 59.4,85.3 58.3,84.7 55.2,82.9 6.5,54.7 v 5.7 l 53,30.7 30,-17.5 z M 37,20.1 c 6,-3.5 15.7,-3.5 21.8,0 6,3.5 6.1,9.1 0.1,12.6 -6,3.5 -15.7,3.5 -21.8,0 C 31.1,29.2 31,23.6 37,20.1 z m 2.6,10.8 1.2,0.7 c 0.2,0.1 0.5,0.1 0.7,0 l 1.4,-0.8 c 1,0.4 2,0.6 3,0.6 1.2,0 2.3,-0.3 3.3,-0.8 1,-0.6 1.5,-1.2 1.5,-1.9 C 50.6,28 50.2,27.1 49.5,26 49.2,25.5 49,25.2 49.1,24.9 c 0,-0.3 0.2,-0.5 0.6,-0.7 0.4,-0.2 0.8,-0.4 1.2,-0.4 0.4,0 0.9,0.1 1.3,0.3 0.4,0.2 0.6,0.5 0.5,0.8 -0.1,0.2 -0.3,0.5 -0.7,0.8 -0.2,0.1 -0.1,0.3 0.1,0.4 l 2.1,1.2 c 0.2,0.1 0.6,0.1 0.8,0 0.8,-0.5 1.3,-1.1 1.4,-1.8 0.1,-0.7 -0.2,-1.3 -0.9,-1.9 L 57,22.7 c 0.2,-0.1 0.2,-0.3 0,-0.4 l -1.2,-0.7 c -0.2,-0.1 -0.5,-0.1 -0.7,0 l -1.5,0.9 c -1.1,-0.5 -2.2,-0.7 -3.3,-0.7 -1.3,0 -2.4,0.3 -3.3,0.8 -1.1,0.6 -1.6,1.3 -1.5,1.9 0.1,0.7 0.5,1.5 1.3,2.6 0.3,0.5 0.5,0.8 0.4,1.1 0,0.3 -0.3,0.5 -0.7,0.8 -0.4,0.2 -0.8,0.3 -1.3,0.4 -0.4,0 -0.9,-0.1 -1.3,-0.3 -0.5,-0.3 -0.7,-0.6 -0.7,-1 0,-0.3 0.2,-0.6 0.7,-0.9 0.2,-0.1 0.1,-0.3 -0.1,-0.4 l -2.1,-1.2 c -0.2,-0.1 -0.6,-0.1 -0.8,0 -1,0.7 -1.5,1.3 -1.4,2.1 0.1,0.8 0.6,1.5 1.5,2.2 l -1.4,0.8 c -0.2,0 -0.2,0.1 0,0.2 z"
     id="path4"
     inkscape:connector-curvature="0"
     style="fill:#034a73;fill-opacity:1" /></svg>