<?xml version="1.0" encoding="UTF-8" standalone="no"?>
<svg
   xmlns:dc="http://purl.org/dc/elements/1.1/"
   xmlns:cc="http://creativecommons.org/ns#"
   xmlns:rdf="http://www.w3.org/1999/02/22-rdf-syntax-ns#"
   xmlns:svg="http://www.w3.org/2000/svg"
   xmlns="http://www.w3.org/2000/svg"
   xmlns:sodipodi="http://sodipodi.sourceforge.net/DTD/sodipodi-0.dtd"
   xmlns:inkscape="http://www.inkscape.org/namespaces/inkscape"
   viewBox="0 0 32.032001 32.032001"
   x="0px"
   y="0px"
   id="svg2"
   version="1.1"
   inkscape:version="0.91 r13725"
   sodipodi:docname="logo_agroindustri.svg"
   width="32.032001"
   height="32.032001">
  <metadata
     id="metadata14">
    <rdf:RDF>
      <cc:Work
         rdf:about="">
        <dc:format>image/svg+xml</dc:format>
        <dc:type
           rdf:resource="http://purl.org/dc/dcmitype/StillImage" />
        <dc:title></dc:title>
      </cc:Work>
    </rdf:RDF>
  </metadata>
  <defs
     id="defs12" />
  <sodipodi:namedview
     pagecolor="#ffffff"
     bordercolor="#666666"
     borderopacity="1"
     objecttolerance="10"
     gridtolerance="10"
     guidetolerance="10"
     inkscape:pageopacity="0"
     inkscape:pageshadow="2"
     inkscape:window-width="1317"
     inkscape:window-height="744"
     id="namedview10"
     showgrid="false"
     fit-margin-top="0"
     fit-margin-left="0"
     fit-margin-right="0"
     fit-margin-bottom="0"
     inkscape:zoom="5.9"
     inkscape:cx="-9.3502373"
     inkscape:cy="9.888"
     inkscape:window-x="49"
     inkscape:window-y="24"
     inkscape:window-maximized="1"
     inkscape:current-layer="svg2" />
  <path
     d="m 16.224,3.0240006 -2.848,9.9840004 -3.776,0 0,-7.6800004 -1.632,0 0,7.6160004 -5.408,0.672 0.448,4.992 -3.008,0 0,5.28 2.08,0 0,0.352 c 0,2.656 2.176,4.768 4.768,4.768 2.56,0 4.768,-2.08 4.768,-4.768 0,-0.928 -0.256,-1.792 -0.736,-2.528 l 5.184,0 c 0.384,4.16 3.904,7.264 7.968,7.264 4.288,0 8,-3.52 8,-8 0,-3.584 -2.336,-6.528 -5.472,-7.584 l 0,-10.3360004 -10.336,0 z m 1.632,1.984 6.496,0 0,7.9680004 -0.352,0 c -0.96,0 -1.888,0.192 -2.752,0.512 l -5.568,-0.448 2.176,-8.0000004 z M 24,17.776001 c 2.048,0 3.264,1.504 3.264,3.2 0,1.696 -1.216,3.2 -3.264,3.2 -2.048,0 -3.264,-1.504 -3.264,-3.2 0,-1.696 1.216,-3.2 3.264,-3.2 z m -17.184,4.16 c 1.408,0 2.464,1.088 2.464,2.304 0,1.248 -1.024,2.304 -2.464,2.304 -1.408,0 -2.464,-1.088 -2.464,-2.304 0,-1.248 1.024,-2.304 2.464,-2.304 z"
     id="path4"
     inkscape:connector-curvature="0"
     style="fill:#034a73;fill-opacity:1" />
</svg>
