<?xml version="1.0" encoding="UTF-8" standalone="no"?>
<svg
   xmlns:dc="http://purl.org/dc/elements/1.1/"
   xmlns:cc="http://creativecommons.org/ns#"
   xmlns:rdf="http://www.w3.org/1999/02/22-rdf-syntax-ns#"
   xmlns:svg="http://www.w3.org/2000/svg"
   xmlns="http://www.w3.org/2000/svg"
   xmlns:sodipodi="http://sodipodi.sourceforge.net/DTD/sodipodi-0.dtd"
   xmlns:inkscape="http://www.inkscape.org/namespaces/inkscape"
   version="1.1"
   x="0px"
   y="0px"
   viewBox="0 0 24.000036 24"
   xml:space="preserve"
   id="svg2"
   inkscape:version="0.48.4 r9939"
   width="100%"
   height="100%"
   sodipodi:docname="noun_213788_cc.svg"><metadata
     id="metadata54"><rdf:RDF><cc:Work
         rdf:about=""><dc:format>image/svg+xml</dc:format><dc:type
           rdf:resource="http://purl.org/dc/dcmitype/StillImage" /><dc:title></dc:title></cc:Work></rdf:RDF></metadata><defs
     id="defs52" /><sodipodi:namedview
     pagecolor="#ffffff"
     bordercolor="#666666"
     borderopacity="1"
     objecttolerance="10"
     gridtolerance="10"
     guidetolerance="10"
     inkscape:pageopacity="0"
     inkscape:pageshadow="2"
     inkscape:window-width="1327"
     inkscape:window-height="744"
     id="namedview50"
     showgrid="false"
     fit-margin-top="0"
     fit-margin-left="0"
     fit-margin-right="0"
     fit-margin-bottom="0"
     inkscape:zoom="11.125147"
     inkscape:cx="-3.1032431"
     inkscape:cy="0.88814298"
     inkscape:window-x="39"
     inkscape:window-y="24"
     inkscape:window-maximized="1"
     inkscape:current-layer="svg2" /><g
     id="g4"
     transform="translate(5.1808019e-4,0)"
     style="fill:#034a73;fill-opacity:1"><g
       id="g6"
       style="fill:#034a73;fill-opacity:1"><g
         id="g8"
         style="fill:#034a73;fill-opacity:1"><g
           id="g10"
           style="fill:#034a73;fill-opacity:1"><path
             d="M 23.5,24 H 0.5 C 0.35,24 0.208,23.933 0.113,23.817 0.018,23.701 -0.02,23.549 0.009,23.402 l 0.685,-3.423 c 0.23,-1.152 1.017,-2.106 2.104,-2.552 L 6.911,15.741 C 7.103,15.662 7.327,15.712 7.469,15.866 8.731,17.242 10.34,18 12,18 c 1.66,0 3.269,-0.758 4.53,-2.134 0.141,-0.154 0.366,-0.204 0.558,-0.125 l 4.113,1.686 c 0,0 0,0 0,0 1.087,0.446 1.874,1.4 2.104,2.552 l 0.685,3.423 c 0.029,0.147 -0.009,0.299 -0.104,0.415 C 23.792,23.933 23.65,24 23.5,24 z M 1.11,23 H 22.89 L 22.325,20.175 C 22.16,19.352 21.598,18.671 20.822,18.352 L 17.025,16.795 C 15.609,18.22 13.837,19 12,19 10.163,19 8.391,18.22 6.975,16.796 l -3.797,1.557 c -0.776,0.318 -1.338,1 -1.503,1.823 L 1.11,23 z"
             id="path12"
             inkscape:connector-curvature="0"
             style="fill:#034a73;fill-opacity:1" /></g><g
           id="g14"
           style="fill:#034a73;fill-opacity:1"><path
             d="M 12,17 C 9.536,17 7.347,15.01 6.438,11.998 5.614,11.948 5,10.891 5,9.5 L 5,9.238 C 4.996,8.31 4.993,7.639 5.379,7.252 5.543,7.087 5.758,7 6,7 6.275,7 6.495,7.222 6.497,7.497 6.498,7.747 6.313,7.955 6.073,7.994 5.995,8.201 5.998,8.792 6,9.234 L 6,9.5 C 6,10.468 6.375,11 6.5,11 6.636,10.915 6.819,10.892 6.967,10.951 7.115,11.012 7.24,11.127 7.279,11.282 7.979,14.104 9.876,16 12,16 14.124,16 16.021,14.104 16.721,11.282 16.76,11.127 16.87,11 17.017,10.94 17.165,10.88 17.333,10.894 17.469,10.978 17.633,11 18,10.468 18,9.5 L 18,9.234 C 18.002,8.792 18.004,8.201 17.927,7.994 17.686,7.956 17.501,7.747 17.503,7.497 17.505,7.222 17.725,7 18,7 18.242,7 18.457,7.087 18.621,7.252 19.007,7.639 19.004,8.31 19,9.238 L 19,9.5 c 0,1.391 -0.614,2.448 -1.438,2.498 C 16.653,15.01 14.464,17 12,17 z"
             id="path16"
             inkscape:connector-curvature="0"
             style="fill:#034a73;fill-opacity:1" /></g><g
           id="g18"
           style="fill:#034a73;fill-opacity:1"><path
             d="M 12,5 C 10.897,5 10,4.103 10,3 V 1 C 10,0.848 10.069,0.705 10.188,0.609 10.219,0.584 10.961,0 12,0 13.039,0 13.781,0.584 13.813,0.609 13.931,0.705 14,0.848 14,1 v 2 c 0,1.103 -0.897,2 -2,2 z M 11,1.272 V 3 c 0,0.551 0.449,1 1,1 0.551,0 1,-0.449 1,-1 V 1.272 C 12.793,1.157 12.431,1 12,1 11.569,1 11.208,1.157 11,1.272 z"
             id="path20"
             inkscape:connector-curvature="0"
             style="fill:#034a73;fill-opacity:1" /></g><g
           id="g22"
           style="fill:#034a73;fill-opacity:1"><path
             d="M 13.066,10 H 10.934 C 9.902,10 8.894,9.711 8.019,9.164 L 5.235,7.424 C 5.082,7.328 4.992,7.157 5,6.976 5.009,6.795 5.114,6.634 5.276,6.553 L 6.005,6.189 C 6.108,2.979 7.81,1 10.5,1 10.776,1 11,1.224 11,1.5 11,1.776 10.776,2 10.5,2 7.252,2 7,5.444 7,6.5 7,6.689 6.893,6.862 6.724,6.947 L 6.521,7.048 8.549,8.316 C 9.265,8.764 10.089,9 10.934,9 h 2.132 c 0.845,0 1.669,-0.236 2.385,-0.684 L 17.479,7.048 17.276,6.947 C 17.107,6.862 17,6.689 17,6.5 17,5.444 16.748,2 13.5,2 13.224,2 13,1.776 13,1.5 13,1.224 13.224,1 13.5,1 c 2.69,0 4.392,1.979 4.495,5.188 l 0.729,0.364 c 0.161,0.082 0.267,0.243 0.276,0.424 0.008,0.181 -0.081,0.352 -0.234,0.448 l -2.784,1.74 C 15.106,9.711 14.098,10 13.066,10 z"
             id="path24"
             inkscape:connector-curvature="0"
             style="fill:#034a73;fill-opacity:1" /></g></g></g><g
       id="g26"
       style="fill:#034a73;fill-opacity:1"><path
         d="M 12,10 C 10.346,10 9,8.654 9,7 9,5.346 10.346,4 12,4 c 1.654,0 3,1.346 3,3 0,1.654 -1.346,3 -3,3 z m 0,-5 c -1.103,0 -2,0.897 -2,2 0,1.103 0.897,2 2,2 1.103,0 2,-0.897 2,-2 0,-1.103 -0.897,-2 -2,-2 z"
         id="path28"
         inkscape:connector-curvature="0"
         style="fill:#034a73;fill-opacity:1" /></g><g
       id="g30"
       style="fill:#034a73;fill-opacity:1"><path
         d="M 4.5,24 C 4.224,24 4,23.776 4,23.5 v -6 C 4,17.224 4.224,17 4.5,17 4.776,17 5,17.224 5,17.5 v 6 C 5,23.776 4.776,24 4.5,24 z"
         id="path32"
         inkscape:connector-curvature="0"
         style="fill:#034a73;fill-opacity:1" /></g><g
       id="g34"
       style="fill:#034a73;fill-opacity:1"><path
         d="M 6.5,24 C 6.224,24 6,23.776 6,23.5 v -7 C 6,16.224 6.224,16 6.5,16 6.776,16 7,16.224 7,16.5 v 7 C 7,23.776 6.776,24 6.5,24 z"
         id="path36"
         inkscape:connector-curvature="0"
         style="fill:#034a73;fill-opacity:1" /></g><g
       id="g38"
       style="fill:#034a73;fill-opacity:1"><path
         d="M 17.5,23.5 C 17.224,23.5 17,23.276 17,23 v -6.5 c 0,-0.276 0.224,-0.5 0.5,-0.5 0.276,0 0.5,0.224 0.5,0.5 V 23 c 0,0.276 -0.224,0.5 -0.5,0.5 z"
         id="path40"
         inkscape:connector-curvature="0"
         style="fill:#034a73;fill-opacity:1" /></g><g
       id="g42"
       style="fill:#034a73;fill-opacity:1"><path
         d="M 19.5,24 C 19.224,24 19,23.776 19,23.5 v -6 c 0,-0.276 0.224,-0.5 0.5,-0.5 0.276,0 0.5,0.224 0.5,0.5 v 6 c 0,0.276 -0.224,0.5 -0.5,0.5 z"
         id="path44"
         inkscape:connector-curvature="0"
         style="fill:#034a73;fill-opacity:1" /></g></g></svg>