<?xml version="1.0" encoding="UTF-8" standalone="no"?>
<svg
   xmlns:dc="http://purl.org/dc/elements/1.1/"
   xmlns:cc="http://creativecommons.org/ns#"
   xmlns:rdf="http://www.w3.org/1999/02/22-rdf-syntax-ns#"
   xmlns:svg="http://www.w3.org/2000/svg"
   xmlns="http://www.w3.org/2000/svg"
   xmlns:sodipodi="http://sodipodi.sourceforge.net/DTD/sodipodi-0.dtd"
   xmlns:inkscape="http://www.inkscape.org/namespaces/inkscape"
   viewBox="0 0 287.41296 216.75728"
   version="1.1"
   xml:space="preserve"
   style="fill-rule:evenodd;stroke-linejoin:round;stroke-miterlimit:1.41420996"
   x="0px"
   y="0px"
   stroke-miterlimit="1.41421"
   id="svg2"
   inkscape:version="0.48.4 r9939"
   sodipodi:docname="logo_pasar.svg"
   width="287.41296"
   height="216.75728"><metadata
     id="metadata14"><rdf:RDF><cc:Work
         rdf:about=""><dc:format>image/svg+xml</dc:format><dc:type
           rdf:resource="http://purl.org/dc/dcmitype/StillImage" /><dc:title></dc:title></cc:Work></rdf:RDF></metadata><defs
     id="defs12" /><sodipodi:namedview
     pagecolor="#ffffff"
     bordercolor="#666666"
     borderopacity="1"
     objecttolerance="10"
     gridtolerance="10"
     guidetolerance="10"
     inkscape:pageopacity="0"
     inkscape:pageshadow="2"
     inkscape:window-width="1327"
     inkscape:window-height="744"
     id="namedview10"
     showgrid="false"
     fit-margin-top="0"
     fit-margin-left="0"
     fit-margin-right="0"
     fit-margin-bottom="0"
     inkscape:zoom="1.475"
     inkscape:cx="177.07939"
     inkscape:cy="113.35938"
     inkscape:window-x="39"
     inkscape:window-y="24"
     inkscape:window-maximized="1"
     inkscape:current-layer="svg2" /><path
     d="m 277.44758,0 c 2.65173,0 5.17516,1.069255 7.01425,2.95113 1.88188,1.881858 2.95112,4.405287 2.95112,7.056999 0,29.382854 0,114.836871 0,144.176941 0,2.65173 -1.06924,5.21792 -2.95112,7.0998 -1.88187,1.88186 -4.40528,2.95111 -7.09978,2.95111 l -110.85928,0 16.93683,42.25654 39.39097,0 c 0.98372,0 1.92464,0.38492 2.60896,1.06924 0.72709,0.72709 1.11202,1.66803 1.11202,2.60896 0,0.94094 0,1.96741 0,2.90835 0,0.9837 -0.38493,1.92464 -1.11202,2.60896 -0.68432,0.6843 -1.62524,1.06924 -2.60896,1.06924 -21.94089,0 -134.895893,0 -156.836794,0 -0.983704,0 -1.92464,-0.38494 -2.608956,-1.06924 -0.684317,-0.68432 -1.069244,-1.62526 -1.069244,-2.60896 0,-0.94094 0,-1.96741 0,-2.90835 0,-0.94093 0.384927,-1.88187 1.069244,-2.60896 0.684316,-0.68432 1.625252,-1.06924 2.608956,-1.06924 l 39.433744,0 16.89406,-42.25654 -112.270681,0 c -2.6944959,0 -5.2179129,-1.06925 -7.0997837,-2.95111 C 1.0692448,159.40299 0,156.8368 0,154.18507 0,124.845 0,39.390983 0,10.008129 0,7.356417 1.0692448,4.832988 2.9511153,2.95113 4.8329861,1.069255 7.3564031,0 10.050899,0 54.445935,0 232.96701,0 277.36205,0 l 0.0855,0 z m -10.56413,20.529513 -246.353953,0 0,123.176977 246.353953,0 0,-123.176977 z M 133.44173,98.883751 c 0,-3.9776 -1.58248,-7.7841 -4.40529,-10.60692 -2.78004,-2.82279 -6.58655,-4.36252 -10.56414,-4.36252 -0.29939,0 -0.556,0 -0.85539,0 -3.97759,0 -7.7841,1.53973 -10.56414,4.36252 -2.82281,2.82282 -4.40529,6.62932 -4.40529,10.60692 0,6.714849 0,14.627269 0,21.342109 0,3.9776 1.58248,7.7841 4.40529,10.60692 2.78004,2.82279 6.58655,4.40528 10.56414,4.40528 0.29939,0 0.556,0 0.85539,0 3.97759,0 7.7841,-1.58249 10.56414,-4.40528 2.82281,-2.82282 4.40529,-6.62932 4.40529,-10.60692 0,-6.71484 0,-14.62726 0,-21.342109 z m 50.59664,-20.61505 c 0,-3.93481 -1.5397,-7.74131 -4.3625,-10.52136 -2.78005,-2.8228 -6.58655,-4.36252 -10.52137,-4.36252 -0.34216,0 -0.68432,0 -0.98371,0 -8.25457,0 -14.92665,6.6721 -14.92665,14.88388 0,12.31771 0,29.725009 0,42.042709 0,3.93482 1.58248,7.74132 4.36251,10.52137 2.82281,2.82279 6.58655,4.40528 10.56414,4.40528 0.29939,0 0.64155,0 0.98371,0 3.93482,0 7.74132,-1.58249 10.52137,-4.40528 2.8228,-2.78005 4.3625,-6.58655 4.3625,-10.52137 0,-12.3177 0,-29.724999 0,-42.042709 z m 52.05084,-20.52949 c 0,-3.93482 -1.58249,-7.74134 -4.36252,-10.521358 -2.78003,-2.82282 -6.58655,-4.36252 -10.56413,-4.36252 -0.2994,0 -0.64155,0 -0.94094,0 -3.9776,0 -7.7841,1.5397 -10.56415,4.36252 -2.78003,2.780018 -4.3625,6.586538 -4.3625,10.521358 0,17.23623 0,45.378739 0,62.572199 0,3.93482 1.58247,7.74132 4.3625,10.52137 2.78005,2.82279 6.58655,4.40528 10.56415,4.40528 0.29939,0 0.64154,0 0.94094,0 3.97758,0 7.7841,-1.58249 10.56413,-4.40528 2.78003,-2.78005 4.36252,-6.58655 4.36252,-10.52137 0,-17.19346 0,-45.335969 0,-62.572199 z M 82.117985,119.58433 c 0,-8.38289 -6.800394,-15.14051 -15.183273,-15.14051 -0.128317,0 -0.299388,0 -0.427698,0 -8.382877,0 -15.183273,6.75762 -15.183273,15.14051 0,0.17099 0,0.29938 0,0.47047 0,8.38287 6.800396,15.18326 15.183273,15.18326 0.128317,0 0.29939,0 0.427698,0 8.382879,0 15.183273,-6.80039 15.183273,-15.18326 0,-0.17118 0,-0.29941 0,-0.47047 z M 182.84084,36.397103 181.6005,33.360433 c -0.29939,-0.72708 -0.171,-1.58247 0.2994,-2.22402 0.47047,-0.64156 1.19755,-0.98371 2.01017,-0.89818 5.34623,0.38494 15.31159,1.19756 21.12828,1.62526 0.85539,0.0855 1.62524,0.64156 1.92463,1.45418 0.34217,0.76985 0.171,1.71079 -0.38492,2.35234 -3.84928,4.36252 -10.4786,11.847218 -14.0285,15.910358 -0.51323,0.59876 -1.28309,0.85538 -2.09571,0.72708 -0.76985,-0.12825 -1.4114,-0.64155 -1.71079,-1.36864 L 187.1178,46.961233 55.814568,95.718781 c -0.684316,0.25662 -1.496942,-0.0855 -1.796331,-0.81263 -0.256618,-0.72709 0.04277,-1.53971 0.769857,-1.83909 L 182.84084,36.397103 z"
     id="path4"
     inkscape:connector-curvature="0"
     style="fill:#034a73;fill-opacity:1" /></svg>