<?xml version="1.0" encoding="UTF-8" standalone="no"?>
<svg
   xmlns:dc="http://purl.org/dc/elements/1.1/"
   xmlns:cc="http://creativecommons.org/ns#"
   xmlns:rdf="http://www.w3.org/1999/02/22-rdf-syntax-ns#"
   xmlns:svg="http://www.w3.org/2000/svg"
   xmlns="http://www.w3.org/2000/svg"
   xmlns:sodipodi="http://sodipodi.sourceforge.net/DTD/sodipodi-0.dtd"
   xmlns:inkscape="http://www.inkscape.org/namespaces/inkscape"
   version="1.1"
   x="0px"
   y="0px"
   viewBox="0 0 234.08063 234.08063"
   enable-background="new 0 0 100 100"
   xml:space="preserve"
   id="svg2"
   inkscape:version="0.48.4 r9939"
   sodipodi:docname="logo_perdagangan.svg"
   width="234.08063"
   height="234.08063"><metadata
     id="metadata20"><rdf:RDF><cc:Work
         rdf:about=""><dc:format>image/svg+xml</dc:format><dc:type
           rdf:resource="http://purl.org/dc/dcmitype/StillImage" /><dc:title></dc:title></cc:Work></rdf:RDF></metadata><defs
     id="defs18" /><sodipodi:namedview
     pagecolor="#ffffff"
     bordercolor="#666666"
     borderopacity="1"
     objecttolerance="10"
     gridtolerance="10"
     guidetolerance="10"
     inkscape:pageopacity="0"
     inkscape:pageshadow="2"
     inkscape:window-width="1327"
     inkscape:window-height="744"
     id="namedview16"
     showgrid="false"
     fit-margin-top="0"
     fit-margin-left="0"
     fit-margin-right="0"
     fit-margin-bottom="0"
     inkscape:zoom="1.3350176"
     inkscape:cx="-13.290923"
     inkscape:cy="67.359044"
     inkscape:window-x="39"
     inkscape:window-y="24"
     inkscape:window-maximized="1"
     inkscape:current-layer="svg2" /><path
     d="m 193.84919,27.651945 -10.53363,0 0,-27.651945 -39.35597,39.355976 39.35597,39.355971 0,-27.651939 10.53363,0 c 9.27661,0 16.82337,7.546759 16.82337,16.823374 l 0,35.657498 23.40807,0 0,-35.657498 c 0,-22.18382 -18.04762,-40.231437 -40.23144,-40.231437 z"
     id="path4"
     inkscape:connector-curvature="0"
     style="fill:#034a73;fill-opacity:1" /><path
     d="M 65.542576,0 C 29.344348,0 0,29.344348 0,65.542576 c 0,36.198234 29.344348,65.542574 65.542576,65.542574 36.198224,0 65.542574,-29.34434 65.542574,-65.542574 C 131.08515,29.344348 101.7408,0 65.542576,0 z m 19.381876,102.35878 c -3.455029,2.61 -7.717637,4.38667 -12.359457,5.2434 l 0,11.19374 -14.044838,0 0,-11.46995 C 47.015094,104.71831 36.846632,96.268003 36.846632,82.677281 l 0,-7.022422 14.044838,0 0,7.022422 c 0,9.077652 10.018652,11.476972 15.315895,11.476972 3.988734,0 7.72466,-1.0955 10.250392,-3.00326 2.514025,-1.900724 3.735926,-4.477964 3.735926,-7.876811 0,-4.833767 -4.726087,-7.457807 -16.032182,-11.860863 -10.929224,-4.260268 -24.53165,-9.559854 -24.53165,-24.328001 0,-12.635672 8.609485,-20.460988 18.890306,-23.143551 l 0,-11.652533 14.044838,0 0,11.165645 c 10.910498,2.048206 20.482059,9.789252 20.482059,22.834566 l 0,7.022418 -14.044842,0 0,-7.022418 c 0,-7.387586 -7.755091,-9.360885 -12.336049,-9.360885 -4.824402,0 -12.991474,2.139497 -12.991474,10.154418 0,4.81972 5.889468,7.462491 15.587428,11.240551 10.540651,4.108116 24.976407,9.733073 24.976407,24.948314 0,7.77148 -3.307563,14.54811 -9.314072,19.086937 z"
     id="path6"
     inkscape:connector-curvature="0"
     style="fill:#034a73;fill-opacity:1" /><path
     d="m 168.53805,102.99548 c -36.19823,0 -65.54257,29.34435 -65.54257,65.54257 0,36.19823 29.34434,65.54258 65.54257,65.54258 36.19823,0 65.54258,-29.34435 65.54258,-65.54258 0,-36.19822 -29.34435,-65.54257 -65.54258,-65.54257 z m 23.57894,101.90232 c -4.02151,3.02432 -11.66189,5.74434 -20.07709,5.74668 -5.06082,0 -10.4002,-0.98548 -15.40016,-3.48078 -6.21251,-3.10157 -13.25365,-9.22512 -16.83274,-21.19132 l -11.69468,0 0,-14.04484 9.42643,0 c -0.0585,-1.2336 -0.10297,-2.48594 -0.10297,-3.79912 0,-0.72332 0.0328,-1.43024 0.0585,-2.14185 l -9.38196,0 0,-14.04484 11.79533,0 c 3.18817,-9.69795 9.37025,-17.27514 18.02187,-21.67118 10.80516,-5.48919 24.1735,-5.06082 32.51614,1.02762 l 5.67178,4.14322 -8.28412,11.34356 -5.67177,-4.14324 c -3.49249,-2.55381 -10.94327,-3.36608 -17.86972,0.14981 -3.9466,2.00607 -7.01774,5.13339 -9.1783,9.14787 l 32.29844,0 0,14.04484 -35.82603,0 c -0.0328,0.71395 -0.10298,1.40448 -0.10298,2.14185 0,1.22658 0.0351,2.49997 0.1147,3.79912 l 35.81668,0 0,14.04484 -32.58402,0 c 1.74155,3.63761 4.30942,6.74152 8.08279,8.62587 7.71297,3.85062 17.61224,1.44662 20.76062,-0.92462 l 5.61325,-4.22281 8.44095,11.2265 -5.61091,4.22282 z"
     id="path8"
     inkscape:connector-curvature="0"
     style="fill:#034a73;fill-opacity:1" /><path
     d="m 40.231438,206.42869 10.533628,0 0,27.65194 39.355977,-39.35597 -39.355976,-39.35598 0,27.65194 -10.533628,0 c -9.276616,0 -16.823375,-7.54676 -16.823375,-16.82337 l 0,-35.6575 -23.408064,0 0,35.6575 c 0,22.18382 18.047618,40.23144 40.231439,40.23144 z"
     id="path10"
     inkscape:connector-curvature="0"
     style="fill:#034a73;fill-opacity:1" /></svg>