<?xml version="1.0" encoding="UTF-8" standalone="no"?>
<svg
   xmlns:dc="http://purl.org/dc/elements/1.1/"
   xmlns:cc="http://creativecommons.org/ns#"
   xmlns:rdf="http://www.w3.org/1999/02/22-rdf-syntax-ns#"
   xmlns:svg="http://www.w3.org/2000/svg"
   xmlns="http://www.w3.org/2000/svg"
   xmlns:sodipodi="http://sodipodi.sourceforge.net/DTD/sodipodi-0.dtd"
   xmlns:inkscape="http://www.inkscape.org/namespaces/inkscape"
   viewBox="0 0 221.3047 237.07631"
   version="1.1"
   x="0px"
   y="0px"
   id="svg2"
   inkscape:version="0.48.4 r9939"
   sodipodi:docname="logo_utilitas.svg"
   width="221.3047"
   height="237.07631">
  <metadata
     id="metadata28">
    <rdf:RDF>
      <cc:Work
         rdf:about="">
        <dc:format>image/svg+xml</dc:format>
        <dc:type
           rdf:resource="http://purl.org/dc/dcmitype/StillImage" />
        <dc:title>17 -House Utilities- (house, home, property, real, estate)</dc:title>
      </cc:Work>
    </rdf:RDF>
  </metadata>
  <defs
     id="defs26" />
  <sodipodi:namedview
     pagecolor="#ffffff"
     bordercolor="#666666"
     borderopacity="1"
     objecttolerance="10"
     gridtolerance="10"
     guidetolerance="10"
     inkscape:pageopacity="0"
     inkscape:pageshadow="2"
     inkscape:window-width="1327"
     inkscape:window-height="744"
     id="namedview24"
     showgrid="false"
     fit-margin-top="0"
     fit-margin-left="0"
     fit-margin-right="0"
     fit-margin-bottom="0"
     inkscape:zoom="1.1125147"
     inkscape:cx="209.64972"
     inkscape:cy="175.09436"
     inkscape:window-x="39"
     inkscape:window-y="24"
     inkscape:window-maximized="1"
     inkscape:current-layer="svg2" />
  <title
     id="title4">17 -House Utilities- (house, home, property, real, estate)</title>
  <desc
     id="desc6">Created with Sketch.</desc>
  <g
     id="g8"
     style="fill:#034a73;fill-opacity:1;fill-rule:evenodd;stroke:none"
     transform="matrix(3.9512719,0,0,3.9512719,0.03173672,-0.00197564)">
    <g
       transform="translate(-825,-482)"
       id="g10"
       style="fill:#034a73;fill-opacity:1">
      <g
         transform="translate(824,482)"
         id="g12"
         style="fill:#034a73;fill-opacity:1">
        <path
           d="m 35,30.0005 -18,0 0,4 16.555,0 c 1.348,0 2.445,1.097 2.445,2.446 l 0,4.554 4,0 0,-6 c 0,-2.757 -2.243,-5 -5,-5"
           id="path14"
           inkscape:connector-curvature="0"
           style="fill:#034a73;fill-opacity:1" />
        <path
           d="m 38,47.4146 -1.293,1.293 c -0.713,0.713 -0.713,1.873 0,2.586 0.713,0.713 1.873,0.713 2.586,0 0.713,-0.713 0.713,-1.873 0,-2.586 L 38,47.4146 z"
           id="path16"
           inkscape:connector-curvature="0"
           style="fill:#034a73;fill-opacity:1" />
        <path
           d="m 42,42.0005 c 0,0.552 -0.447,1 -1,1 l -6,0 c -0.553,0 -1,-0.448 -1,-1 l 0,-5.554 c 0,-0.246 -0.2,-0.446 -0.445,-0.446 l -17.555,0 c -0.553,0 -1,-0.448 -1,-1 l 0,-6 c 0,-0.552 0.447,-1 1,-1 l 13,0 0,-3.993 -2.999,0.005 -0.001,0 c -0.552,0 -0.999,-0.447 -1,-0.999 -0.001,-0.552 0.446,-1 0.999,-1.001 l 8,-0.012 10e-4,0 c 0.552,0 0.999,0.447 1,0.999 10e-4,0.552 -0.446,1 -0.999,1.001 l -3.001,0.004 0,3.996 4,0 c 3.859,0 7,3.14 7,7 l 0,7 z m -1.293,10.707 c -0.746,0.747 -1.727,1.12 -2.707,1.12 -0.98,0 -1.961,-0.373 -2.707,-1.12 -1.493,-1.493 -1.493,-3.921 0,-5.414 l 2,-2 c 0.391,-0.391 1.023,-0.391 1.414,0 l 2,2 c 1.493,1.493 1.493,3.921 0,5.414 l 0,0 z M 56.253,22.1275 33.278,1.7485 c -2.41,-2.321 -6.183,-2.32 -8.568,-0.02 l -7.71,7.011 0,-2.739 1,0 c 0.553,0 1,-0.448 1,-1 l 0,-4 c 0,-0.552 -0.447,-1 -1,-1 l -12,0 c -0.553,0 -1,0.448 -1,1 l 0,4 c 0,0.552 0.447,1 1,1 l 1,0 0,11.543 -5.255,4.558 c -0.7,0.62 -0.937,1.586 -0.605,2.46 0.332,0.874 1.15,1.439 2.085,1.439 l 3.775,0 0,28 -1,0 c -0.553,0 -1,0.448 -1,1 l 0,4 c 0,0.552 0.447,1 1,1 l 45.992,0 c 0.552,0 0.999,-0.446 1,-0.998 l 0.008,-4 c 10e-4,-0.266 -0.104,-0.521 -0.292,-0.709 -0.187,-0.188 -0.442,-0.293 -0.708,-0.293 l -1,0 0,-28 3.782,0 c 0.929,0 1.741,-0.561 2.072,-1.429 0.329,-0.867 0.093,-1.827 -0.601,-2.444 l 0,0 z"
           id="path18"
           inkscape:connector-curvature="0"
           style="fill:#034a73;fill-opacity:1" />
      </g>
    </g>
  </g>
</svg>
